QalamBadi-ItalicContrast.ufo
<glyph name="exclam" format="2">
  <advance width="434"/>
  <unicode hex="0021"/>
  <outline>
    <contour>
      <point x="375.7589385190421" y="1255.0" type="line" smooth="yes"/>
      <point x="337.7993356964111" y="1255.6721825314235"/>
      <point x="304.9431473294399" y="1248.8417675988603"/>
      <point x="300.09178893924434" y="1217.5023303120242" type="curve" smooth="yes"/>
      <point x="223.43132685835397" y="510.4888132061533" type="line" smooth="yes"/>
      <point x="221.07676083805725" y="485.31121551871456"/>
      <point x="256.8749342891552" y="477.3310717114036"/>
      <point x="298.8157190487277" y="478.0" type="curve" smooth="yes"/>
      <point x="341.12903384302774" y="477.43475487369597"/>
      <point x="378.76539642174185" y="488.5019207569603"/>
      <point x="389.5300215358183" y="515.337020637511" type="curve" smooth="yes"/>
      <point x="563.1874874138983" y="1222.34952199716" type="line" smooth="yes"/>
      <point x="573.0892738978471" y="1253.3891599899464"/>
      <point x="544.6243062107832" y="1255.8389903606617"/>
      <point x="505.7589385190421" y="1255.0" type="curve" smooth="yes"/>
    </contour>
    <contour>
      <point x="102.89468342833483" y="204.568925512663" type="curve" smooth="yes"/>
      <point x="75.74032839923123" y="50.56892551266298" type="line" smooth="yes"/>
      <point x="69.36230122945955" y="13.321748190028192"/>
      <point x="123.43644644898464" y="3.849643647780404"/>
      <point x="215.23673019291536" y="4.0" type="curve" smooth="yes"/>
      <point x="306.85253898923276" y="3.8639565914950573"/>
      <point x="364.0746567097287" y="16.496735656943745"/>
      <point x="376.95033155586606" y="55.43107448733703" type="curve" smooth="yes"/>
      <point x="404.10468658496967" y="209.431074487337" type="line" smooth="yes"/>
      <point x="410.4827137547414" y="246.6782518099718"/>
      <point x="356.40856853521626" y="256.1503563522196"/>
      <point x="264.60828479128554" y="256.0" type="curve" smooth="yes"/>
      <point x="172.99247599496812" y="256.1360434085049"/>
      <point x="115.77035827447219" y="243.50326434305626"/>
    </contour>
  </outline>
</glyph>
<glyph name="numbersign" format="2">
  <advance width="1292"/>
  <unicode hex="0023"/>
  <outline>
    <contour>
      <point x="1111.5303666329821" y="1170.4009489470602" type="curve" smooth="yes"/>
      <point x="996.1161025983608" y="905.8578247580609" type="line" smooth="yes"/>
      <point x="990.0889369557583" y="877.3450131256752"/>
      <point x="967.8930617070171" y="851.9111094404352"/>
      <point x="951.6793324534472" y="851.0" type="curve" smooth="yes"/>
      <point x="786.5175282542284" y="851.0" type="line" smooth="yes"/>
      <point x="773.910217202562" y="852.8240749173702"/>
      <point x="774.0116920245075" y="886.1443530933703"/>
      <point x="782.6159130614993" y="917.0543358472662" type="curve" smooth="yes"/>
      <point x="883.1935835671588" y="1147.6015074451968" type="line" smooth="yes"/>
      <point x="902.7665027212865" y="1180.1458752473616"/>
      <point x="848.2469735540787" y="1195.6910327234375"/>
      <point x="801.1793196765342" y="1195.0" type="curve" smooth="yes"/>
      <point x="772.0569828384307" y="1195.2743876090676"/>
      <point x="733.7990784134971" y="1188.7036590864132"/>
      <point x="717.5303666329822" y="1170.4009489470602" type="curve" smooth="yes"/>
      <point x="602.1161025983608" y="905.8578247580609" type="line" smooth="yes"/>
      <point x="596.0889369557583" y="877.3450131256752"/>
      <point x="573.8930617070171" y="851.9111094404352"/>
      <point x="557.6793324534472" y="851.0" type="curve" smooth="yes"/>
      <point x="377.5228383128222" y="851.0" type="line" smooth="yes"/>
      <point x="325.0373598913397" y="851.5927660109063"/>
      <point x="287.07913478813725" y="839.509559543111"/>
      <point x="276.2222941234953" y="790.568925512663" type="curve" smooth="yes"/>
      <point x="266.7285670413081" y="742.0286344810233"/>
      <point x="298.8444058740781" y="734.2697712107026"/>
      <point x="352.1317530908033" y="735.0" type="curve" smooth="yes"/>
      <point x="494.8559047021314" y="735.0" type="line" smooth="yes"/>
      <point x="507.4632157054504" y="733.1759250678558"/>
      <point x="507.36174054199415" y="699.8556467747428"/>
      <point x="498.7575192756306" y="668.9456641627742" type="curve" smooth="yes"/>
      <point x="432.40555398190327" y="516.8578242625599" type="line" smooth="yes"/>
      <point x="426.3783878887577" y="488.34501286687123"/>
      <point x="404.1825120687809" y="462.9111094188931"/>
      <point x="387.96878270980744" y="462.0" type="curve" smooth="yes"/>
      <point x="238.93164281722932" y="462.0" type="line" smooth="yes"/>
      <point x="186.4461643957468" y="462.59276601090625"/>
      <point x="148.48793929254435" y="450.509559543111"/>
      <point x="137.63109862790245" y="401.568925512663" type="curve" smooth="yes"/>
      <point x="128.1373715457152" y="353.02863448102335"/>
      <point x="160.25321037848522" y="345.2697712107027"/>
      <point x="213.54055759521037" y="346.0" type="curve" smooth="yes"/>
      <point x="325.1453244409135" y="346.0" type="line" smooth="yes"/>
      <point x="337.75263560755224" y="344.1759251177631"/>
      <point x="337.6511615977362" y="310.85564722026265"/>
      <point x="329.04694110620085" y="279.9456641288571" type="curve" smooth="yes"/>
      <point x="224.1064489009016" y="39.398608040692665" type="line" smooth="yes"/>
      <point x="204.5336233796614" y="6.854124752638409"/>
      <point x="259.0531525468693" y="-8.691032723437598"/>
      <point x="306.1208064244138" y="-8.0" type="curve" smooth="yes"/>
      <point x="335.2431432625173" y="-8.274387609067688"/>
      <point x="373.5010476874508" y="-1.7036590864131096"/>
      <point x="389.7697814554389" y="16.59902391989503" type="curve" smooth="yes"/>
      <point x="509.5467521092929" y="291.14217435725374" type="line" smooth="yes"/>
      <point x="515.5739169474793" y="319.6549864122468"/>
      <point x="537.7697911763163" y="345.08889052110277"/>
      <point x="553.9835202416948" y="346.0" type="curve" smooth="yes"/>
      <point x="719.1453549584917" y="346.0" type="line" smooth="yes"/>
      <point x="731.752665852931" y="344.17592503458434"/>
      <point x="731.6511899203813" y="310.85564647772975"/>
      <point x="723.0469681374656" y="279.94566418538574" type="curve" smooth="yes"/>
      <point x="618.1064496918535" y="39.39860706512839" type="line" smooth="yes"/>
      <point x="598.5336233796613" y="6.854124752638409"/>
      <point x="653.0531525468692" y="-8.691032723437594"/>
      <point x="700.1208064244138" y="-8.0" type="curve" smooth="yes"/>
      <point x="729.2431432625173" y="-8.274387609067688"/>
      <point x="767.5010476874508" y="-1.7036590864131096"/>
      <point x="783.7697806891892" y="16.59902486546724" type="curve" smooth="yes"/>
      <point x="903.5467778490759" y="291.14217645753723" type="line" smooth="yes"/>
      <point x="909.5739445969828" y="319.65498750924115"/>
      <point x="931.7698212471194" y="345.0888906124135"/>
      <point x="947.9835507592729" y="346.0" type="curve" smooth="yes"/>
      <point x="1125.5405575952104" y="346.0" type="line" smooth="yes"/>
      <point x="1178.026036016693" y="345.40723398909375"/>
      <point x="1215.9842611198953" y="357.490440456889"/>
      <point x="1226.8411017845372" y="406.431074487337" type="curve" smooth="yes"/>
      <point x="1236.3348288667244" y="454.97136551897665"/>
      <point x="1204.2189900339547" y="462.7302287892973"/>
      <point x="1150.9316428172294" y="462.0" type="curve" smooth="yes"/>
      <point x="1010.8069479930106" y="462.0" type="line" smooth="yes"/>
      <point x="998.1996369896914" y="463.8240749321442"/>
      <point x="998.3011121531479" y="497.14435322525713"/>
      <point x="1006.9053334195113" y="528.0543358372258" type="curve" smooth="yes"/>
      <point x="1073.2572987132387" y="680.1421757374401" type="line" smooth="yes"/>
      <point x="1079.2844648063842" y="708.6549871331288"/>
      <point x="1101.4803406263609" y="734.088890581107"/>
      <point x="1117.6940699853344" y="735.0" type="curve" smooth="yes"/>
      <point x="1264.1317530908032" y="735.0" type="line" smooth="yes"/>
      <point x="1316.6172315122856" y="734.4072339890937"/>
      <point x="1354.5754566154883" y="746.490440456889"/>
      <point x="1365.4322972801301" y="795.431074487337" type="curve" smooth="yes"/>
      <point x="1374.9260243623173" y="843.9713655189767"/>
      <point x="1342.8101855295472" y="851.7302287892974"/>
      <point x="1289.5228383128222" y="851.0" type="curve" smooth="yes"/>
      <point x="1180.5175282542284" y="851.0" type="line" smooth="yes"/>
      <point x="1167.9102172025619" y="852.8240749173701"/>
      <point x="1168.0116920245075" y="886.1443530933703"/>
      <point x="1176.6159130614994" y="917.0543358472662" type="curve" smooth="yes"/>
      <point x="1277.1935835671588" y="1147.6015074451968" type="line" smooth="yes"/>
      <point x="1296.7665027212865" y="1180.1458752473616"/>
      <point x="1242.2469735540785" y="1195.6910327234375"/>
      <point x="1195.179319676534" y="1195.0" type="curve" smooth="yes"/>
      <point x="1166.0569828384305" y="1195.2743876090676"/>
      <point x="1127.7990784134972" y="1188.7036590864132"/>
    </contour>
    <contour>
      <point x="679.2573049731254" y="680.1421729856402" type="line" smooth="yes"/>
      <point x="685.2844685641478" y="708.6549856958424"/>
      <point x="707.4803412117276" y="734.0888904614712"/>
      <point x="723.6940699853345" y="735.0" type="curve" smooth="yes"/>
      <point x="888.8558741845533" y="735.0" type="line" smooth="yes"/>
      <point x="901.4631851878723" y="733.1759250678558"/>
      <point x="901.361710024416" y="699.8556467747428"/>
      <point x="892.7574887580524" y="668.9456641627742" type="curve" smooth="yes"/>
      <point x="826.405523464325" y="516.8578242625599" type="line" smooth="yes"/>
      <point x="820.3783573711796" y="488.34501286687123"/>
      <point x="798.1824815512028" y="462.9111094188931"/>
      <point x="781.9687521922293" y="462.0" type="curve" smooth="yes"/>
      <point x="616.8069785105887" y="462.0" type="line" smooth="yes"/>
      <point x="604.1996671884075" y="463.8240748347062"/>
      <point x="604.3011400995182" y="497.14435235543266"/>
      <point x="612.9053598531219" y="528.0543359034448" type="curve" smooth="yes"/>
    </contour>
  </outline>
</glyph>
<glyph name="dollar" format="2">
  <advance width="1040"/>
  <unicode hex="0024"/>
  <outline>
    <contour>
      <point x="210.1400114372365" y="814.568925512663" type="curve" smooth="yes"/>
      <point x="188.39994767328218" y="696.2670584324114"/>
      <point x="250.99661592224723" y="640.2004342242624"/>
      <point x="339.4738605365061" y="604.7842524523193" type="curve" smooth="yes"/>
      <point x="477.9632516432507" y="546.8571350686769"/>
      <point x="687.7492308751199" y="556.9253052050703"/>
      <point x="790.332580542306" y="513.0284428054008" type="curve" smooth="yes"/>
      <point x="839.2316338550136" y="490.8262713573377"/>
      <point x="858.1074291696074" y="449.99863900585535"/>
      <point x="847.4957367133048" y="385.568925512663" type="curve" smooth="yes"/>
      <point x="834.1075631899246" y="281.1568114293279"/>
      <point x="753.1103746886422" y="206.4263273888976"/>
      <point x="582.4778055326002" y="206.0" type="curve" smooth="yes"/>
      <point x="455.1454577567403" y="206.13999239415168"/>
      <point x="340.48104990125205" y="243.22970722761352"/>
      <point x="249.78968251994237" y="305.2752773519987" type="curve" smooth="yes"/>
      <point x="215.3338984060945" y="321.4555411147881"/>
      <point x="161.69056083150286" y="321.1962939817747"/>
      <point x="121.69694734425688" y="273.1568114293279" type="curve" smooth="yes"/>
      <point x="85.95386406655261" y="227.5311896001091"/>
      <point x="95.13330620871815" y="208.38709036256233"/>
      <point x="136.45462840426046" y="190.86732930266848" type="curve" smooth="yes"/>
      <point x="226.48720651147977" y="136.78052017899026"/>
      <point x="336.23626042076876" y="104.90826751522582"/>
      <point x="409.0904666541184" y="98.00551941877177" type="curve" smooth="yes"/>
      <point x="422.6279219666027" y="93.3197291506788"/>
      <point x="429.5810878110675" y="60.337918120307364"/>
      <point x="424.5904890465227" y="28.8155380614911" type="curve" smooth="yes"/>
      <point x="390.8685512850662" y="-162.431074487337" type="line" smooth="yes"/>
      <point x="382.63803164145685" y="-203.96727216811334"/>
      <point x="418.8843945275114" y="-211.53638349407166"/>
      <point x="475.0122991173333" y="-211.0" type="curve" smooth="yes"/>
      <point x="530.5319385828882" y="-211.44729316743454"/>
      <point x="571.6231623055879" y="-199.74498324295672"/>
      <point x="582.078554441701" y="-157.568925512663" type="curve" smooth="yes"/>
      <point x="614.9979348492063" y="29.126158105501084" type="line" smooth="yes"/>
      <point x="615.8083881259776" y="59.655994204807214"/>
      <point x="631.6148178967964" y="88.30544957623563"/>
      <point x="647.2405240106959" y="90.67938837821991" type="curve" smooth="yes"/>
      <point x="856.4625949488025" y="98.09282219757698"/>
      <point x="1017.8994275929876" y="216.16336554518605"/>
      <point x="1052.7057398699396" y="390.431074487337" type="curve" smooth="yes"/>
      <point x="1077.5555118902562" y="526.5315618574605"/>
      <point x="1004.1474799828387" y="587.5051073365978"/>
      <point x="905.0259674068437" y="625.0421289429291" type="curve" smooth="yes"/>
      <point x="760.5138339862843" y="680.124306087245"/>
      <point x="554.9095803903472" y="670.0710474896104"/>
      <point x="460.23031501578214" y="712.0123937359301" type="curve" smooth="yes"/>
      <point x="419.8903553644441" y="731.2701439973213"/>
      <point x="406.87382762723536" y="767.0498569098504"/>
      <point x="415.3500145938713" y="819.431074487337" type="curve" smooth="yes"/>
      <point x="428.6973381468595" y="927.2787658493874"/>
      <point x="511.44627725031063" y="988.6420662137713"/>
      <point x="650.6046759674914" y="989.0" type="curve" smooth="yes"/>
      <point x="770.1977043854338" y="988.8792840152871"/>
      <point x="875.0735860059143" y="956.9084484014128"/>
      <point x="965.2503839326685" y="901.0646554948996" type="curve" smooth="yes"/>
      <point x="1001.9116786311948" y="885.6795146291573"/>
      <point x="1055.4410286638497" y="886.4545008846175"/>
      <point x="1092.3423930044817" y="935.4396529255012" type="curve" smooth="yes"/>
      <point x="1126.9644210949739" y="982.1511560723739"/>
      <point x="1116.225391150978" y="1001.3539218638521"/>
      <point x="1074.2684822536125" y="1017.86503777352" type="curve" smooth="yes"/>
      <point x="989.6255488955217" y="1063.9630926257357"/>
      <point x="889.9727762445673" y="1090.6899198420194"/>
      <point x="827.4036268940814" y="1096.8308693707334" type="curve" smooth="yes"/>
      <point x="815.7607439894342" y="1101.4258236964017"/>
      <point x="810.1372032229741" y="1132.5761397758813"/>
      <point x="814.7804057948322" y="1162.1488534577327" type="curve" smooth="yes"/>
      <point x="847.8033143693577" y="1349.4310744873371" type="line" smooth="yes"/>
      <point x="856.0338340129671" y="1390.9672721681134"/>
      <point x="819.7874711269126" y="1398.5363834940717"/>
      <point x="763.6595665370905" y="1398.0" type="curve" smooth="yes"/>
      <point x="708.1399270715357" y="1398.4472931674345"/>
      <point x="667.0487033488359" y="1386.7449832429568"/>
      <point x="656.5933112127228" y="1344.5689255126629" type="curve" smooth="yes"/>
      <point x="625.0875412176811" y="1165.8908249267254" type="line" smooth="yes"/>
      <point x="624.2676333686125" y="1135.3689878713137"/>
      <point x="608.3904874801522" y="1106.636243437949"/>
      <point x="592.7138258553176" y="1104.1431854447505" type="curve" smooth="yes"/>
      <point x="427.3698959676251" y="1097.7403371799974"/>
      <point x="247.3924170800305" y="997.0543192364743"/>
    </contour>
  </outline>
</glyph>
<glyph name="percent" format="2">
  <advance width="1312"/>
  <unicode hex="0025"/>
  <outline>
    <contour>
      <point x="690.8293975602157" y="249.568925512663" type="curve" smooth="yes"/>
      <point x="664.7242162398227" y="104.68176859438809"/>
      <point x="779.7276971863223" y="-9.415691175316365"/>
      <point x="942.1208064244138" y="-8.0" type="curve" smooth="yes"/>
      <point x="1103.1067325013023" y="-9.073768073094174"/>
      <point x="1259.8546810618727" y="108.42196623921113"/>
      <point x="1290.0394007168504" y="254.431074487337" type="curve" smooth="yes"/>
      <point x="1316.1445820372437" y="399.3182314056119"/>
      <point x="1201.141101090744" y="513.4156911753164"/>
      <point x="1038.7479918526526" y="512.0" type="curve" smooth="yes"/>
      <point x="877.7620657757641" y="513.0737680730941"/>
      <point x="721.0141172151937" y="395.57803376078886"/>
    </contour>
    <contour>
      <point x="231.26072538409738" y="932.568925512663" type="curve" smooth="yes"/>
      <point x="205.1555440637043" y="787.6817685943881"/>
      <point x="320.15902501020383" y="673.5843088246836"/>
      <point x="482.5521342482954" y="675.0" type="curve" smooth="yes"/>
      <point x="643.5380603251839" y="673.9262319269059"/>
      <point x="800.2860088857543" y="791.4219662392111"/>
      <point x="830.4707285407322" y="937.431074487337" type="curve" smooth="yes"/>
      <point x="856.5759098611252" y="1082.3182314056119"/>
      <point x="741.5724289146257" y="1196.4156911753164"/>
      <point x="579.1793196765342" y="1195.0" type="curve" smooth="yes"/>
      <point x="418.1933935996457" y="1196.0737680730942"/>
      <point x="261.4454450390752" y="1078.578033760789"/>
    </contour>
    <contour>
      <point x="194.97531511053637" y="218.13797338042338" type="line" smooth="yes"/>
      <point x="151.37593816871632" y="190.15681142932792"/>
      <point x="144.94413551411586" y="171.68272577568393"/>
      <point x="175.1090406920567" y="142.59820206529997" type="curve" smooth="yes"/>
      <point x="206.6873304051193" y="112.75497106863433"/>
      <point x="261.0641318766003" y="110.97090729688722"/>
      <point x="306.1497439830941" y="139.86202661957665" type="curve" smooth="yes"/>
      <point x="1326.50113797112" y="969.8620266195767" type="line" smooth="yes"/>
      <point x="1370.10051491294" y="997.843188570672"/>
      <point x="1376.5323175675405" y="1016.3172742243161"/>
      <point x="1346.3674123895996" y="1045.4017979347" type="curve" smooth="yes"/>
      <point x="1314.7891226765373" y="1075.2450289313656"/>
      <point x="1260.4123212050563" y="1077.0290927031128"/>
      <point x="1215.3267090985623" y="1048.1379733804233" type="curve" smooth="yes"/>
    </contour>
    <contour>
      <point x="1108.8293975602157" y="249.568925512663" type="curve" smooth="yes"/>
      <point x="1098.4835329203777" y="165.55687147627873"/>
      <point x="1034.013808367554" y="95.0835543791001"/>
      <point x="965.0433139165142" y="94.0" type="curve" smooth="yes"/>
      <point x="897.4916652786264" y="95.43023555803146"/>
      <point x="857.5735110483663" y="169.28703232104925"/>
      <point x="872.0394007168507" y="254.431074487337" type="curve" smooth="yes"/>
      <point x="882.3852653566886" y="338.44312852372127"/>
      <point x="946.8549899095125" y="408.91644562089994"/>
      <point x="1015.8254843605521" y="410.0" type="curve" smooth="yes"/>
      <point x="1083.3771329984397" y="408.5697644419685"/>
      <point x="1123.2952872287" y="334.71296767895075"/>
    </contour>
    <contour>
      <point x="649.2607253840973" y="932.568925512663" type="curve" smooth="yes"/>
      <point x="638.9148607442594" y="848.5568714762787"/>
      <point x="574.4451361914354" y="778.0835543791001"/>
      <point x="505.4746417403958" y="777.0" type="curve" smooth="yes"/>
      <point x="437.9229931025081" y="778.4302355580314"/>
      <point x="398.0048388722479" y="852.2870323210493"/>
      <point x="412.4707285407322" y="937.431074487337" type="curve" smooth="yes"/>
      <point x="422.8165931805702" y="1021.4431285237213"/>
      <point x="487.286317733394" y="1091.9164456208998"/>
      <point x="556.2568121844337" y="1093.0" type="curve" smooth="yes"/>
      <point x="623.8084608223214" y="1091.5697644419686"/>
      <point x="663.7266150525817" y="1017.7129676789508"/>
    </contour>
  </outline>
</glyph>
<glyph name="ampersand" format="2">
  <advance width="1119"/>
  <unicode hex="0026"/>
  <outline>
    <contour>
      <point x="335.6158206734704" y="917.568925512663" type="curve" smooth="yes"/>
      <point x="316.6868692550181" y="814.9566029063216"/>
      <point x="337.7908952975422" y="740.6670813470038"/>
      <point x="366.28859019953603" y="699.9894419560339" type="curve" smooth="yes"/>
      <point x="372.6073052137399" y="676.8297355350181"/>
      <point x="369.39076277983924" y="642.3768893121768"/>
      <point x="357.228459927673" y="626.4281429814303" type="curve" smooth="yes"/>
      <point x="258.70588473589976" y="565.9868021828673"/>
      <point x="152.01263714110576" y="466.283832566399"/>
      <point x="122.81963224839139" y="317.568925512663" type="curve" smooth="yes"/>
      <point x="90.51877643677926" y="138.834077748718"/>
      <point x="207.9243912953846" y="-9.364609173857257"/>
      <point x="447.1208064244138" y="-8.0" type="curve" smooth="yes"/>
      <point x="582.0777941225605" y="-8.4066982616539"/>
      <point x="705.3909705894976" y="49.623423151178685"/>
      <point x="772.7488294760973" y="109.68977040140537" type="curve" smooth="yes"/>
      <point x="784.2498493356167" y="131.89640264879702"/>
      <point x="794.7111092195793" y="132.20817104473215"/>
      <point x="797.6613659616919" y="108.81302742574314" type="curve" smooth="yes"/>
      <point x="868.8085853621272" y="12.33010592032994" type="line" smooth="yes"/>
      <point x="897.4743394331934" y="-11.9683720006226"/>
      <point x="944.8652888704078" y="-10.696224961163853"/>
      <point x="995.8131647551412" y="12.471507831979098" type="curve" smooth="yes"/>
      <point x="1053.7501113511607" y="37.597769416754964"/>
      <point x="1074.3464992767956" y="53.19340021818071"/>
      <point x="1044.8052882203078" y="81.69843579788343" type="curve" smooth="yes"/>
      <point x="945.9029268716781" y="215.95387335021118" type="line" smooth="yes"/>
      <point x="937.0048425840583" y="239.62368608864475"/>
      <point x="938.6006605191468" y="281.93393783010123"/>
      <point x="950.7168957552899" y="307.407950085293" type="curve" smooth="yes"/>
      <point x="993.7736716705997" y="362.17701491121124"/>
      <point x="1058.950510785085" y="475.4789315960388"/>
      <point x="1115.813753127731" y="596.8696561955359" type="curve" smooth="yes"/>
      <point x="1138.5744708520058" y="640.3291637505337"/>
      <point x="1123.1915968357537" y="651.910186134933"/>
      <point x="1055.6040607670875" y="659.1613511290022" type="curve" smooth="yes"/>
      <point x="999.0786738624647" y="667.0"/>
      <point x="954.9120626623624" y="663.8985560251491"/>
      <point x="930.0481293517518" y="622.2253768721649" type="curve" smooth="yes"/>
      <point x="889.9433755419293" y="531.5011813578589"/>
      <point x="844.7634627648871" y="442.19591113368045"/>
      <point x="815.9200151757989" y="396.76746992977945" type="curve" smooth="yes"/>
      <point x="812.0288900676721" y="375.666153327433"/>
      <point x="816.0461553332526" y="371.6918789156358"/>
      <point x="817.2916434580504" y="390.5444302981049" type="curve" smooth="yes"/>
      <point x="596.2105049979497" y="690.7146091584987" type="line" smooth="yes"/>
      <point x="547.2027546340305" y="762.0852293349759"/>
      <point x="525.6540854550118" y="831.1324996137009"/>
      <point x="540.8258238301053" y="922.431074487337" type="curve" smooth="yes"/>
      <point x="557.1463524246537" y="1034.647420098694"/>
      <point x="633.9686722801025" y="1133.8531541639818"/>
      <point x="749.6625453741892" y="1135.0" type="curve" smooth="yes"/>
      <point x="829.3992203658635" y="1134.8105051631971"/>
      <point x="893.7965036170624" y="1107.3396279601197"/>
      <point x="950.5879014607054" y="1061.2179600017143" type="curve" smooth="yes"/>
      <point x="983.5254920522199" y="1044.2733376964215"/>
      <point x="1038.37072382349" y="1042.209033309132"/>
      <point x="1079.7996121757935" y="1089.112342794952" type="curve" smooth="yes"/>
      <point x="1118.7076758770886" y="1137.2461532659506"/>
      <point x="1111.602443623403" y="1151.7923220585221"/>
      <point x="1073.325957523903" y="1170.5297903377825" type="curve" smooth="yes"/>
      <point x="993.7487083754174" y="1223.5272279096798"/>
      <point x="891.8875506886914" y="1255.1776329286158"/>
      <point x="776.7589385190421" y="1255.0" type="curve" smooth="yes"/>
      <point x="550.0695537281364" y="1256.008497247617"/>
      <point x="373.18179227055543" y="1109.077473110595"/>
    </contour>
    <contour>
      <point x="670.6544844576125" y="281.1762130431811" type="line" smooth="yes"/>
      <point x="677.2671376875536" y="259.7807666136327"/>
      <point x="675.1210471860185" y="223.7244249390819"/>
      <point x="664.2954225888759" y="203.5567043037853" type="curve" smooth="yes"/>
      <point x="625.8466697479912" y="160.0212690902862"/>
      <point x="554.1665961565707" y="112.48583688031776"/>
      <point x="473.2171995692666" y="112.0" type="curve" smooth="yes"/>
      <point x="363.0360690039903" y="113.03671539993434"/>
      <point x="307.12292065515015" y="200.45407640632354"/>
      <point x="328.02963540502617" y="322.431074487337" type="curve" smooth="yes"/>
      <point x="343.2968302936977" y="423.6447326310439"/>
      <point x="396.09322196814713" y="496.48878549891026"/>
      <point x="454.44091055437224" y="537.9834729446311" type="curve" smooth="yes"/>
      <point x="468.7437402206508" y="555.0664684520623"/>
      <point x="485.0302913316736" y="550.7660380597856"/>
      <point x="489.0545695739569" y="527.628487069773" type="curve" smooth="yes"/>
    </contour>
  </outline>
</glyph>
<glyph name="quotesingle" format="2">
  <advance width="409"/>
  <unicode hex="0027"/>
  <outline>
    <contour>
      <point x="346.39526217495643" y="1255.0" type="line" smooth="yes"/>
      <point x="308.58750826213577" y="1255.646164931987"/>
      <point x="274.57947098535425" y="1248.8417675988603"/>
      <point x="270.61769138339304" y="1218.2356567521222" type="curve" smooth="yes"/>
      <point x="246.27019515985378" y="768.2391598897201" type="line" smooth="yes"/>
      <point x="245.77912116107612" y="739.7503498107227"/>
      <point x="283.546195049834" y="728.291936037217"/>
      <point x="330.7101148624668" y="729.0" type="curve" smooth="yes"/>
      <point x="378.09374259864956" y="728.4235992914053"/>
      <point x="419.5882609091886" y="742.9886518012673"/>
      <point x="433.1473751111822" y="773.0010523179044" type="curve" smooth="yes"/>
      <point x="567.4962309491864" y="1222.9979553838514" type="line" smooth="yes"/>
      <point x="578.7255975537614" y="1253.3891599899464"/>
      <point x="549.0748956192442" y="1255.8031440447824"/>
      <point x="510.39526217495643" y="1255.0" type="curve" smooth="yes"/>
    </contour>
  </outline>
</glyph>
<glyph name="parenleft" format="2">
  <advance width="709"/>
  <unicode hex="0028"/>
  <outline>
    <contour>
      <point x="146.55604744795897" y="514.568925512663" type="curve" smooth="yes"/>
      <point x="71.94628473808817" y="96.35834329226262"/>
      <point x="276.1041998162493" y="-193.5020568585087"/>
      <point x="481.15007399444886" y="-325.35328098440147" type="curve" smooth="yes"/>
      <point x="523.3182414501028" y="-340.03131361175195"/>
      <point x="572.6210190005912" y="-322.5672177234619"/>
      <point x="599.1105136389315" y="-294.4148315312191" type="curve" smooth="yes"/>
      <point x="624.7532217710831" y="-266.360841685322"/>
      <point x="641.6397932198794" y="-235.22482099907972"/>
      <point x="612.7247227896913" y="-231.2335170693888" type="curve" smooth="yes"/>
      <point x="441.1156298307421" y="-99.56535009373846"/>
      <point x="280.3844604049642" y="143.68064824049054"/>
      <point x="345.7660506045938" y="519.431074487337" type="curve" smooth="yes"/>
      <point x="408.6611966455679" y="894.4431732640638"/>
      <point x="652.9321376774233" y="1139.020310227294"/>
      <point x="871.0182412540283" y="1270.0618876318158" type="curve" smooth="yes"/>
      <point x="905.0819164074499" y="1277.6434702051818"/>
      <point x="906.7263041692806" y="1308.4400162354852"/>
      <point x="892.3945056706439" y="1335.5385232805245" type="curve" smooth="yes"/>
      <point x="876.3961630455049" y="1362.4946908464806"/>
      <point x="831.2270109732598" y="1378.032842008797"/>
      <point x="785.0955811279697" y="1362.681366758381" type="curve" smooth="yes"/>
      <point x="533.7056668664648" y="1230.0139224351094"/>
      <point x="223.69513226845024" y="933.5251324207151"/>
    </contour>
  </outline>
</glyph>
<glyph name="parenright" format="2">
  <advance width="709"/>
  <unicode hex="0029"/>
  <outline>
    <contour>
      <point x="313.8270566447083" y="1332.414831531219" type="curve" smooth="yes"/>
      <point x="288.1843485125566" y="1304.360841685322"/>
      <point x="271.29777706376035" y="1273.2248209990796"/>
      <point x="300.21284749394835" y="1269.2335170693889" type="curve" smooth="yes"/>
      <point x="471.7077842738493" y="1137.499230953772"/>
      <point x="631.8384173309169" y="890.2890677066895"/>
      <point x="566.466211756212" y="514.568925512663" type="curve" smooth="yes"/>
      <point x="503.59234199144885" y="139.5347745512836"/>
      <point x="260.09864193026317" y="-101.05944992784538"/>
      <point x="41.91932902961133" y="-232.06188763181578" type="curve" smooth="yes"/>
      <point x="7.855653876189837" y="-239.64347020518176"/>
      <point x="6.2112661143591374" y="-270.44001623548513"/>
      <point x="20.543064612995934" y="-297.5385232805244" type="curve" smooth="yes"/>
      <point x="36.54140723813484" y="-324.4946908464805"/>
      <point x="81.71055931037988" y="-340.0328420087969"/>
      <point x="127.84198915566998" y="-324.6813667583811" type="curve" smooth="yes"/>
      <point x="379.15289701907847" y="-191.98045191427684"/>
      <point x="688.5189845835431" y="100.49356419647079"/>
      <point x="765.676214912847" y="519.431074487337" type="curve" smooth="yes"/>
      <point x="840.2940992170974" y="937.6673909162935"/>
      <point x="636.9298482978464" y="1231.558623923921"/>
      <point x="431.78749628919087" y="1363.3532809844014" type="curve" smooth="yes"/>
      <point x="389.6193288335369" y="1378.031313611752"/>
      <point x="340.3165512830485" y="1360.567217723462"/>
    </contour>
  </outline>
</glyph>
<glyph name="asterisk" format="2">
  <advance width="1200"/>
  <unicode hex="002A"/>
  <outline>
    <contour>
      <point x="1155.2383220665472" y="660.7307129220562" type="line" smooth="yes"/>
      <point x="1223.352985717573" y="672.1560895239635"/>
      <point x="1269.9498129549474" y="704.3057161641049"/>
      <point x="1261.7045402743765" y="763.0047789233199" type="curve" smooth="yes"/>
      <point x="1248.3636732321283" y="821.6327040777421"/>
      <point x="1183.3051610906311" y="834.0175086018353"/>
      <point x="1116.2930967064099" y="811.0949855430509" type="curve" smooth="yes"/>
      <point x="807.0632338895515" y="680.5640256988515" type="line" smooth="yes"/>
      <point x="793.7571794658217" y="668.9301267174425"/>
      <point x="802.0011704692516" y="693.0264494910548"/>
      <point x="808.9411574315122" y="725.1595960186806" type="curve" smooth="yes"/>
      <point x="899.6596130530605" y="1033.9144043516587" type="line" smooth="yes"/>
      <point x="916.9912117685283" y="1087.7213667640035"/>
      <point x="875.698525371135" y="1114.054224810896"/>
      <point x="798.8003015526431" y="1113.0" type="curve" smooth="yes"/>
      <point x="723.077402072928" y="1113.811417837402"/>
      <point x="668.3401038988097" y="1083.314875847694"/>
      <point x="662.7439115068194" y="1029.1556675041616" type="curve" smooth="yes"/>
      <point x="643.9272155381213" y="720.3726044338496" type="line" smooth="yes"/>
      <point x="645.7346004583286" y="689.0342866002928"/>
      <point x="646.5740156310827" y="668.9445561984554"/>
      <point x="638.412996772729" y="680.9611797482858" type="curve" smooth="yes"/>
      <point x="375.9043653241729" y="811.4521958076972" type="line" smooth="yes"/>
      <point x="315.9149715631656" y="834.0177787777629"/>
      <point x="246.606334953937" y="819.2445916113646"/>
      <point x="210.68361017826214" y="758.772741826379" type="curve" smooth="yes"/>
      <point x="175.8677265574896" y="699.343148443091"/>
      <point x="206.32729273118133" y="671.3860652206649"/>
      <point x="271.7306804549696" y="660.6909719630437" type="curve" smooth="yes"/>
      <point x="567.0500805408059" y="598.7183402600809" type="line" smooth="yes"/>
      <point x="578.407676982283" y="590.0566516580013"/>
      <point x="575.7704997886535" y="553.2535660344769"/>
      <point x="561.6195568783832" y="529.628028158644" type="curve" smooth="yes"/>
      <point x="299.97980456332834" y="287.7177980978185" type="line" smooth="yes"/>
      <point x="247.29741569789337" y="247.049449005501"/>
      <point x="242.34144418081286" y="213.27934175884712"/>
      <point x="297.01254065635555" y="177.81346134337815" type="curve" smooth="yes"/>
      <point x="355.45122734157246" y="141.59633599966972"/>
      <point x="426.7103476526921" y="154.27370868879117"/>
      <point x="472.06158246914185" y="202.4183811098199" type="curve" smooth="yes"/>
      <point x="680.0725424294919" y="480.8427792761387" type="line" smooth="yes"/>
      <point x="688.5938632099352" y="506.73343025844014"/>
      <point x="683.1097559192565" y="506.0075428937137"/>
      <point x="682.7168026105288" y="477.6657663618885" type="curve" smooth="yes"/>
      <point x="793.136859175616" y="199.1860208612357" type="line" smooth="yes"/>
      <point x="819.7977711996988" y="152.83881485218055"/>
      <point x="889.1519952717839" y="140.66199760587537"/>
      <point x="959.5827835900462" y="178.77764556845224" type="curve" smooth="yes"/>
      <point x="1026.2821394996765" y="215.02346302770505"/>
      <point x="1044.2861025806124" y="251.05754216318988"/>
      <point x="1007.6298416561045" y="289.74894034921795" type="curve" smooth="yes"/>
      <point x="831.390727046548" y="531.5371635960174" type="line" smooth="yes"/>
      <point x="822.5580804107027" y="557.5852397725869"/>
      <point x="822.5200015954427" y="591.2208056006785"/>
      <point x="838.1631018160981" y="598.6509674228732" type="curve" smooth="yes"/>
    </contour>
  </outline>
</glyph>
<glyph name="plus" format="2">
  <advance width="1132"/>
  <unicode hex="002B"/>
  <outline>
    <contour>
      <point x="300.3178453833361" y="640.0" type="line" smooth="yes"/>
      <point x="247.83236696185355" y="640.5927660109063"/>
      <point x="209.87414185865111" y="628.509559543111"/>
      <point x="199.01730119400924" y="579.568925512663" type="curve" smooth="yes"/>
      <point x="189.523574111822" y="531.0286344810233"/>
      <point x="221.63941294459198" y="523.2697712107026"/>
      <point x="274.92676016131713" y="524.0" type="curve" smooth="yes"/>
      <point x="535.9267601613171" y="524.0" type="line" smooth="yes"/>
      <point x="549.5089438594813" y="522.4592156987774"/>
      <point x="555.0023199381855" y="491.3848311618551"/>
      <point x="549.8580635089934" y="459.568925512663" type="curve" smooth="yes"/>
      <point x="503.836721544084" y="198.568925512663" type="line" smooth="yes"/>
      <point x="495.76214581865344" y="157.95647762351217"/>
      <point x="531.7546332457474" y="151.5444588852119"/>
      <point x="590.3331233377681" y="152.0" type="curve" smooth="yes"/>
      <point x="648.3875467324061" y="151.61513557150863"/>
      <point x="688.8197613710399" y="162.19852208276782"/>
      <point x="699.0467247007189" y="203.431074487337" type="curve" smooth="yes"/>
      <point x="745.0680666656283" y="464.431074487337" type="line" smooth="yes"/>
      <point x="745.7849333689029" y="495.0394514492362"/>
      <point x="760.83854694557" y="522.8425110008316"/>
      <point x="775.9267601613171" y="524.0" type="curve" smooth="yes"/>
      <point x="1036.9267601613171" y="524.0" type="line" smooth="yes"/>
      <point x="1089.4122385827998" y="523.4072339890937"/>
      <point x="1127.370463686002" y="535.490440456889"/>
      <point x="1138.2273043506439" y="584.431074487337" type="curve" smooth="yes"/>
      <point x="1147.721031432831" y="632.9713655189767"/>
      <point x="1115.6051926000614" y="640.7302287892974"/>
      <point x="1062.3178453833361" y="640.0" type="curve" smooth="yes"/>
      <point x="801.3178453833361" y="640.0" type="line" smooth="yes"/>
      <point x="787.735661685172" y="641.5407843012226"/>
      <point x="782.2422856064677" y="672.6151688381449"/>
      <point x="787.3865420356599" y="704.431074487337" type="curve" smooth="yes"/>
      <point x="833.4078840005692" y="965.431074487337" type="line" smooth="yes"/>
      <point x="841.4824597259997" y="1006.0435223764878"/>
      <point x="805.4899722989057" y="1012.455541114788"/>
      <point x="746.911482206885" y="1012.0" type="curve" smooth="yes"/>
      <point x="688.857058812247" y="1012.3848644284914"/>
      <point x="648.4248441736132" y="1001.8014779172322"/>
      <point x="638.1978808439343" y="960.568925512663" type="curve" smooth="yes"/>
      <point x="592.176538879025" y="699.568925512663" type="line" smooth="yes"/>
      <point x="591.4596721757503" y="668.9605485507637"/>
      <point x="576.4060585990833" y="641.1574889991684"/>
      <point x="561.3178453833361" y="640.0" type="curve" smooth="yes"/>
    </contour>
  </outline>
</glyph>
<glyph name="comma" format="2">
  <advance width="560"/>
  <unicode hex="002C"/>
  <outline>
    <contour>
      <point x="291.430775064672" y="280.0" type="line" smooth="yes"/>
      <point x="256.3506441986589" y="280.52907676602456"/>
      <point x="221.42460854115723" y="271.4148315312191"/>
      <point x="208.00289129774467" y="249.12792264421086" type="curve" smooth="yes"/>
      <point x="29.01149447519113" y="-232.8694769832727" type="line" smooth="yes"/>
      <point x="11.998997908157953" y="-269.49920147582304"/>
      <point x="47.70658808230358" y="-280.6868685265827"/>
      <point x="111.7505104080946" y="-280.0" type="curve" smooth="yes"/>
      <point x="162.11789203621385" y="-280.1989253252677"/>
      <point x="205.0870565669289" y="-270.4278730579044"/>
      <point x="227.1384244743852" y="-245.67612078268337" type="curve" smooth="yes"/>
      <point x="524.4818728054577" y="238.32283551376298" type="line" smooth="yes"/>
      <point x="548.6832269754583" y="269.46811370825145"/>
      <point x="533.8374315551184" y="282.72266979077784"/>
      <point x="485.430775064672" y="280.0" type="curve" smooth="yes"/>
    </contour>
  </outline>
</glyph>
<glyph name="period" format="2">
  <advance width="454"/>
  <unicode hex="002E"/>
  <outline>
    <contour>
      <point x="108.18449284958878" y="234.568925512663" type="curve" smooth="yes"/>
      <point x="75.74032839923123" y="50.56892551266297" type="line" smooth="yes"/>
      <point x="69.77726126336611" y="13.835903467255953"/>
      <point x="126.71923786718787" y="3.8712881146513745"/>
      <point x="225.23673019291536" y="4.0" type="curve" smooth="yes"/>
      <point x="323.595387685166" y="3.8826978374657735"/>
      <point x="383.60195000753595" y="16.820092451254006"/>
      <point x="396.95033155586606" y="55.43107448733703" type="curve" smooth="yes"/>
      <point x="429.3944960062236" y="239.431074487337" type="line" smooth="yes"/>
      <point x="435.35756314208874" y="276.16409653274405"/>
      <point x="378.41558653826695" y="286.12871188534865"/>
      <point x="279.8980942125395" y="286.0" type="curve" smooth="yes"/>
      <point x="181.53943672028885" y="286.1173021625342"/>
      <point x="121.53287439791887" y="273.179907548746"/>
    </contour>
  </outline>
</glyph>
<glyph name="slash" format="2">
  <advance width="1017"/>
  <unicode hex="002F"/>
  <outline>
    <contour>
      <point x="984.4302504446464" y="1350.9255483093018" type="curve" smooth="yes"/>
      <point x="22.720511507406627" y="-292.07030330294305" type="line" smooth="yes"/>
      <point x="-3.4106474326914267" y="-322.3191244796727"/>
      <point x="51.32743658233729" y="-341.5936536535507"/>
      <point x="121.8183961963485" y="-341.0" type="curve" smooth="yes"/>
      <point x="160.26117986681464" y="-341.4366408154887"/>
      <point x="198.01390971785486" y="-329.6708517257692"/>
      <point x="215.60243120715586" y="-311.92554830930175" type="curve" smooth="yes"/>
      <point x="1177.3121701443956" y="1331.070303302943" type="line" smooth="yes"/>
      <point x="1203.4433290844938" y="1361.3191244796726"/>
      <point x="1148.705245069465" y="1380.5936536535507"/>
      <point x="1078.2142854554538" y="1380.0" type="curve" smooth="yes"/>
      <point x="1039.7715017849878" y="1380.4366408154888"/>
      <point x="1002.0187719339474" y="1368.6708517257691"/>
    </contour>
  </outline>
</glyph>
<glyph name="zero" format="2">
  <advance width="1080"/>
  <unicode hex="0030"/>
  <outline>
    <contour>
      <point x="194.95689798180234" y="590.568925512663" type="curve" smooth="yes"/>
      <point x="129.42636803858875" y="224.25962598134126"/>
      <point x="262.0529813216085" y="-10.22631593881562"/>
      <point x="536.1208064244138" y="-8.0" type="curve" smooth="yes"/>
      <point x="808.1956661256512" y="-9.601371903393277"/>
      <point x="1027.0927992436118" y="228.67042697515498"/>
      <point x="1094.166901138437" y="595.431074487337" type="curve" smooth="yes"/>
      <point x="1159.6984332215372" y="961.7463615290465"/>
      <point x="1027.2922921390373" y="1197.2419921772137"/>
      <point x="753.1793196765342" y="1195.0" type="curve" smooth="yes"/>
      <point x="481.0694343643024" y="1196.6112803722572"/>
      <point x="262.02718990539483" y="957.3342063326689"/>
    </contour>
    <contour>
      <point x="359.42805843746066" y="419.7269869056505" type="line" smooth="yes"/>
      <point x="358.8971176721166" y="407.73949643984224"/>
      <point x="380.7811829344677" y="416.0267375949751"/>
      <point x="384.5020338911997" y="435.031024625737" type="curve" smooth="yes"/>
      <point x="383.8248273769281" y="466.88720836349955"/>
      <point x="388.5938803794302" y="528.2194226439167"/>
      <point x="400.16690113843714" y="595.431074487337" type="curve" smooth="yes"/>
      <point x="451.09784662024424" y="896.3968671436637"/>
      <point x="582.9020430253357" y="1073.1800696560867"/>
      <point x="727.0829265316813" y="1075.0" type="curve" smooth="yes"/>
      <point x="802.3292931969959" y="1074.3004528888016"/>
      <point x="852.7889972072022" y="1021.9111283433732"/>
      <point x="867.3142103603064" y="965.8883848375934" type="curve" smooth="yes"/>
      <point x="873.0071339856443" y="940.5455035486146"/>
      <point x="866.6642930277958" y="901.7012616385472"/>
      <point x="853.5405232119372" y="881.4204024825982" type="curve" smooth="yes"/>
    </contour>
    <contour>
      <point x="888.9568979818023" y="590.568925512663" type="curve" smooth="yes"/>
      <point x="838.0303660056927" y="289.59744796540826"/>
      <point x="706.4495850995809" y="113.8042560006471"/>
      <point x="562.2171995692665" y="112.0" type="curve" smooth="yes"/>
      <point x="487.083538283516" y="112.68841420187997"/>
      <point x="436.65460445797356" y="164.5593537935989"/>
      <point x="422.11023763258254" y="220.220934416449" type="curve" smooth="yes"/>
      <point x="416.4259623371144" y="245.4355399420545"/>
      <point x="422.6648289445699" y="284.0994268371918"/>
      <point x="435.68034686387125" y="304.2994252924634" type="curve" smooth="yes"/>
      <point x="929.729586021127" y="766.1271277829428" type="line" smooth="yes"/>
      <point x="930.2628771594245" y="778.1180538719709"/>
      <point x="908.3515372076369" y="769.8221028674523"/>
      <point x="904.6343653575058" y="750.8160720813672" type="curve" smooth="yes"/>
      <point x="905.2916787884841" y="718.9573365073915"/>
      <point x="900.5107140169362" y="657.6685616018046"/>
    </contour>
  </outline>
</glyph>
<glyph name="one" format="2">
  <advance width="1080"/>
  <unicode hex="0031"/>
  <outline>
    <contour>
      <point x="506.3212609231978" y="958.5246403208471" type="line" smooth="yes"/>
      <point x="487.84574230056273" y="944.0256250578889"/>
      <point x="474.62910926531316" y="913.371262794976"/>
      <point x="476.0033582660625" y="870.4690434463276" type="curve" smooth="yes"/>
      <point x="478.5567067189931" y="826.883129028928"/>
      <point x="529.8502854188779" y="834.6948112973124"/>
      <point x="548.5264186960848" y="847.4876498422261" type="curve" smooth="yes"/>
      <point x="635.0200256353696" y="961.0536434348985" type="line" smooth="yes"/>
      <point x="645.7392853161822" y="986.082172853688"/>
      <point x="616.5281461716248" y="974.487962721898"/>
      <point x="611.8137278409037" y="943.568925512663" type="curve" smooth="yes"/>
      <point x="477.65618651773326" y="182.72370044195506" type="line" smooth="yes"/>
      <point x="477.5790286850221" y="155.74329276753107"/>
      <point x="466.309959890012" y="131.15748899916844"/>
      <point x="454.84971596174006" y="130.0" type="curve" smooth="yes"/>
      <point x="398.0169315355748" y="130.0" type="line" smooth="yes"/>
      <point x="365.9530757866944" y="132.82913520307673"/>
      <point x="346.42407506114745" y="120.38354623374913"/>
      <point x="336.76762809199585" y="69.56892551266297" type="curve" smooth="yes"/>
      <point x="327.2976160847997" y="18.810668345413234"/>
      <point x="337.58165113372866" y="9.753358375886222"/>
      <point x="372.6258463135559" y="14.0" type="curve" smooth="yes"/>
      <point x="713.5012407457479" y="14.0" type="line" smooth="yes"/>
      <point x="745.5650964946283" y="11.170864796923281"/>
      <point x="765.0940972201753" y="23.61645376625089"/>
      <point x="774.750544189327" y="74.43107448733701" type="curve" smooth="yes"/>
      <point x="784.220556196523" y="125.18933165458675"/>
      <point x="773.936521147594" y="134.24664162411378"/>
      <point x="738.8923259677669" y="130.0" type="curve" smooth="yes"/>
      <point x="685.0173816232608" y="130.0" type="line" smooth="yes"/>
      <point x="676.1983658370156" y="131.54078430122257"/>
      <point x="674.1841362881966" y="158.39122748229227"/>
      <point x="678.4885177008728" y="185.44396521956554" type="curve" smooth="yes"/>
      <point x="850.2287239270246" y="1159.4310744873371" type="line" smooth="yes"/>
      <point x="856.5886346344919" y="1203.931981260315"/>
      <point x="782.3816922910931" y="1210.0970393995337"/>
      <point x="722.9632276805576" y="1190.024512156181" type="curve" smooth="yes"/>
    </contour>
  </outline>
</glyph>
<glyph name="two" format="2">
  <advance width="1080"/>
  <unicode hex="0032"/>
  <outline>
    <contour>
      <point x="353.24352544559775" y="1083.146431169206" type="curve" smooth="yes"/>
      <point x="312.1717086507094" y="1062.357977657602"/>
      <point x="290.80298823455604" y="1043.0286344810233"/>
      <point x="312.85194371512193" y="1001.6730438151915" type="curve" smooth="yes"/>
      <point x="339.8783343713592" y="960.2887318444402"/>
      <point x="397.2908388589936" y="959.5574531555366"/>
      <point x="437.43603769742157" y="978.8218377655949" type="curve" smooth="yes"/>
      <point x="528.0357614774597" y="1038.6538508592002"/>
      <point x="626.6951767265972" y="1074.777958183602"/>
      <point x="711.0829265316813" y="1075.0" type="curve" smooth="yes"/>
      <point x="849.9747008595104" y="1074.112840048701"/>
      <point x="899.5824815135463" y="984.0043167086311"/>
      <point x="877.859874850254" y="856.568925512663" type="curve" smooth="yes"/>
      <point x="862.4509764643626" y="754.0758748010452"/>
      <point x="805.170807537156" y="676.8799449739302"/>
      <point x="668.195481597277" y="557.3878262984551" type="curve" smooth="yes"/>
      <point x="149.5439357738144" y="111.39232855422954" type="line" smooth="yes"/>
      <point x="133.3927646128712" y="102.8796233254576"/>
      <point x="121.62104650116511" y="90.06836891649334"/>
      <point x="116.38523310985822" y="65.56892551266297" type="curve" smooth="yes"/>
      <point x="107.27483545319448" y="19.23250055937727"/>
      <point x="140.50904038598878" y="13.406346346449318"/>
      <point x="193.0" y="14.0" type="curve" smooth="yes"/>
      <point x="887.0" y="14.0" type="line" smooth="yes"/>
      <point x="939.4854784214825" y="13.407233989093736"/>
      <point x="977.443703524685" y="25.490440456889026"/>
      <point x="988.300544189327" y="74.43107448733701" type="curve" smooth="yes"/>
      <point x="997.7942712715142" y="122.97136551897665"/>
      <point x="965.6784324387442" y="130.73022878929734"/>
      <point x="912.391085222019" y="130.0" type="curve" smooth="yes"/>
      <point x="447.27377565170644" y="130.0" type="line" smooth="yes"/>
      <point x="434.325979246686" y="131.7218388859878"/>
      <point x="441.1793685224197" y="166.34909813731915"/>
      <point x="455.9545469312449" y="188.8010829275243" type="curve" smooth="yes"/>
      <point x="803.0719800608134" y="487.60950099888186" type="line" smooth="yes"/>
      <point x="956.2538832958497" y="618.0780516086867"/>
      <point x="1055.3814799880233" y="720.0081548036317"/>
      <point x="1083.0698780068888" y="861.431074487337" type="curve" smooth="yes"/>
      <point x="1121.643474236752" y="1076.5758331266115"/>
      <point x="977.9444262319254" y="1195.819533808211"/>
      <point x="736.1793196765342" y="1195.0" type="curve" smooth="yes"/>
      <point x="612.865616243321" y="1195.1940313542484"/>
      <point x="469.81348993793597" y="1153.260970520565"/>
    </contour>
  </outline>
</glyph>
<glyph name="three" format="2">
  <advance width="1080"/>
  <unicode hex="0033"/>
  <outline>
    <contour>
      <point x="381.2015865048798" y="1100.6645887836735" type="curve" smooth="yes"/>
      <point x="339.0967129113767" y="1082.8331512491993"/>
      <point x="314.6837640504467" y="1063.189632719614"/>
      <point x="333.62011505533474" y="1018.8041801070253" type="curve" smooth="yes"/>
      <point x="357.0066112938519" y="976.7003191141945"/>
      <point x="412.5662409948467" y="976.6811254917194"/>
      <point x="452.6948869222318" y="993.2840204562398" type="curve" smooth="yes"/>
      <point x="548.7840350207015" y="1047.9141239341707"/>
      <point x="635.0541281579174" y="1074.8555410776669"/>
      <point x="718.3287248398806" y="1075.0" type="curve" smooth="yes"/>
      <point x="855.2337863701407" y="1074.304162846184"/>
      <point x="906.8766599140454" y="994.6332895992248"/>
      <point x="886.6322127726226" y="876.568925512663" type="curve" smooth="yes"/>
      <point x="868.3964922204223" y="749.8276735259803"/>
      <point x="793.2895172469796" y="677.4870382441845"/>
      <point x="647.0877419777486" y="677.0" type="curve" smooth="yes"/>
      <point x="592.0877419777486" y="677.0" type="line" smooth="yes"/>
      <point x="540.2634257668816" y="677.490851947979"/>
      <point x="502.1247320255598" y="667.3505769848824"/>
      <point x="491.49250571125555" y="620.568925512663" type="curve" smooth="yes"/>
      <point x="482.38210805459175" y="574.2325005593773"/>
      <point x="515.6163129873861" y="568.4063463464494"/>
      <point x="568.1072726013973" y="569.0" type="curve" smooth="yes"/>
      <point x="641.1072726013973" y="569.0" type="line" smooth="yes"/>
      <point x="788.6884161340954" y="568.4179663771816"/>
      <point x="854.5563022815805" y="487.78501530175305"/>
      <point x="829.4736050743022" y="342.568925512663" type="curve" smooth="yes"/>
      <point x="809.2501255423787" y="206.03430177377598"/>
      <point x="721.5246719730114" y="112.66850370177087"/>
      <point x="560.4629978774658" y="112.0" type="curve" smooth="yes"/>
      <point x="459.66695234712796" y="112.28329226020422"/>
      <point x="368.4346989887571" y="156.05677602840223"/>
      <point x="298.2206043353527" y="221.438473439282" type="curve" smooth="yes"/>
      <point x="263.1202513437866" y="240.53018510569763"/>
      <point x="206.1217476215018" y="237.57604556867045"/>
      <point x="163.69688628868408" y="194.28173418713703" type="curve" smooth="yes"/>
      <point x="124.01197036891259" y="151.50955954311098"/>
      <point x="129.31755069511172" y="134.17869197116397"/>
      <point x="162.91779385786973" y="114.74556760091542" type="curve" smooth="yes"/>
      <point x="257.3397074122713" y="40.172697194031485"/>
      <point x="396.5316186947129" y="-8.244200235405339"/>
      <point x="534.366604732613" y="-8.0" type="curve" smooth="yes"/>
      <point x="804.817199434602" y="-8.760113827615038"/>
      <point x="993.3103987103467" y="135.0203979203501"/>
      <point x="1034.6836082309371" y="347.431074487337" type="curve" smooth="yes"/>
      <point x="1059.379363380808" y="482.2297374741917"/>
      <point x="997.515002063528" y="572.2436908282139"/>
      <point x="917.7618423018524" y="601.3666522346751" type="curve" smooth="yes"/>
      <point x="908.8093546114917" y="615.299494728664"/>
      <point x="908.9801411297303" y="649.7699642657122"/>
      <point x="923.2414362734389" y="663.8153078972167" type="curve" smooth="yes"/>
      <point x="987.4282364513031" y="689.8388214804794"/>
      <point x="1068.727433220819" y="766.0204765049965"/>
      <point x="1091.8422159292572" y="881.431074487337" type="curve" smooth="yes"/>
      <point x="1126.7275543387277" y="1076.2474680236842"/>
      <point x="983.2335544707817" y="1195.8279116851836"/>
      <point x="743.4251179847334" y="1195.0" type="curve" smooth="yes"/>
      <point x="625.7608914350196" y="1195.1397296862374"/>
      <point x="501.80698942058575" y="1163.032431083177"/>
    </contour>
  </outline>
</glyph>
<glyph name="four" format="2">
  <advance width="1080"/>
  <unicode hex="0034"/>
  <outline>
    <contour>
      <point x="759.565750389625" y="1138.962908539737" type="curve" smooth="yes"/>
      <point x="148.09114913421138" y="415.95666496061574" type="line" smooth="yes"/>
      <point x="136.92910120690502" y="407.7539605519538"/>
      <point x="126.12956753034214" y="392.9214786132258"/>
      <point x="121.69394316806542" y="373.568925512663" type="curve" smooth="yes"/>
      <point x="112.59657129971313" y="327.3094406160067"/>
      <point x="144.70009013298818" y="315.0212529092581"/>
      <point x="199.25074817395642" y="316.0" type="curve" smooth="yes"/>
      <point x="629.2507481739565" y="316.0" type="line" smooth="yes"/>
      <point x="642.8329318721206" y="314.4592156987774"/>
      <point x="648.3263079508248" y="283.38483116185506"/>
      <point x="643.1820515216326" y="251.56892551266296" type="curve" smooth="yes"/>
      <point x="608.0929823606481" y="52.56892551266298" type="line" smooth="yes"/>
      <point x="599.7175071854643" y="10.401273050558181"/>
      <point x="633.4844108427092" y="3.5196335395191802"/>
      <point x="696.2367301929154" y="4.0" type="curve" smooth="yes"/>
      <point x="698.2367301929154" y="4.0" type="line" smooth="yes"/>
      <point x="760.4388973327357" y="3.5958406047512987"/>
      <point x="799.2680137594765" y="14.779548258186928"/>
      <point x="809.302985517283" y="57.43107448733702" type="curve" smooth="yes"/>
      <point x="844.3920546782675" y="256.431074487337" type="line" smooth="yes"/>
      <point x="845.1089213815422" y="287.0394514492362"/>
      <point x="860.1625349582093" y="314.84251100083156"/>
      <point x="875.2507481739565" y="316.0" type="curve" smooth="yes"/>
      <point x="989.2507481739565" y="316.0" type="line" smooth="yes"/>
      <point x="1041.7362265954391" y="315.40723398909375"/>
      <point x="1079.6944516986414" y="327.490440456889"/>
      <point x="1090.5512923632832" y="376.431074487337" type="curve" smooth="yes"/>
      <point x="1100.0450194454704" y="424.97136551897665"/>
      <point x="1067.9291806127007" y="432.7302287892973"/>
      <point x="1014.6418333959754" y="432.0" type="curve" smooth="yes"/>
      <point x="900.6418333959754" y="432.0" type="line" smooth="yes"/>
      <point x="887.0596496978112" y="433.5407843012226"/>
      <point x="881.566273619107" y="464.6151688381449"/>
      <point x="886.7105300482991" y="496.431074487337" type="curve" smooth="yes"/>
      <point x="999.0308167595914" y="1133.4310744873371" type="line" smooth="yes"/>
      <point x="1007.4470613440883" y="1176.0020595579897"/>
      <point x="971.4194434255702" y="1195.913943112456"/>
      <point x="900.1793196765342" y="1195.0" type="curve" smooth="yes"/>
      <point x="842.3239843466431" y="1195.359641036029"/>
      <point x="796.3977205747024" y="1178.527470936733"/>
    </contour>
    <contour>
      <point x="686.4752561960353" y="491.3744318488972" type="line" smooth="yes"/>
      <point x="685.4744909980274" y="460.84096565058184"/>
      <point x="670.0122031637562" y="433.1448210996736"/>
      <point x="654.8696165991004" y="432.0" type="curve" smooth="yes"/>
      <point x="404.64183339597537" y="432.0" type="line" smooth="yes"/>
      <point x="392.32099909258676" y="433.912917776183"/>
      <point x="397.38799402935564" y="468.5099057565575"/>
      <point x="409.9151310719167" y="495.1828979887468" type="curve" smooth="yes"/>
      <point x="793.7608058073816" y="960.6316936886354" type="line" smooth="yes"/>
      <point x="804.8895813419417" y="985.0077476532289"/>
      <point x="777.2379200877737" y="972.4818735555384"/>
      <point x="772.2299238706943" y="941.3841566285477" type="curve" smooth="yes"/>
    </contour>
  </outline>
</glyph>
<glyph name="five" format="2">
  <advance width="1080"/>
  <unicode hex="0035"/>
  <outline>
    <contour>
      <point x="502.3345389074505" y="1173.0" type="line" smooth="yes"/>
      <point x="440.05584700887687" y="1173.4143472444837"/>
      <point x="402.44135059563746" y="1162.0591243875413"/>
      <point x="390.4626382470944" y="1119.036062763256" type="curve" smooth="yes"/>
      <point x="282.2991478928619" y="619.036062763256" type="line" smooth="yes"/>
      <point x="271.771878872107" y="577.6129180955431"/>
      <point x="308.7537626592761" y="570.5561673604003"/>
      <point x="371.2485410611176" y="571.0" type="curve" smooth="yes"/>
      <point x="396.21611851202255" y="570.9598543823809"/>
      <point x="419.3155426816858" y="573.2236134365203"/>
      <point x="436.56045651931504" y="578.9489238083421" type="curve" smooth="yes"/>
      <point x="507.4110801299257" y="624.5654816949148"/>
      <point x="571.5404856570204" y="651.8325333917131"/>
      <point x="662.5310264985033" y="652.0" type="curve" smooth="yes"/>
      <point x="802.7276360748946" y="650.7342084623318"/>
      <point x="864.7011495421118" y="536.7542986587873"/>
      <point x="838.4916257816526" y="383.568925512663" type="curve" smooth="yes"/>
      <point x="813.950826682978" y="223.115160967169"/>
      <point x="708.3204693566879" y="112.8518906945048"/>
      <point x="552.2516123757691" y="112.0" type="curve" smooth="yes"/>
      <point x="454.32752169887897" y="112.26938761506631"/>
      <point x="364.40883252723205" y="153.9081931394873"/>
      <point x="294.51501803749085" y="215.23858561507896" type="curve" smooth="yes"/>
      <point x="259.8509039578391" y="234.53018510569763"/>
      <point x="202.85240023555434" y="231.57604556867045"/>
      <point x="160.4275389027366" y="188.28173418713703" type="curve" smooth="yes"/>
      <point x="120.49535543951161" y="145.83300622303332"/>
      <point x="128.09587684624373" y="127.37689163231771"/>
      <point x="161.85419711218557" y="107.9140924748624" type="curve" smooth="yes"/>
      <point x="255.98585029814785" y="37.28860429205825"/>
      <point x="391.49044469177954" y="-8.227169777207376"/>
      <point x="526.1552192309164" y="-8.0" type="curve" smooth="yes"/>
      <point x="793.5196666309238" y="-8.939592075806184"/>
      <point x="999.3913943287195" y="158.96385718174014"/>
      <point x="1043.7016289382875" y="388.431074487337" type="curve" smooth="yes"/>
      <point x="1084.7643315107398" y="616.5042075421704"/>
      <point x="956.6301101022663" y="773.3153637797893"/>
      <point x="701.627419643356" y="772.0" type="curve" smooth="yes"/>
      <point x="619.2901380562438" y="772.1158075860701"/>
      <point x="538.4807589122893" y="752.7918390646798"/>
      <point x="494.4546852432418" y="732.6571088673471" type="curve" smooth="yes"/>
      <point x="490.0129814194319" y="723.1104685630982"/>
      <point x="504.77009854021713" y="740.4125360977179"/>
      <point x="508.8442471398475" y="763.7820621981712" type="curve" smooth="yes"/>
      <point x="559.6299475165066" y="998.0059367822953" type="line" smooth="yes"/>
      <point x="561.1598863493633" y="1028.3876149178398"/>
      <point x="577.3737616704302" y="1055.8789892462655"/>
      <point x="592.6194790760566" y="1057.0" type="curve" smooth="yes"/>
      <point x="1010.9434536854316" y="1057.0" type="line" smooth="yes"/>
      <point x="1063.428932106914" y="1056.4072339890938"/>
      <point x="1101.3871572101166" y="1068.490440456889"/>
      <point x="1112.2439978747584" y="1117.4310744873371" type="curve" smooth="yes"/>
      <point x="1121.7377249569456" y="1165.9713655189767"/>
      <point x="1089.6218861241755" y="1173.7302287892974"/>
      <point x="1036.3345389074505" y="1173.0" type="curve" smooth="yes"/>
    </contour>
  </outline>
</glyph>
<glyph name="six" format="2">
  <advance width="1080"/>
  <unicode hex="0036"/>
  <outline>
    <contour>
      <point x="189.17441254441667" y="509.568925512663" type="curve" smooth="yes"/>
      <point x="163.45838900731536" y="366.97293248175396"/>
      <point x="170.74130640303457" y="261.9220291465141"/>
      <point x="206.9227930757607" y="178.2776958980896" type="curve" smooth="yes"/>
      <point x="264.51463042778255" y="52.218796392320066"/>
      <point x="395.3043341309988" y="-8.419425918976222"/>
      <point x="543.6208064244138" y="-8.0" type="curve" smooth="yes"/>
      <point x="799.4816320704855" y="-8.838103526285845"/>
      <point x="1001.7195579170058" y="143.25271795744257"/>
      <point x="1043.3484257684056" y="355.431074487337" type="curve" smooth="yes"/>
      <point x="1083.1082517198897" y="577.4748296147882"/>
      <point x="929.4056615562295" y="718.0793114457587"/>
      <point x="698.3950228978879" y="717.0" type="curve" smooth="yes"/>
      <point x="578.8445800388754" y="717.3227315481496"/>
      <point x="455.74827831449636" y="669.1450362952921"/>
      <point x="400.1864515293943" y="617.6262514300192" type="curve" smooth="yes"/>
      <point x="387.688536899533" y="594.6763773410818"/>
      <point x="416.19280312241176" y="610.3575295351687"/>
      <point x="422.8884822139592" y="640.7142978602541" type="curve" smooth="yes"/>
      <point x="488.7683708686" y="868.911197477898"/>
      <point x="684.9299656351122" y="1056.2268102806102"/>
      <point x="1048.0689762420338" y="1075.9822259726097" type="curve" smooth="yes"/>
      <point x="1083.9905084024363" y="1075.6714607063366"/>
      <point x="1116.3455904300613" y="1087.0586180715989"/>
      <point x="1122.7639419071224" y="1143.2356662322338" type="curve" smooth="yes"/>
      <point x="1126.8714317525023" y="1193.7915950219317"/>
      <point x="1086.936673431734" y="1196.3883024212078"/>
      <point x="1050.5143794104972" y="1195.0140597237032" type="curve" smooth="yes"/>
      <point x="512.1832551648345" y="1172.382093736684"/>
      <point x="247.92380677474566" y="828.1635571003711"/>
    </contour>
    <contour>
      <point x="838.1384226117707" y="350.568925512663" type="curve" smooth="yes"/>
      <point x="817.5016382089013" y="208.61201662068297"/>
      <point x="714.4916976792214" y="112.71907654210018"/>
      <point x="569.7171995692665" y="112.0" type="curve" smooth="yes"/>
      <point x="425.93988385350315" y="113.12753970008539"/>
      <point x="358.82600536857143" y="223.77277336013566"/>
      <point x="383.9933304790325" y="370.431074487337" type="curve" smooth="yes"/>
      <point x="402.38836467149815" y="502.7874041847386"/>
      <point x="510.36862217695597" y="596.3085561950845"/>
      <point x="650.2986297530351" y="597.0" type="curve" smooth="yes"/>
      <point x="798.0114979360463" y="596.0764049553646"/>
      <point x="863.002147143723" y="495.33675746102404"/>
    </contour>
  </outline>
</glyph>
<glyph name="seven" format="2">
  <advance width="1080"/>
  <unicode hex="0037"/>
  <outline>
    <contour>
      <point x="437.0403275472964" y="1173.0" type="line" smooth="yes"/>
      <point x="390.0819170973201" y="1173.7828656956708"/>
      <point x="355.5471395899037" y="1161.9179022485223"/>
      <point x="344.9995819116211" y="1112.5689255126629" type="curve" smooth="yes"/>
      <point x="335.45328998166866" y="1063.5166368782127"/>
      <point x="363.6426779654416" y="1056.0062931089467"/>
      <point x="411.64924232527744" y="1057.0" type="curve" smooth="yes"/>
      <point x="888.6863169982829" y="1057.0" type="line" smooth="yes"/>
      <point x="901.0669353303985" y="1055.105838723372"/>
      <point x="899.1056145880491" y="1021.1958947329524"/>
      <point x="889.1950999164452" y="991.285803146529" type="curve" smooth="yes"/>
      <point x="371.76520542741184" y="49.27590301646758" type="line" smooth="yes"/>
      <point x="347.7670190487387" y="13.939451045901981"/>
      <point x="375.01720585911744" y="-0.3385850308997753"/>
      <point x="420.94095439790226" y="-6.309667691777884" type="curve" smooth="yes"/>
      <point x="466.72215173946745" y="-14.065636587361151"/>
      <point x="516.5310760791508" y="-2.958399912095757"/>
      <point x="540.5869197972906" y="30.67601876235876" type="curve" smooth="yes"/>
      <point x="1113.6887266371327" y="1085.6794451269975" type="line" smooth="yes"/>
      <point x="1118.9582989123733" y="1092.1866166416462"/>
      <point x="1125.1982762566283" y="1105.475820290975"/>
      <point x="1128.6148929910896" y="1121.4310744873371" type="curve" smooth="yes"/>
      <point x="1137.7944812719938" y="1168.3082354380751"/>
      <point x="1108.365006524604" y="1173.8107131131824"/>
      <point x="1061.2599246545994" y="1173.0" type="curve" smooth="yes"/>
    </contour>
  </outline>
</glyph>
<glyph name="eight" format="2">
  <advance width="1080"/>
  <unicode hex="0038"/>
  <outline>
    <contour>
      <point x="302.38641446442335" y="876.568925512663" type="curve" smooth="yes"/>
      <point x="282.45755501678855" y="768.419101948271"/>
      <point x="343.59026539237067" y="689.3736164797891"/>
      <point x="398.4517240926238" y="663.036964680603" type="curve" smooth="yes"/>
      <point x="407.23010856417585" y="646.1493401904535"/>
      <point x="407.8148389181393" y="611.7110395342621"/>
      <point x="393.4059213704753" y="598.7908744172905" type="curve" smooth="yes"/>
      <point x="305.28303576659476" y="565.7429131118944"/>
      <point x="196.92587586942037" y="469.47739494177114"/>
      <point x="170.3461718625607" y="337.568925512663" type="curve" smooth="yes"/>
      <point x="134.14972389329975" y="134.94004789512218"/>
      <point x="292.3440635056113" y="-9.027487047976031"/>
      <point x="536.1208064244138" y="-8.0" type="curve" smooth="yes"/>
      <point x="778.8191136533267" y="-8.806709362427451"/>
      <point x="988.9387941437886" y="138.59624319983632"/>
      <point x="1029.5561750191955" y="342.431074487337" type="curve" smooth="yes"/>
      <point x="1053.5472740637474" y="473.6016125285552"/>
      <point x="981.07371246138" y="567.0727276840472"/>
      <point x="902.734827744607" y="599.2470840521736" type="curve" smooth="yes"/>
      <point x="893.7732650821808" y="614.1547900549058"/>
      <point x="893.9465780271919" y="648.9676428326236"/>
      <point x="908.3095864073589" y="663.566495500497" type="curve" smooth="yes"/>
      <point x="972.0437350024281" y="690.9753149291942"/>
      <point x="1065.009762385859" y="772.5860957833121"/>
      <point x="1087.596417621058" y="881.431074487337" type="curve" smooth="yes"/>
      <point x="1119.5604539807366" y="1060.0589166386062"/>
      <point x="975.3425137912737" y="1196.1138887702011"/>
      <point x="753.1793196765342" y="1195.0" type="curve" smooth="yes"/>
      <point x="532.1707487521762" y="1195.867215051491"/>
      <point x="338.77278106547726" y="1056.4030622300008"/>
    </contour>
    <contour>
      <point x="824.5224988432691" y="338.568925512663" type="curve" smooth="yes"/>
      <point x="806.164547985728" y="207.32579461508345"/>
      <point x="700.9589065309266" y="112.7249780288457"/>
      <point x="562.2171995692665" y="112.0" type="curve" smooth="yes"/>
      <point x="424.44954170095525" y="112.91235076111633"/>
      <point x="352.7949202592014" y="210.94342513982502"/>
      <point x="375.73250199990395" y="343.431074487337" type="curve" smooth="yes"/>
      <point x="394.04559150278396" y="474.7109367007809"/>
      <point x="498.78572802771896" y="567.303167085595"/>
      <point x="637.6851473124896" y="568.0" type="curve" smooth="yes"/>
      <point x="775.6468388233632" y="567.1268594068897"/>
      <point x="847.4912957800909" y="471.1116853666546"/>
    </contour>
    <contour>
      <point x="883.8574335222978" y="873.568925512663" type="curve" smooth="yes"/>
      <point x="869.7912621181807" y="765.1351121880786"/>
      <point x="776.6233525086607" y="679.7826199017944"/>
      <point x="662.1945976309662" y="679.0" type="curve" smooth="yes"/>
      <point x="548.813683756335" y="679.9933594740097"/>
      <point x="486.01741201058564" y="768.6558826559178"/>
      <point x="505.0674366789327" y="878.431074487337" type="curve" smooth="yes"/>
      <point x="521.1275233709993" y="997.8216425570224"/>
      <point x="611.8281618446717" y="1074.3643868288038"/>
      <point x="727.0829265316813" y="1075.0" type="curve" smooth="yes"/>
      <point x="841.4795971922092" y="1074.211334896999"/>
      <point x="904.8076654336754" y="994.278591558369"/>
    </contour>
  </outline>
</glyph>
<glyph name="nine" format="2">
  <advance width="1080"/>
  <unicode hex="0039"/>
  <outline>
    <contour>
      <point x="245.95170033254243" y="831.568925512663" type="curve" smooth="yes"/>
      <point x="206.19187438105828" y="609.5251703852118"/>
      <point x="359.8944645447185" y="468.92068855424134"/>
      <point x="590.90510320306" y="470.0" type="curve" smooth="yes"/>
      <point x="710.4555460620725" y="469.6772684518504"/>
      <point x="833.5518477864515" y="517.8549637047079"/>
      <point x="889.1136745715536" y="569.3737485699808" type="curve" smooth="yes"/>
      <point x="901.6115892014149" y="592.3236226589182"/>
      <point x="873.1073229785361" y="576.6424704648313"/>
      <point x="866.4116438869887" y="546.2857021397459" type="curve" smooth="yes"/>
      <point x="800.5317552323479" y="318.088802522102"/>
      <point x="604.3701604658357" y="130.7731897193899"/>
      <point x="241.23114985891405" y="111.01777402739036" type="curve" smooth="yes"/>
      <point x="205.3096176985116" y="111.32853929366333"/>
      <point x="172.95453567088657" y="99.9413819284011"/>
      <point x="166.53618419382548" y="43.76433376776608" type="curve" smooth="yes"/>
      <point x="162.4286943484456" y="-6.79159502193167"/>
      <point x="202.36345266921393" y="-9.388302421207811"/>
      <point x="238.78574669045062" y="-8.01405972370322" type="curve" smooth="yes"/>
      <point x="777.1168709361134" y="14.617906263315977"/>
      <point x="1041.3763193262023" y="358.8364428996288"/>
      <point x="1100.1257135565313" y="677.431074487337" type="curve" smooth="yes"/>
      <point x="1125.8417370936324" y="820.027067518246"/>
      <point x="1118.5588196979133" y="925.0779708534859"/>
      <point x="1082.3773330251872" y="1008.7223041019104" type="curve" smooth="yes"/>
      <point x="1024.7854956731653" y="1134.78120360768"/>
      <point x="893.9957919699491" y="1195.4194259189762"/>
      <point x="745.6793196765342" y="1195.0" type="curve" smooth="yes"/>
      <point x="489.8184940304625" y="1195.8381035262857"/>
      <point x="287.58056818394215" y="1043.7472820425573"/>
    </contour>
    <contour>
      <point x="905.3067956219154" y="816.568925512663" type="curve" smooth="yes"/>
      <point x="886.9117614294498" y="684.2125958152615"/>
      <point x="778.931503923992" y="590.6914438049155"/>
      <point x="639.0014963479128" y="590.0" type="curve" smooth="yes"/>
      <point x="491.2886281649017" y="590.9235950446354"/>
      <point x="426.2979789572249" y="691.663242538976"/>
      <point x="451.1617034891772" y="836.431074487337" type="curve" smooth="yes"/>
      <point x="471.79848789204647" y="978.387983379317"/>
      <point x="574.8084284217265" y="1074.2809234579"/>
      <point x="719.5829265316813" y="1075.0" type="curve" smooth="yes"/>
      <point x="863.3602422474447" y="1073.8724602999146"/>
      <point x="930.4741207323765" y="963.2272266398644"/>
    </contour>
  </outline>
</glyph>
<glyph name="less" format="2">
  <advance width="1172"/>
  <unicode hex="003C"/>
  <outline>
    <contour>
      <point x="491.48502199780984" y="549.854439914519" type="line" smooth="yes"/>
      <point x="480.95337204687723" y="566.2626274458718"/>
      <point x="480.9133181384375" y="602.2760243874199"/>
      <point x="497.25090469932866" y="616.5474972057661" type="curve" smooth="yes"/>
      <point x="1179.0805362904587" y="917.8064786354183" type="line" smooth="yes"/>
      <point x="1230.4435650075256" y="935.8892872588528"/>
      <point x="1255.2158230916389" y="954.0419108754512"/>
      <point x="1239.0634975911794" y="995.6887844812854" type="curve" smooth="yes"/>
      <point x="1221.355543354072" y="1035.948611025279"/>
      <point x="1171.366339469967" y="1044.0496432584032"/>
      <point x="1118.3339395885228" y="1025.2389184820024" type="curve" smooth="yes"/>
      <point x="274.1448675905095" y="644.2409827958815" type="line" smooth="yes"/>
      <point x="235.98585627369357" y="629.2165993818103"/>
      <point x="208.00932678916925" y="617.4160522974668"/>
      <point x="199.19362817471767" y="580.568925512663" type="curve" smooth="yes"/>
      <point x="191.83314517391037" y="544.1482304314097"/>
      <point x="212.97610333322473" y="535.7771343315138"/>
      <point x="246.4459989814559" y="521.3330133887835" type="curve" smooth="yes"/>
      <point x="956.2762700435582" y="140.33615037994034" type="line" smooth="yes"/>
      <point x="1003.7890644769842" y="121.9472801984279"/>
      <point x="1055.3925224965476" y="132.16370994666062"/>
      <point x="1088.807082809165" y="173.84318857067208" type="curve" smooth="yes"/>
      <point x="1122.924235525612" y="216.62090654393208"/>
      <point x="1112.9659865972526" y="231.72230637914979"/>
      <point x="1067.0738771838203" y="248.59507557577626" type="curve" smooth="yes"/>
    </contour>
  </outline>
</glyph>
<glyph name="greater" format="2">
  <advance width="1172"/>
  <unicode hex="003E"/>
  <outline>
    <contour>
      <point x="886.177624137321" y="616.145560085481" type="line" smooth="yes"/>
      <point x="896.7092740882539" y="599.7373725541282"/>
      <point x="896.7493279966936" y="563.7239756125801"/>
      <point x="880.4117414358022" y="549.4525027942339" type="curve" smooth="yes"/>
      <point x="198.58210984467235" y="248.19352136458164" type="line" smooth="yes"/>
      <point x="147.21908112760534" y="230.11071274114715"/>
      <point x="122.4468230434922" y="211.9580891245488"/>
      <point x="138.5991485439516" y="170.31121551871456" type="curve" smooth="yes"/>
      <point x="156.3071027810589" y="130.05138897472096"/>
      <point x="206.29630666516402" y="121.9503567415969"/>
      <point x="259.3287065466084" y="140.76108151799758" type="curve" smooth="yes"/>
      <point x="1103.5177785446217" y="521.7590172041185" type="line" smooth="yes"/>
      <point x="1141.6767898614373" y="536.7834006181897"/>
      <point x="1169.6533193459618" y="548.5839477025332"/>
      <point x="1178.4690179604133" y="585.431074487337" type="curve" smooth="yes"/>
      <point x="1185.8295009612204" y="621.8517695685903"/>
      <point x="1164.6865428019064" y="630.2228656684862"/>
      <point x="1131.216647153675" y="644.6669866112165" type="curve" smooth="yes"/>
      <point x="421.38637609157286" y="1025.6638496200596" type="line" smooth="yes"/>
      <point x="373.87358165814675" y="1044.052719801572"/>
      <point x="322.27012363858347" y="1033.8362900533393"/>
      <point x="288.85556332596605" y="992.156811429328" type="curve" smooth="yes"/>
      <point x="254.73841060951898" y="949.3790934560678"/>
      <point x="264.69665953787836" y="934.2776936208502"/>
      <point x="310.58876895131067" y="917.4049244242237" type="curve" smooth="yes"/>
    </contour>
  </outline>
</glyph>
<glyph name="question" format="2">
  <advance width="888"/>
  <unicode hex="003F"/>
  <outline>
    <contour>
      <point x="328.6581387749736" y="1178.4463981407994" type="curve" smooth="yes"/>
      <point x="283.32063997229824" y="1160.101674571344"/>
      <point x="255.89970079616967" y="1143.4568315384718"/>
      <point x="271.441816135508" y="1094.6655909777526" type="curve" smooth="yes"/>
      <point x="290.4823697298949" y="1048.0206293530116"/>
      <point x="347.1538040247901" y="1051.6266590334524"/>
      <point x="385.2925313468717" y="1066.613341804609" type="curve" smooth="yes"/>
      <point x="474.75930508578244" y="1111.1364302607144"/>
      <point x="559.1011273091315" y="1134.888387616919"/>
      <point x="646.8246044229079" y="1135.0" type="curve" smooth="yes"/>
      <point x="762.6810924978173" y="1134.1057179115448"/>
      <point x="802.5283478401384" y="1056.213007529173"/>
      <point x="785.1256510276937" y="953.568925512663" type="curve" smooth="yes"/>
      <point x="770.9641535341649" y="848.6544914463202"/>
      <point x="707.2013021526885" y="793.3349670657512"/>
      <point x="546.1146018539042" y="730.9128393992694" type="curve" smooth="yes"/>
      <point x="472.27138918861317" y="702.8937311851452" type="line" smooth="yes"/>
      <point x="441.8290714297683" y="695.5633621809159"/>
      <point x="421.41043825287" y="686.4578419503388"/>
      <point x="416.6447782580939" y="663.1610410135551" type="curve" smooth="yes"/>
      <point x="386.9610818057593" y="438.2026693688512" type="line" smooth="yes"/>
      <point x="384.7631506667648" y="413.6611674154846"/>
      <point x="422.93956092000957" y="402.3528277273232"/>
      <point x="472.7532545443115" y="403.0" type="curve" smooth="yes"/>
      <point x="521.8466603152063" y="402.4688982373182"/>
      <point x="564.5223957387711" y="417.0724683784828"/>
      <point x="576.0506699258499" y="443.2159349149936" type="curve" smooth="yes"/>
      <point x="604.957949804606" y="566.2821198531738" type="line" smooth="yes"/>
      <point x="607.942485735059" y="595.6471818716096"/>
      <point x="629.1250766477988" y="630.6221403380589"/>
      <point x="647.7849077673991" y="642.2091229187446" type="curve" smooth="yes"/>
      <point x="823.5433293636287" y="707.4657742190722"/>
      <point x="956.1264510183423" y="787.0808079751218"/>
      <point x="990.3356541843286" y="958.431074487337" type="curve" smooth="yes"/>
      <point x="1022.6750143061239" y="1137.8280275719687"/>
      <point x="901.4377771564252" y="1255.9715571945992"/>
      <point x="671.9209975677608" y="1255.0" type="curve" smooth="yes"/>
      <point x="554.0422984063454" y="1255.086075795101"/>
      <point x="438.70924051938414" y="1230.8269708486744"/>
    </contour>
    <contour>
      <point x="293.00366324871493" y="164.568925512663" type="curve" smooth="yes"/>
      <point x="272.90238744794993" y="50.56892551266298" type="line" smooth="yes"/>
      <point x="266.13584278886583" y="12.78113934806148"/>
      <point x="317.26690544648653" y="3.8220836248713894"/>
      <point x="402.398789241634" y="4.0" type="curve" smooth="yes"/>
      <point x="487.3138987399513" y="3.8403671589960773"/>
      <point x="541.7124958000569" y="16.150322399595836"/>
      <point x="554.1123906045848" y="55.43107448733702" type="curve" smooth="yes"/>
      <point x="574.2136664053497" y="169.43107448733704" type="line" smooth="yes"/>
      <point x="580.9802110644339" y="207.21886065193854"/>
      <point x="529.8491484068131" y="216.1779163751286"/>
      <point x="444.7172646116656" y="216.0" type="curve" smooth="yes"/>
      <point x="359.8021551133483" y="216.1596328410039"/>
      <point x="305.4035580532428" y="203.84967760040416"/>
    </contour>
  </outline>
</glyph>
<glyph name="at" format="2">
  <advance width="1304"/>
  <unicode hex="0040"/>
  <outline>
    <contour>
      <point x="134.98619391727547" y="386.568925512663" type="curve" smooth="yes"/>
      <point x="75.92364421034173" y="56.45232099277414"/>
      <point x="246.64410059755082" y="-140.16359432006988"/>
      <point x="577.0219719516049" y="-139.0" type="curve" smooth="yes"/>
      <point x="689.4958712616171" y="-139.06351871598017"/>
      <point x="803.7543536793628" y="-118.52139325303786"/>
      <point x="882.0117371470046" y="-88.03713112006491" type="curve" smooth="yes"/>
      <point x="911.334531200422" y="-81.20551065367872"/>
      <point x="933.0511721248537" y="-70.05059964432365"/>
      <point x="928.4378102634794" y="-37.79427982341096" type="curve" smooth="yes"/>
      <point x="922.1097368641534" y="-5.24055014768777"/>
      <point x="886.9760810409182" y="0.2119942611190364"/>
      <point x="850.8792763146201" y="-6.428153267319068" type="curve" smooth="yes"/>
      <point x="781.8595548454327" y="-27.662817437520886"/>
      <point x="690.5377629250027" y="-43.95104444487224"/>
      <point x="596.710190578746" y="-44.0" type="curve" smooth="yes"/>
      <point x="358.4775595212561" y="-42.74305113732141"/>
      <point x="264.1523021110843" y="130.88225217175386"/>
      <point x="309.19619707391024" y="391.431074487337" type="curve" smooth="yes"/>
      <point x="363.0838673228224" y="716.637935072575"/>
      <point x="599.3838482111439" y="967.6874283220919"/>
      <point x="865.392266576584" y="969.0" type="curve" smooth="yes"/>
      <point x="1097.7967010063667" y="967.7847369988925"/>
      <point x="1205.0613331686682" y="794.4775406090951"/>
      <point x="1159.0246251778776" y="528.568925512663" type="curve" smooth="yes"/>
      <point x="1132.4549710570845" y="366.79820471606934"/>
      <point x="1063.918382708316" y="251.0206348091657"/>
      <point x="976.3739959263263" y="249.0" type="curve" smooth="yes"/>
      <point x="931.0660589946125" y="251.44948812397942"/>
      <point x="921.8880295266771" y="319.66240613769577"/>
      <point x="957.1086446504609" y="409.54645761791005" type="curve" smooth="yes"/>
      <point x="1087.3637009024374" y="711.5410783176529" type="line" smooth="yes"/>
      <point x="1097.356915114652" y="722.8738779320855"/>
      <point x="1069.3273860145125" y="731.3135291250966"/>
      <point x="1042.2863119671224" y="739.0082891634202" type="curve" smooth="yes"/>
      <point x="1015.2607416422516" y="747.2693876150663"/>
      <point x="973.8027215084528" y="748.7802138640936"/>
      <point x="951.2974841692096" y="740.2034233561524" type="curve" smooth="yes"/>
      <point x="925.3079829682135" y="701.3680167259492" type="line" smooth="yes"/>
      <point x="924.0901877594441" y="684.6499031901197"/>
      <point x="946.092750572248" y="686.6434088791195"/>
      <point x="949.8924233454447" y="706.4177441419656" type="curve" smooth="yes"/>
      <point x="939.1133281452555" y="737.3965199992964"/>
      <point x="894.649189683845" y="772.1298033861275"/>
      <point x="820.416679856145" y="771.0" type="curve" smooth="yes"/>
      <point x="625.6516163886608" y="773.4765091634222"/>
      <point x="436.22290547852646" y="529.7749452356317"/>
      <point x="402.3437305346046" y="354.568925512663" type="curve" smooth="yes"/>
      <point x="377.1031617743148" y="216.35089318342696"/>
      <point x="454.5066684255868" y="144.48374707173454"/>
      <point x="564.2751614535174" y="146.0" type="curve" smooth="yes"/>
      <point x="662.8373213048085" y="145.21908731046483"/>
      <point x="739.4845455442683" y="197.3484247926543"/>
      <point x="787.5356049195858" y="245.86915079470646" type="curve" smooth="yes"/>
      <point x="793.6918539974936" y="264.920420439942"/>
      <point x="781.178748263626" y="259.0211404653682"/>
      <point x="778.17195050991" y="233.369337632563" type="curve" smooth="yes"/>
      <point x="791.6687828475974" y="189.9332534644733"/>
      <point x="860.3056046491652" y="150.34644882172995"/>
      <point x="955.1567963570596" y="151.0" type="curve" smooth="yes"/>
      <point x="1135.0518205939234" y="149.4489279788021"/>
      <point x="1287.7854321080465" y="301.8834670077194"/>
      <point x="1331.2346283345123" y="533.431074487337" type="curve" smooth="yes"/>
      <point x="1387.7768793293098" y="849.3959954893393"/>
      <point x="1213.3447760412366" y="1065.3821128550467"/>
      <point x="892.0804852037252" y="1064.0" type="curve" smooth="yes"/>
      <point x="530.4427676606657" y="1065.2254160182538"/>
      <point x="206.95126316013184" y="774.2321264546714"/>
    </contour>
    <contour>
      <point x="827.3144345991313" y="558.568925512663" type="curve" smooth="yes"/>
      <point x="806.2399617085376" y="424.10259436674255"/>
      <point x="700.2228240262051" y="254.8324997273641"/>
      <point x="612.9029768684517" y="252.0" type="curve" smooth="yes"/>
      <point x="585.7401133805315" y="253.2741080365835"/>
      <point x="577.6401556132329" y="292.26695683340483"/>
      <point x="588.9063876526563" y="361.431074487337" type="curve" smooth="yes"/>
      <point x="612.5707693997044" y="514.5319064888496"/>
      <point x="736.4033221573095" y="669.28780823674"/>
      <point x="794.02315330617" y="672.0" type="curve" smooth="yes"/>
      <point x="829.3727781026197" y="670.5158288236635"/>
      <point x="838.0450645608094" y="624.7042204551141"/>
    </contour>
  </outline>
</glyph>
<glyph name="A" format="2">
  <advance width="1149"/>
  <unicode hex="0041"/>
  <outline>
    <contour>
      <point x="641.301550981795" y="1137.2757686641514" type="curve" smooth="yes"/>
      <point x="60.39594193346159" y="77.27479478413346" type="line" smooth="yes"/>
      <point x="34.050858703152215" y="36.986137108356175"/>
      <point x="53.23147517589221" y="27.443566820934684"/>
      <point x="110.27938072727952" y="11.182196052707738" type="curve" smooth="yes"/>
      <point x="166.84026114340458" y="-6.0423738532884155"/>
      <point x="215.22193832237625" y="1.4138949164030468"/>
      <point x="242.55513556686782" y="42.70993330779328" type="curve" smooth="yes"/>
      <point x="378.7875852261686" y="291.71517674231745" type="line" smooth="yes"/>
      <point x="386.9751866652311" y="318.9784514926699"/>
      <point x="411.8636840091832" y="343.193066661747"/>
      <point x="428.60420518604155" y="344.0" type="curve" smooth="yes"/>
      <point x="836.547930771979" y="344.0" type="line" smooth="yes"/>
      <point x="852.2097324891815" y="342.9721949069074"/>
      <point x="867.3203134608688" y="316.84365948219687"/>
      <point x="867.7805152605043" y="287.66814213026265" type="curve" smooth="yes"/>
      <point x="916.2091179410497" y="38.65879950580757" type="line" smooth="yes"/>
      <point x="927.251971254889" y="-1.1985648895363266"/>
      <point x="974.8292021819525" y="-6.040145617619178"/>
      <point x="1036.9058607385232" y="11.343176719464989" type="curve" smooth="yes"/>
      <point x="1098.9901027383578" y="28.19176734398804"/>
      <point x="1129.2169487140166" y="41.834963200522296"/>
      <point x="1120.7187319963925" y="81.31980963755696" type="curve" smooth="yes"/>
      <point x="913.6258257973699" y="1141.3211744425" type="line" smooth="yes"/>
      <point x="901.9086119937094" y="1183.9984642798395"/>
      <point x="855.5688899182164" y="1195.2614628708511"/>
      <point x="787.567484021751" y="1195.0" type="curve" smooth="yes"/>
      <point x="719.8785929155275" y="1195.2295443798967"/>
      <point x="670.3561790265661" y="1181.4648713719178"/>
    </contour>
    <contour>
      <point x="506.2226768826699" y="460.0" type="line" smooth="yes"/>
      <point x="493.801971986256" y="461.8816487648497"/>
      <point x="495.3769881812733" y="495.67764175087405"/>
      <point x="505.0055236494105" y="525.8365705832684" type="curve" smooth="yes"/>
      <point x="779.2558795930632" y="1049.5705386420461" type="line"/>
      <point x="734.700667585672" y="1045.456781202478" type="line"/>
      <point x="824.0086821730629" y="521.7028598691296" type="line" smooth="yes"/>
      <point x="829.0256663163565" y="490.96399316105845"/>
      <point x="823.556059139683" y="461.38080487583983"/>
      <point x="809.375295290873" y="460.0" type="curve" smooth="yes"/>
    </contour>
  </outline>
</glyph>
<glyph name="B" format="2">
  <advance width="1027"/>
  <unicode hex="0042"/>
  <outline>
    <contour>
      <point x="351.3001261009479" y="1173.0" type="line" smooth="yes"/>
      <point x="299.475809890081" y="1173.4908519479789"/>
      <point x="261.33711614875904" y="1163.3505769848823"/>
      <point x="250.70488983445495" y="1116.5689255126629" type="curve" smooth="yes"/>
      <point x="65.3852331098582" y="65.56892551266297" type="line" smooth="yes"/>
      <point x="56.274835453194484" y="19.23250055937727"/>
      <point x="89.50904038598878" y="13.406346346449318"/>
      <point x="142.0" y="14.0" type="curve" smooth="yes"/>
      <point x="564.0" y="14.0" type="line" smooth="yes"/>
      <point x="817.7026208083059" y="13.371525872196612"/>
      <point x="992.6391803861587" y="133.0875689308604"/>
      <point x="1032.8508670963615" y="338.431074487337" type="curve" smooth="yes"/>
      <point x="1058.4133352189506" y="478.1678057313539"/>
      <point x="993.208708201151" y="565.7172693735683"/>
      <point x="902.7414130423502" y="595.9241225880379" type="curve" smooth="yes"/>
      <point x="895.4172338523654" y="608.1298089556827"/>
      <point x="896.0511633154155" y="641.3262740683376"/>
      <point x="908.3485035295577" y="655.5565990907243" type="curve" smooth="yes"/>
      <point x="966.7678883891526" y="681.3772420371781"/>
      <point x="1037.9635816686653" y="755.735059193997"/>
      <point x="1058.8935510261804" y="860.431074487337" type="curve" smooth="yes"/>
      <point x="1092.7969027145018" y="1048.2067421602533"/>
      <point x="975.9558055365902" y="1174.001223344504"/>
      <point x="727.3001261009479" y="1173.0" type="curve" smooth="yes"/>
    </contour>
    <contour>
      <point x="827.6408639397267" y="333.568925512663" type="curve" smooth="yes"/>
      <point x="808.9108395890175" y="199.19840483496023"/>
      <point x="718.2928291178205" y="130.39053750003967"/>
      <point x="569.391085222019" y="130.0" type="curve" smooth="yes"/>
      <point x="302.39108522201894" y="130.0" type="line" smooth="yes"/>
      <point x="288.8089015238549" y="131.5407843012226"/>
      <point x="283.31552544515057" y="162.61516883814488"/>
      <point x="288.4597818743427" y="194.431074487337" type="curve" smooth="yes"/>
      <point x="339.77093326050596" y="485.431074487337" type="line" smooth="yes"/>
      <point x="340.48779996378073" y="516.0394514492363"/>
      <point x="355.54141354044776" y="543.8425110008316"/>
      <point x="370.6296267561949" y="545.0" type="curve" smooth="yes"/>
      <point x="632.6296267561949" y="545.0" type="line" smooth="yes"/>
      <point x="793.0258821062985" y="544.540895164432"/>
      <point x="851.2750718276195" y="470.71162689739447"/>
    </contour>
    <contour>
      <point x="853.6835478695455" y="855.568925512663" type="curve" smooth="yes"/>
      <point x="836.4575742774991" y="734.8713744400471"/>
      <point x="764.1313110424943" y="661.5004335851793"/>
      <point x="615.0207119782139" y="661.0" type="curve" smooth="yes"/>
      <point x="396.02071197821385" y="661.0" type="line" smooth="yes"/>
      <point x="382.43852828004975" y="662.5407843012226"/>
      <point x="376.9451522013454" y="693.6151688381448"/>
      <point x="382.08940863053755" y="725.431074487337" type="curve" smooth="yes"/>
      <point x="430.0503473832401" y="997.431074487337" type="line" smooth="yes"/>
      <point x="430.76721408651474" y="1028.0394514492361"/>
      <point x="445.82082766318183" y="1055.8425110008316"/>
      <point x="460.909040878929" y="1057.0" type="curve" smooth="yes"/>
      <point x="679.909040878929" y="1057.0" type="line" smooth="yes"/>
      <point x="829.6681744510367" y="1056.4461280617816"/>
      <point x="875.2805869932806" y="982.1261220679145"/>
    </contour>
  </outline>
</glyph>
<glyph name="C" format="2">
  <advance width="1060"/>
  <unicode hex="0043"/>
  <outline>
    <contour>
      <point x="147.13322496251078" y="591.568925512663" type="curve" smooth="yes"/>
      <point x="81.80977463047613" y="226.16418228806575"/>
      <point x="257.07649582095974" y="-9.592759671952782"/>
      <point x="578.1208064244138" y="-8.0" type="curve" smooth="yes"/>
      <point x="714.3254641731716" y="-8.106751401879063"/>
      <point x="845.2472780302385" y="23.035369684040855"/>
      <point x="980.9225343652656" y="91.42172624070719" type="curve" smooth="yes"/>
      <point x="1028.7696609101715" y="111.12272691064143"/>
      <point x="1051.4510814516857" y="133.0783326013064"/>
      <point x="1036.2757464737597" y="179.16955525403907" type="curve" smooth="yes"/>
      <point x="1014.9723081907367" y="225.18231719215086"/>
      <point x="954.9265330223803" y="219.54096026828864"/>
      <point x="917.7558331147454" y="203.67462242277824" type="curve" smooth="yes"/>
      <point x="812.8148821666553" y="145.08699646959064"/>
      <point x="711.4520128721475" y="112.14757725510478"/>
      <point x="604.2171995692665" y="112.0" type="curve" smooth="yes"/>
      <point x="399.71809058814176" y="113.72440279403189"/>
      <point x="301.74163766577436" y="304.205720176589"/>
      <point x="352.3432281191456" y="596.431074487337" type="curve" smooth="yes"/>
      <point x="400.93677248524597" y="888.0842188739983"/>
      <point x="562.8926796239507" y="1073.7326428242795"/>
      <point x="769.0829265316813" y="1075.0" type="curve" smooth="yes"/>
      <point x="876.1174750156774" y="1074.836211071005"/>
      <point x="964.9727412523578" y="1041.5646438223275"/>
      <point x="1048.8157100471626" y="982.6574584457829" type="curve" smooth="yes"/>
      <point x="1081.324905221466" y="967.3396342418991"/>
      <point x="1138.4408923475212" y="963.209033309132"/>
      <point x="1177.9600584761336" y="1011.5225391391729" type="curve" smooth="yes"/>
      <point x="1212.4113973528297" y="1058.5902333889715"/>
      <point x="1205.85073277636" y="1078.017570889231"/>
      <point x="1164.332236982557" y="1096.189828845871" type="curve" smooth="yes"/>
      <point x="1052.2960950204574" y="1164.2549579614965"/>
      <point x="931.5283903706494" y="1195.1166306655853"/>
      <point x="795.1793196765342" y="1195.0" type="curve" smooth="yes"/>
      <point x="475.71412994968705" y="1196.184165121246"/>
      <point x="214.81430364175026" y="957.642797537304"/>
    </contour>
  </outline>
</glyph>
<glyph name="D" format="2">
  <advance width="1065"/>
  <unicode hex="0044"/>
  <outline>
    <contour>
      <point x="342.3001261009479" y="1173.0" type="line" smooth="yes"/>
      <point x="290.475809890081" y="1173.4908519479789"/>
      <point x="252.33711614875907" y="1163.3505769848823"/>
      <point x="241.70488983445495" y="1116.5689255126629" type="curve" smooth="yes"/>
      <point x="56.385233109858206" y="65.56892551266297" type="line" smooth="yes"/>
      <point x="47.274835453194484" y="19.23250055937727"/>
      <point x="80.50904038598878" y="13.406346346449318"/>
      <point x="133.0" y="14.0" type="curve" smooth="yes"/>
      <point x="469.0" y="14.0" type="line" smooth="yes"/>
      <point x="793.540666498774" y="13.023376446007932"/>
      <point x="1057.273410059397" y="229.57679683919724"/>
      <point x="1125.166901138437" y="595.431074487337" type="curve" smooth="yes"/>
      <point x="1190.3965788740038" y="960.5346515125133"/>
      <point x="1004.1740343400583" y="1174.2832059367497"/>
      <point x="678.3001261009479" y="1173.0" type="curve" smooth="yes"/>
    </contour>
    <contour>
      <point x="919.9568979818023" y="590.568925512663" type="curve" smooth="yes"/>
      <point x="869.9423221550717" y="288.54779724990425"/>
      <point x="703.5504457881794" y="130.83416838763253"/>
      <point x="475.39108522201894" y="130.0" type="curve" smooth="yes"/>
      <point x="293.39108522201894" y="130.0" type="line" smooth="yes"/>
      <point x="279.8089015238549" y="131.5407843012226"/>
      <point x="274.31552544515057" y="162.61516883814488"/>
      <point x="279.4597818743427" y="194.431074487337" type="curve" smooth="yes"/>
      <point x="421.0503473832401" y="997.431074487337" type="line" smooth="yes"/>
      <point x="421.76721408651474" y="1028.0394514492361"/>
      <point x="436.82082766318183" y="1055.8425110008316"/>
      <point x="451.909040878929" y="1057.0" type="curve" smooth="yes"/>
      <point x="633.909040878929" y="1057.0" type="line" smooth="yes"/>
      <point x="860.8949687633288" y="1055.919917109924"/>
      <point x="972.4578963754714" y="893.2912187918688"/>
    </contour>
  </outline>
</glyph>
<glyph name="E" format="2">
  <advance width="831"/>
  <unicode hex="0045"/>
  <outline>
    <contour>
      <point x="342.3001261009479" y="1173.0" type="line" smooth="yes"/>
      <point x="290.475809890081" y="1173.4908519479789"/>
      <point x="252.33711614875907" y="1163.3505769848823"/>
      <point x="241.70488983445495" y="1116.5689255126629" type="curve" smooth="yes"/>
      <point x="56.385233109858206" y="65.56892551266297" type="line" smooth="yes"/>
      <point x="47.274835453194484" y="19.23250055937727"/>
      <point x="80.50904038598878" y="13.406346346449318"/>
      <point x="133.0" y="14.0" type="curve" smooth="yes"/>
      <point x="709.7926315789473" y="14.0" type="line" smooth="yes"/>
      <point x="755.3212903098929" y="13.151039160191194"/>
      <point x="788.8830973718727" y="24.969951869922667"/>
      <point x="799.3505441893269" y="74.43107448733701" type="curve" smooth="yes"/>
      <point x="808.9050209275631" y="123.62108501122974"/>
      <point x="781.8441139860454" y="131.0877206741067"/>
      <point x="735.1837168009663" y="130.0" type="curve" smooth="yes"/>
      <point x="293.39108522201894" y="130.0" type="line" smooth="yes"/>
      <point x="279.8089015238549" y="131.5407843012226"/>
      <point x="274.31552544515057" y="162.61516883814488"/>
      <point x="279.4597818743427" y="194.431074487337" type="curve" smooth="yes"/>
      <point x="332.3578760868822" y="494.431074487337" type="line" smooth="yes"/>
      <point x="333.0747427901569" y="525.0394514492363"/>
      <point x="348.12835636682394" y="552.8425110008316"/>
      <point x="363.2165695825711" y="554.0" type="curve" smooth="yes"/>
      <point x="687.0358928908418" y="554.0" type="line" smooth="yes"/>
      <point x="732.5645516217872" y="553.1510391601912"/>
      <point x="766.1263586837672" y="564.9699518699227"/>
      <point x="776.5938055012214" y="614.431074487337" type="curve" smooth="yes"/>
      <point x="786.1482822394576" y="663.6210850112298"/>
      <point x="759.0873752979397" y="671.0877206741067"/>
      <point x="712.4269781128608" y="670.0" type="curve" smooth="yes"/>
      <point x="388.60765480459" y="670.0" type="line" smooth="yes"/>
      <point x="375.0254711064259" y="671.5407843012226"/>
      <point x="369.5320950277216" y="702.6151688381449"/>
      <point x="374.6763514569138" y="734.431074487337" type="curve" smooth="yes"/>
      <point x="421.0503473832401" y="997.431074487337" type="line" smooth="yes"/>
      <point x="421.76721408651474" y="1028.0394514492361"/>
      <point x="436.82082766318183" y="1055.8425110008316"/>
      <point x="451.909040878929" y="1057.0" type="curve" smooth="yes"/>
      <point x="877.4294920067485" y="1057.0" type="line" smooth="yes"/>
      <point x="922.9581507376942" y="1056.1510391601912"/>
      <point x="956.5199577996738" y="1067.9699518699226"/>
      <point x="966.987404617128" y="1117.4310744873371" type="curve" smooth="yes"/>
      <point x="976.5418813553642" y="1166.6210850112298"/>
      <point x="949.4809744138464" y="1174.0877206741068"/>
      <point x="902.8205772287674" y="1173.0" type="curve" smooth="yes"/>
    </contour>
  </outline>
</glyph>
<glyph name="F" format="2">
  <advance width="849"/>
  <unicode hex="0046"/>
  <outline>
    <contour>
      <point x="351.3001261009479" y="1173.0" type="line" smooth="yes"/>
      <point x="302.475809890081" y="1173.4908519479789"/>
      <point x="261.7338478693507" y="1162.8890908963142"/>
      <point x="250.70488983445495" y="1116.5689255126629" type="curve" smooth="yes"/>
      <point x="63.092982360648165" y="52.56892551266297" type="line" smooth="yes"/>
      <point x="54.71750718546434" y="10.401273050558164"/>
      <point x="88.48441084270917" y="3.5196335395191802"/>
      <point x="151.23673019291536" y="4.0" type="curve" smooth="yes"/>
      <point x="153.23673019291536" y="4.0" type="line" smooth="yes"/>
      <point x="215.4388973327357" y="3.5958406047512987"/>
      <point x="254.26801375947642" y="14.779548258186935"/>
      <point x="264.302985517283" y="57.43107448733703" type="curve" smooth="yes"/>
      <point x="334.30479685854357" y="454.431074487337" type="line" smooth="yes"/>
      <point x="335.0216635618183" y="485.0394514492362"/>
      <point x="350.0752771384853" y="512.8425110008316"/>
      <point x="365.1634903542325" y="514.0" type="curve" smooth="yes"/>
      <point x="708.9004670984185" y="514.0" type="line" smooth="yes"/>
      <point x="755.3414758927865" y="513.1942409290214"/>
      <point x="789.5291707076348" y="525.041869595806"/>
      <point x="800.0477554737919" y="574.431074487337" type="curve" smooth="yes"/>
      <point x="809.5972820568805" y="623.5329076839206"/>
      <point x="781.8097926756059" y="631.0261377868446"/>
      <point x="734.2915523204374" y="630.0" type="curve" smooth="yes"/>
      <point x="390.5545755762514" y="630.0" type="line" smooth="yes"/>
      <point x="376.97239187808736" y="631.5407843012226"/>
      <point x="371.47901579938303" y="662.6151688381448"/>
      <point x="376.62327222857516" y="694.431074487337" type="curve" smooth="yes"/>
      <point x="430.0503473832401" y="997.431074487337" type="line" smooth="yes"/>
      <point x="430.76721408651474" y="1028.0394514492361"/>
      <point x="445.82082766318183" y="1055.8425110008316"/>
      <point x="460.909040878929" y="1057.0" type="curve" smooth="yes"/>
      <point x="901.1122966928824" y="1057.0" type="line" smooth="yes"/>
      <point x="947.5533054872504" y="1056.1942409290214"/>
      <point x="981.7410003020988" y="1068.041869595806"/>
      <point x="992.2595850682559" y="1117.4310744873371" type="curve" smooth="yes"/>
      <point x="1001.8091116513444" y="1166.5329076839205"/>
      <point x="974.0216222700699" y="1174.0261377868446"/>
      <point x="926.5033819149014" y="1173.0" type="curve" smooth="yes"/>
    </contour>
  </outline>
</glyph>
<glyph name="H" format="2">
  <advance width="1046"/>
  <unicode hex="0048"/>
  <outline>
    <contour>
      <point x="1097.0633959080326" y="1183.0" type="line" smooth="yes"/>
      <point x="1034.8612287682122" y="1183.4041593952486"/>
      <point x="996.0321123414715" y="1172.2204517418131"/>
      <point x="985.9971405836649" y="1129.5689255126629" type="curve" smooth="yes"/>
      <point x="915.4663483002789" y="729.568925512663" type="line" smooth="yes"/>
      <point x="914.7494815970042" y="698.9605485507637"/>
      <point x="899.6958680203372" y="671.1574889991684"/>
      <point x="884.6076548045901" y="670.0" type="curve" smooth="yes"/>
      <point x="402.60765480459" y="670.0" type="line" smooth="yes"/>
      <point x="389.0254711064259" y="671.5407843012226"/>
      <point x="383.5320950277216" y="702.6151688381449"/>
      <point x="388.6763514569138" y="734.431074487337" type="curve" smooth="yes"/>
      <point x="459.2071437402997" y="1134.4310744873371" type="line" smooth="yes"/>
      <point x="467.5826189154836" y="1176.598726949442"/>
      <point x="433.81571525823875" y="1183.4803664604808"/>
      <point x="371.0633959080326" y="1183.0" type="curve" smooth="yes"/>
      <point x="369.0633959080326" y="1183.0" type="line" smooth="yes"/>
      <point x="306.86122876821224" y="1183.4041593952486"/>
      <point x="268.03211234147153" y="1172.2204517418131"/>
      <point x="257.99714058366493" y="1129.5689255126629" type="curve" smooth="yes"/>
      <point x="68.09298236064816" y="52.56892551266297" type="line" smooth="yes"/>
      <point x="59.71750718546434" y="10.401273050558164"/>
      <point x="93.48441084270917" y="3.5196335395191802"/>
      <point x="156.23673019291536" y="4.0" type="curve" smooth="yes"/>
      <point x="158.23673019291536" y="4.0" type="line" smooth="yes"/>
      <point x="220.4388973327357" y="3.5958406047512987"/>
      <point x="259.2680137594764" y="14.779548258186935"/>
      <point x="269.302985517283" y="57.43107448733703" type="curve" smooth="yes"/>
      <point x="346.3578760868822" y="494.431074487337" type="line" smooth="yes"/>
      <point x="347.0747427901569" y="525.0394514492363"/>
      <point x="362.12835636682394" y="552.8425110008316"/>
      <point x="377.2165695825711" y="554.0" type="curve" smooth="yes"/>
      <point x="859.2165695825711" y="554.0" type="line" smooth="yes"/>
      <point x="872.7987532807352" y="552.4592156987774"/>
      <point x="878.2921293594394" y="521.3848311618551"/>
      <point x="873.1478729302473" y="489.568925512663" type="curve" smooth="yes"/>
      <point x="796.0929823606481" y="52.56892551266298" type="line" smooth="yes"/>
      <point x="787.7175071854643" y="10.401273050558181"/>
      <point x="821.4844108427092" y="3.5196335395191802"/>
      <point x="884.2367301929154" y="4.0" type="curve" smooth="yes"/>
      <point x="886.2367301929154" y="4.0" type="line" smooth="yes"/>
      <point x="948.4388973327357" y="3.5958406047512987"/>
      <point x="987.2680137594765" y="14.779548258186928"/>
      <point x="997.302985517283" y="57.43107448733702" type="curve" smooth="yes"/>
      <point x="1187.2071437402997" y="1134.4310744873371" type="line" smooth="yes"/>
      <point x="1195.5826189154836" y="1176.598726949442"/>
      <point x="1161.8157152582387" y="1183.4803664604808"/>
      <point x="1099.0633959080326" y="1183.0" type="curve" smooth="yes"/>
    </contour>
  </outline>
</glyph>
<glyph name="I" format="2">
  <advance width="520"/>
  <unicode hex="0049"/>
  <outline>
    <contour>
      <point x="128.18887283263837" y="130.0" type="line" smooth="yes"/>
      <point x="97.41288463723859" y="133.57256611778985"/>
      <point x="80.64631725345697" y="120.5927270837869"/>
      <point x="71.09054103269206" y="69.56892551266297" type="curve" smooth="yes"/>
      <point x="61.660047939338" y="18.5830572678255"/>
      <point x="68.70609606932568" y="8.49627058110465"/>
      <point x="102.79778761061942" y="14.0" type="curve" smooth="yes"/>
      <point x="417.5022123893805" y="14.0" type="line" smooth="yes"/>
      <point x="448.2782005847803" y="10.427433882210156"/>
      <point x="465.0447679685619" y="23.407272916213106"/>
      <point x="474.60054418932685" y="74.43107448733703" type="curve" smooth="yes"/>
      <point x="484.0310372826809" y="125.41694273217449"/>
      <point x="476.9849891526932" y="135.50372941889532"/>
      <point x="442.8932976113994" y="130.0" type="curve" smooth="yes"/>
      <point x="395.12901442555875" y="130.0" type="line" smooth="yes"/>
      <point x="388.6552282495186" y="131.5407843012226"/>
      <point x="388.35401776931417" y="156.3114955638086"/>
      <point x="392.24487192575464" y="181.01900369087681" type="curve" smooth="yes"/>
      <point x="539.0071982829453" y="1013.3495169652131" type="line" smooth="yes"/>
      <point x="538.2364340093762" y="1035.521119413838"/>
      <point x="544.4891596985801" y="1055.8425110008316"/>
      <point x="551.1405984010529" y="1057.0" type="curve" smooth="yes"/>
      <point x="595.4437016458907" y="1057.0" type="line" smooth="yes"/>
      <point x="626.2196898412905" y="1053.4274338822102"/>
      <point x="642.9862572250719" y="1066.407272916213"/>
      <point x="652.542033445837" y="1117.4310744873371" type="curve" smooth="yes"/>
      <point x="661.972526539191" y="1168.4169427321744"/>
      <point x="654.9264784092034" y="1178.5037294188953"/>
      <point x="620.8347868679095" y="1173.0" type="curve" smooth="yes"/>
      <point x="318.06546533398625" y="1173.0" type="line" smooth="yes"/>
      <point x="287.2894771385865" y="1176.5725661177898"/>
      <point x="270.5229097548048" y="1163.592727083787"/>
      <point x="260.9671335340399" y="1112.5689255126629" type="curve" smooth="yes"/>
      <point x="251.53664044068583" y="1061.5830572678256"/>
      <point x="258.5826885706736" y="1051.4962705811047"/>
      <point x="292.6743801119673" y="1057.0" type="curve" smooth="yes"/>
      <point x="336.97748335680507" y="1057.0" type="line" smooth="yes"/>
      <point x="342.12289254169474" y="1055.4592156987774"/>
      <point x="341.45382057865885" y="1031.8664991264568"/>
      <point x="337.7971951263105" y="1008.4873679905392" type="curve" smooth="yes"/>
      <point x="191.03486876911984" y="176.15685471620282" type="line" smooth="yes"/>
      <point x="191.57140433859678" y="152.6568752764275"/>
      <point x="183.93297171210236" y="131.15748899916844"/>
      <point x="175.9531560184791" y="130.0" type="curve" smooth="yes"/>
    </contour>
  </outline>
</glyph>
<glyph name="J" format="2">
  <advance width="683"/>
  <unicode hex="004A"/>
  <outline>
    <contour>
      <point x="445.89596975356943" y="1173.0" type="line" smooth="yes"/>
      <point x="407.936713110184" y="1174.4425189490983"/>
      <point x="380.5802778730196" y="1162.6926551795948"/>
      <point x="370.54511573076655" y="1112.5689255126629" type="curve" smooth="yes"/>
      <point x="360.9922689789042" y="1062.589948814366"/>
      <point x="380.7194885745375" y="1055.0229420691207"/>
      <point x="420.5048845315505" y="1057.0" type="curve" smooth="yes"/>
      <point x="584.809040878929" y="1057.0" type="line" smooth="yes"/>
      <point x="598.3912245770931" y="1055.4592156987774"/>
      <point x="603.8846006557973" y="1024.3848311618551"/>
      <point x="598.7403442266052" y="992.568925512663" type="curve" smooth="yes"/>
      <point x="487.30169241885534" y="360.568925512663" type="line" smooth="yes"/>
      <point x="461.3885587203109" y="205.37477093255416"/>
      <point x="416.94197064089667" y="113.87820024400125"/>
      <point x="340.55896491797006" y="112.0" type="curve" smooth="yes"/>
      <point x="286.7937833100189" y="112.57857293031796"/>
      <point x="244.83539534147224" y="150.35289575587618"/>
      <point x="210.35500703463939" y="214.7494236428073" type="curve" smooth="yes"/>
      <point x="192.24857482017026" y="230.92263170786126"/>
      <point x="139.02837955529947" y="235.91359102753103"/>
      <point x="106.85653923369112" y="190.21603683180297" type="curve" smooth="yes"/>
      <point x="79.8751253916409" y="146.40401538797997"/>
      <point x="76.8186305636723" y="121.1685322316829"/>
      <point x="96.00170878138002" y="99.33896923875493" type="curve" smooth="yes"/>
      <point x="146.25956548033906" y="27.072889079390325"/>
      <point x="229.6846602384743" y="-8.453024140300784"/>
      <point x="313.8744716170304" y="-8.0" type="curve" smooth="yes"/>
      <point x="467.9937241264599" y="-9.070856572050552"/>
      <point x="639.9014634330439" y="110.86126989290436"/>
      <point x="683.2218861542362" y="335.431074487337" type="curve" smooth="yes"/>
      <point x="821.8148929910898" y="1121.4310744873371" type="line" smooth="yes"/>
      <point x="830.8009826437794" y="1167.1611191775057"/>
      <point x="794.6910857149592" y="1173.5936536535507"/>
      <point x="745.200126100948" y="1173.0" type="curve" smooth="yes"/>
    </contour>
  </outline>
</glyph>
<glyph name="K" format="2">
  <advance width="1004"/>
  <unicode hex="004B"/>
  <outline>
    <contour>
      <point x="347.0633959080326" y="1183.0" type="line" smooth="yes"/>
      <point x="284.86122876821224" y="1183.4041593952486"/>
      <point x="246.0321123414715" y="1172.2204517418131"/>
      <point x="235.99714058366493" y="1129.5689255126629" type="curve" smooth="yes"/>
      <point x="46.092982360648165" y="52.56892551266297" type="line" smooth="yes"/>
      <point x="37.71750718546434" y="10.401273050558164"/>
      <point x="71.48441084270917" y="3.5196335395191802"/>
      <point x="134.23673019291536" y="4.0" type="curve" smooth="yes"/>
      <point x="136.23673019291536" y="4.0" type="line" smooth="yes"/>
      <point x="198.4388973327357" y="3.5958406047512987"/>
      <point x="237.26801375947642" y="14.779548258186935"/>
      <point x="247.30298551728296" y="57.43107448733703" type="curve" smooth="yes"/>
      <point x="293.6042293446353" y="320.018476831087" type="line" smooth="yes"/>
      <point x="296.48329091913183" y="348.4142079725939"/>
      <point x="315.6459228986748" y="390.3880469995122"/>
      <point x="332.8843548765391" y="410.929349573471" type="curve" smooth="yes"/>
      <point x="461.0928347526977" y="525.3147344397078" type="line" smooth="yes"/>
      <point x="472.91711049728" y="546.6111312621107"/>
      <point x="481.13349276954807" y="544.1589440843152"/>
      <point x="482.8001288555391" y="518.6443279673719" type="curve" smooth="yes"/>
      <point x="778.6147777626788" y="13.068084295489264" type="line" smooth="yes"/>
      <point x="806.4459760098099" y="-15.132476786149107"/>
      <point x="859.0232205006861" y="-11.756565247331622"/>
      <point x="910.9561641596821" y="12.4319346347153" type="curve" smooth="yes"/>
      <point x="969.9291670345568" y="38.596500926769906"/>
      <point x="988.2730477241332" y="52.47921127816095"/>
      <point x="963.6529996980374" y="84.9206345665295" type="curve" smooth="yes"/>
      <point x="652.3294229861339" y="615.7034285490307" type="line" smooth="yes"/>
      <point x="643.9693975364903" y="641.9890917993105"/>
      <point x="648.7676381063334" y="684.0138301045935"/>
      <point x="663.9400903972471" y="706.2915931273521" type="curve" smooth="yes"/>
      <point x="1110.19428457615" y="1104.454575750493" type="line" smooth="yes"/>
      <point x="1152.418377020264" y="1134.713401824423"/>
      <point x="1155.7296685658114" y="1148.450407314925"/>
      <point x="1107.7761252564148" y="1175.750232334586" type="curve" smooth="yes"/>
      <point x="1066.6116993309386" y="1200.0166652789512"/>
      <point x="1011.9472437084362" y="1202.7630352924239"/>
      <point x="975.6546362739978" y="1180.573434857076" type="curve" smooth="yes"/>
      <point x="336.6652743485951" y="608.4368370608906" type="line" smooth="yes"/>
      <point x="324.64219047338776" y="587.1368974302034"/>
      <point x="343.74638897195564" y="602.276531662246"/>
      <point x="349.02642319221263" y="634.3333572021808" type="curve" smooth="yes"/>
      <point x="437.2071437402997" y="1134.4310744873371" type="line" smooth="yes"/>
      <point x="445.5826189154836" y="1176.598726949442"/>
      <point x="411.81571525823875" y="1183.4803664604808"/>
      <point x="349.0633959080326" y="1183.0" type="curve" smooth="yes"/>
    </contour>
  </outline>
</glyph>
<glyph name="L" format="2">
  <advance width="849"/>
  <unicode hex="004C"/>
  <outline>
    <contour>
      <point x="364.0633959080326" y="1183.0" type="line" smooth="yes"/>
      <point x="301.86122876821224" y="1183.4041593952486"/>
      <point x="263.03211234147153" y="1172.2204517418131"/>
      <point x="252.99714058366493" y="1129.5689255126629" type="curve" smooth="yes"/>
      <point x="65.3852331098582" y="65.56892551266297" type="line" smooth="yes"/>
      <point x="56.24415998908793" y="19.02863448102335"/>
      <point x="88.50904038598878" y="13.406346346449318"/>
      <point x="142.0" y="14.0" type="curve" smooth="yes"/>
      <point x="717.2032558139534" y="14.0" type="line" smooth="yes"/>
      <point x="763.6442646083215" y="13.19424092902133"/>
      <point x="797.8319594231698" y="25.04186959580604"/>
      <point x="808.3505441893269" y="74.43107448733701" type="curve" smooth="yes"/>
      <point x="817.9000707724155" y="123.53290768392058"/>
      <point x="790.1125813911409" y="131.02613778684469"/>
      <point x="742.5943410359724" y="130.0" type="curve" smooth="yes"/>
      <point x="302.39108522201894" y="130.0" type="line" smooth="yes"/>
      <point x="288.8089015238549" y="131.5407843012226"/>
      <point x="283.31552544515057" y="162.61516883814488"/>
      <point x="288.4597818743427" y="194.431074487337" type="curve" smooth="yes"/>
      <point x="454.2071437402997" y="1134.4310744873371" type="line" smooth="yes"/>
      <point x="462.5826189154836" y="1176.598726949442"/>
      <point x="428.81571525823875" y="1183.4803664604808"/>
      <point x="366.0633959080326" y="1183.0" type="curve" smooth="yes"/>
    </contour>
  </outline>
</glyph>
<glyph name="M" format="2">
  <advance width="1090"/>
  <unicode hex="004D"/>
  <outline>
    <contour>
      <point x="1118.1025299914388" y="1183.0" type="line" smooth="yes"/>
      <point x="1064.761288432918" y="1183.4227731305882"/>
      <point x="1019.6841507190237" y="1167.3812863233657"/>
      <point x="987.7559170243667" y="1124.4417365506179" type="curve" smooth="yes"/>
      <point x="650.1587493861273" y="597.9688982479095" type="line" smooth="yes"/>
      <point x="642.6002093110015" y="570.8922097833639"/>
      <point x="655.6067319902489" y="572.0425871412215"/>
      <point x="656.5545210313968" y="601.6442221693017" type="curve" smooth="yes"/>
      <point x="504.6209466320923" y="1128.1164987879536" type="line" smooth="yes"/>
      <point x="489.09100400198014" y="1169.9984642798395"/>
      <point x="449.108824992642" y="1183.5178883171554"/>
      <point x="395.10252999143876" y="1183.0" type="curve" smooth="yes"/>
      <point x="393.10252999143876" y="1183.0" type="line" smooth="yes"/>
      <point x="341.1708487199237" y="1183.254156632155"/>
      <point x="293.3847144069672" y="1174.60155794738"/>
      <point x="280.1651336043901" y="1129.203825890837" type="curve" smooth="yes"/>
      <point x="60.26146396628582" y="52.20253552003451" type="line" smooth="yes"/>
      <point x="50.7199589143881" y="10.188653133739164"/>
      <point x="84.52354492611533" y="3.5196335395191802"/>
      <point x="147.27586427632153" y="4.0" type="curve" smooth="yes"/>
      <point x="149.27586427632153" y="4.0" type="line" smooth="yes"/>
      <point x="211.55455617489508" y="3.5856527555164117"/>
      <point x="249.30714784288259" y="14.779548258186935"/>
      <point x="260.2227364073813" y="57.77102454846969" type="curve" smooth="yes"/>
      <point x="414.8751118016154" y="822.7900887895464" type="line" smooth="yes"/>
      <point x="417.154279095772" y="852.347896768772"/>
      <point x="384.8192023561061" y="856.3767611672057"/>
      <point x="386.6356227118936" y="828.3329207754201" type="curve" smooth="yes"/>
      <point x="502.46605121949466" y="425.8771577937158" type="line" smooth="yes"/>
      <point x="518.4577274206474" y="381.82227315658736"/>
      <point x="556.7700209569871" y="371.57002734435747"/>
      <point x="608.1641931770367" y="372.0" type="curve" smooth="yes"/>
      <point x="659.0613839727916" y="371.6351299447669"/>
      <point x="700.3847715213974" y="384.42654574118745"/>
      <point x="733.339559269969" y="429.55399680102363" type="curve" smooth="yes"/>
      <point x="991.1007870026848" y="832.0114428460045" type="line" smooth="yes"/>
      <point x="1000.9032139509653" y="858.1673700539411"/>
      <point x="968.2715793002586" y="848.3747983394815"/>
      <point x="964.1590506899367" y="817.932513395979" type="curve" smooth="yes"/>
      <point x="849.0275279787343" y="52.9133674113869" type="line" smooth="yes"/>
      <point x="841.7566412688706" y="10.401273050558181"/>
      <point x="874.4332686449728" y="3.5064668636054375"/>
      <point x="937.2758642763216" y="4.0" type="curve" smooth="yes"/>
      <point x="939.2758642763216" y="4.0" type="line" smooth="yes"/>
      <point x="1001.4780314161419" y="3.5958406047512987"/>
      <point x="1040.4429703845462" y="14.615397089225212"/>
      <point x="1049.4542632883627" y="57.05946153850232" type="curve" smooth="yes"/>
      <point x="1209.3580547787346" y="1134.0607888870836" type="line" smooth="yes"/>
      <point x="1216.6547733402044" y="1178.5478051283521"/>
      <point x="1172.451247620334" y="1183.2994472174341"/>
      <point x="1120.1025299914388" y="1183.0" type="curve" smooth="yes"/>
    </contour>
  </outline>
</glyph>
<glyph name="N" format="2">
  <advance width="1030"/>
  <unicode hex="004E"/>
  <outline>
    <contour>
      <point x="1091.0633959080326" y="1183.0" type="line" smooth="yes"/>
      <point x="1030.7063279196057" y="1183.424919139379"/>
      <point x="992.0321123414715" y="1172.2204517418131"/>
      <point x="981.9971405836649" y="1129.5689255126629" type="curve" smooth="yes"/>
      <point x="833.0218219375251" y="284.505705580799" type="line"/>
      <point x="878.1575964296673" y="281.069219954905" type="line"/>
      <point x="469.7139906158724" y="1163.1108443561702" type="line" smooth="yes"/>
      <point x="455.66428216556164" y="1177.0894142932202"/>
      <point x="423.34125696502144" y="1183.2914821645256"/>
      <point x="389.0633959080326" y="1183.0" type="curve" smooth="yes"/>
      <point x="362.0633959080326" y="1183.0" type="line" smooth="yes"/>
      <point x="299.9359649260999" y="1183.39433748049"/>
      <point x="260.1702075962196" y="1172.0591243875413"/>
      <point x="249.99714058366493" y="1129.5689255126629" type="curve" smooth="yes"/>
      <point x="60.092982360648165" y="52.56892551266297" type="line" smooth="yes"/>
      <point x="51.71750718546434" y="10.401273050558164"/>
      <point x="85.30150506693649" y="3.492761585678961"/>
      <point x="146.23673019291536" y="4.0" type="curve" smooth="yes"/>
      <point x="148.23673019291536" y="4.0" type="line" smooth="yes"/>
      <point x="208.59379818134235" y="3.575080860620991"/>
      <point x="247.26801375947642" y="14.779548258186935"/>
      <point x="257.302985517283" y="57.43107448733703" type="curve" smooth="yes"/>
      <point x="409.9816854700185" y="923.4927632181465" type="line"/>
      <point x="364.8569658195695" y="926.9440828712171" type="line"/>
      <point x="777.2400268988899" y="38.89958064942231" type="line" smooth="yes"/>
      <point x="795.1241941353966" y="6.7120892541463455"/>
      <point x="828.309259607873" y="-8.82851486488821"/>
      <point x="875.1208064244138" y="-8.0" type="curve" smooth="yes"/>
      <point x="934.658222656562" y="-8.601205461219639"/>
      <point x="976.9781705809844" y="8.89747998197112"/>
      <point x="986.1290998645306" y="39.43107448733703" type="curve" smooth="yes"/>
      <point x="1179.2071437402997" y="1134.4310744873371" type="line" smooth="yes"/>
      <point x="1187.5826189154836" y="1176.598726949442"/>
      <point x="1153.9986210340114" y="1183.5072384143211"/>
      <point x="1093.0633959080326" y="1183.0" type="curve" smooth="yes"/>
    </contour>
  </outline>
</glyph>
<glyph name="O" format="2">
  <advance width="1184"/>
  <unicode hex="004F"/>
  <outline>
    <contour>
      <point x="146.95689798180234" y="590.568925512663" type="curve" smooth="yes"/>
      <point x="81.66166270624623" y="225.2591451815559"/>
      <point x="261.3162799972577" y="-9.526120869342162"/>
      <point x="588.1208064244138" y="-8.0" type="curve" smooth="yes"/>
      <point x="913.4307205700416" y="-9.14772650481072"/>
      <point x="1178.4247209404746" y="229.42134810760462"/>
      <point x="1246.166901138437" y="595.431074487337" type="curve" smooth="yes"/>
      <point x="1311.4643872566428" y="960.7482796687314"/>
      <point x="1132.0254906136074" y="1196.5375728065364"/>
      <point x="805.1793196765342" y="1195.0" type="curve" smooth="yes"/>
      <point x="479.83668152990424" y="1196.1553520062178"/>
      <point x="214.69388424417957" y="956.5840730919631"/>
    </contour>
    <contour>
      <point x="1040.9568979818023" y="590.568925512663" type="curve" smooth="yes"/>
      <point x="992.0697446923501" y="296.85032806472884"/>
      <point x="827.7227704331732" y="113.19109941059423"/>
      <point x="614.2171995692665" y="112.0" type="curve" smooth="yes"/>
      <point x="402.25674223965586" y="113.59141802939044"/>
      <point x="301.1888553229734" y="301.1091884503898"/>
      <point x="352.16690113843714" y="595.431074487337" type="curve" smooth="yes"/>
      <point x="401.06020990866807" y="889.142888660332"/>
      <point x="565.6230475678575" y="1073.7980181940732"/>
      <point x="779.0829265316813" y="1075.0" type="curve" smooth="yes"/>
      <point x="990.985111987785" y="1073.392138488988"/>
      <point x="1091.9326461608393" y="884.8817127548464"/>
    </contour>
  </outline>
</glyph>
<glyph name="P" format="2">
  <advance width="885"/>
  <unicode hex="0050"/>
  <outline>
    <contour>
      <point x="342.3001261009479" y="1173.0" type="line" smooth="yes"/>
      <point x="290.475809890081" y="1173.4908519479789"/>
      <point x="252.33711614875907" y="1163.3505769848823"/>
      <point x="241.70488983445495" y="1116.5689255126629" type="curve" smooth="yes"/>
      <point x="54.092982360648165" y="52.56892551266297" type="line" smooth="yes"/>
      <point x="45.71750718546434" y="10.401273050558164"/>
      <point x="79.48441084270917" y="3.5196335395191802"/>
      <point x="142.23673019291536" y="4.0" type="curve" smooth="yes"/>
      <point x="144.23673019291536" y="4.0" type="line" smooth="yes"/>
      <point x="206.4388973327357" y="3.5958406047512987"/>
      <point x="245.26801375947642" y="14.779548258186935"/>
      <point x="255.302985517283" y="57.43107448733703" type="curve" smooth="yes"/>
      <point x="306.4378099227378" y="347.431074487337" type="line" smooth="yes"/>
      <point x="307.15467662601253" y="378.0394514492362"/>
      <point x="322.2082902026796" y="405.84251100083156"/>
      <point x="337.2965034184267" y="407.0" type="curve" smooth="yes"/>
      <point x="510.24082656253154" y="407.0" type="line" smooth="yes"/>
      <point x="762.4503747177878" y="406.0098688411735"/>
      <point x="935.9229317400477" y="559.358041635247"/>
      <point x="979.8006623765879" y="790.431074487337" type="curve" smooth="yes"/>
      <point x="1021.506869141435" y="1021.8725184884561"/>
      <point x="903.9419511317583" y="1174.3379285017859"/>
      <point x="650.2444492450527" y="1173.0" type="curve" smooth="yes"/>
    </contour>
    <contour>
      <point x="362.6875886404457" y="523.0" type="line" smooth="yes"/>
      <point x="349.1054049422816" y="524.5407843012226"/>
      <point x="343.6120288635773" y="555.6151688381448"/>
      <point x="348.7562852927694" y="587.431074487337" type="curve" smooth="yes"/>
      <point x="421.0503473832401" y="997.431074487337" type="line" smooth="yes"/>
      <point x="421.76721408651474" y="1028.0394514492361"/>
      <point x="436.82082766318183" y="1055.8425110008316"/>
      <point x="451.909040878929" y="1057.0" type="curve" smooth="yes"/>
      <point x="606.6579491758722" y="1057.0" type="line" smooth="yes"/>
      <point x="767.9509802605982" y="1056.0535666704632"/>
      <point x="823.5200799161174" y="951.3497218001435"/>
      <point x="795.1576170074347" y="785.568925512663" type="curve" smooth="yes"/>
      <point x="769.7388122949156" y="622.4590707575172"/>
      <point x="679.8858215559238" y="523.7218617248961"/>
      <point x="517.4364969373889" y="523.0" type="curve" smooth="yes"/>
    </contour>
  </outline>
</glyph>
<glyph name="Q" format="2">
  <advance width="1184"/>
  <unicode hex="0051"/>
  <outline>
    <contour>
      <point x="604.3044432490994" y="305.882298224813" type="curve" smooth="yes"/>
      <point x="699.1472270062435" y="100.87043893483472" type="line"/>
      <point x="717.9652718289694" y="59.925443714138666" type="line"/>
      <point x="806.6765722306716" y="-129.031979920534" type="line" smooth="yes"/>
      <point x="829.951538692757" y="-163.18693166459585"/>
      <point x="881.1530852989364" y="-165.6306463911882"/>
      <point x="938.573398700221" y="-136.8281816607416" type="curve" smooth="yes"/>
      <point x="996.4531280028183" y="-108.61474555927097"/>
      <point x="1014.5564411407024" y="-93.82344838906442"/>
      <point x="994.0417002261395" y="-59.917400732663566" type="curve" smooth="yes"/>
      <point x="791.7561673362295" y="375.09674064704063" type="line" smooth="yes"/>
      <point x="768.8414725511209" y="410.320323573967"/>
      <point x="717.3996789360544" y="412.6306463911882"/>
      <point x="659.7420661974961" y="383.901688638208" type="curve" smooth="yes"/>
      <point x="602.9233092514642" y="354.614745559271"/>
      <point x="583.9479716376983" y="340.61291809554314"/>
    </contour>
    <component base="O"/>
  </outline>
</glyph>
<glyph name="S" format="2">
  <advance width="1015"/>
  <unicode hex="0053"/>
  <outline>
    <contour>
      <point x="191.99497187001475" y="860.568925512663" type="curve" smooth="yes"/>
      <point x="167.3749604381927" y="726.0651832549127"/>
      <point x="232.87686387272095" y="661.888990590096"/>
      <point x="325.16166201458867" y="620.5627352512124" type="curve" smooth="yes"/>
      <point x="457.5544792997469" y="559.7226279705848"/>
      <point x="648.8113536782296" y="557.7848841768545"/>
      <point x="756.3136415484167" y="504.71800513194586" type="curve" smooth="yes"/>
      <point x="818.423736230816" y="472.3221771875445"/>
      <point x="848.8830584474382" y="416.6045480310651"/>
      <point x="833.4837102102775" y="324.568925512663" type="curve" smooth="yes"/>
      <point x="816.2744563868666" y="201.54542077984564"/>
      <point x="725.7277088297287" y="112.50486505354552"/>
      <point x="537.6469886661935" y="112.0" type="curve" smooth="yes"/>
      <point x="411.2697068999457" y="112.22305902796434"/>
      <point x="300.64842514639565" y="158.59907514981296"/>
      <point x="219.5892027745262" y="220.66170684301122" type="curve" smooth="yes"/>
      <point x="187.52443163366297" y="236.68144500274798"/>
      <point x="130.3765062864829" y="239.6850996174448"/>
      <point x="88.18207494932724" y="190.99987343883998" type="curve" smooth="yes"/>
      <point x="51.78028595726077" y="145.98535491180405"/>
      <point x="55.89481807133456" y="124.31798110540943"/>
      <point x="96.1621117222555" y="105.49464378072655" type="curve" smooth="yes"/>
      <point x="205.100277211434" y="33.67715753802665"/>
      <point x="354.80559084042955" y="-8.145991104817444"/>
      <point x="511.5505955213407" y="-8.0" type="curve" smooth="yes"/>
      <point x="813.1898486049312" y="-8.617938173756354"/>
      <point x="999.1125947808907" y="128.15568219811996"/>
      <point x="1038.6937133669123" y="329.431074487337" type="curve" smooth="yes"/>
      <point x="1069.7713498006754" y="500.70763240138643"/>
      <point x="985.0731738917002" y="575.6182280303028"/>
      <point x="871.5684676330446" y="621.1564576665853" type="curve" smooth="yes"/>
      <point x="725.5420622249359" y="681.2174820576261"/>
      <point x="529.4339683401421" y="680.224085286989"/>
      <point x="440.95964363306257" y="735.7649578661458" type="curve" smooth="yes"/>
      <point x="401.7954834397188" y="761.5208858384359"/>
      <point x="387.4661581812862" y="805.0269308827645"/>
      <point x="397.20497502664955" y="865.431074487337" type="curve" smooth="yes"/>
      <point x="415.0012417829819" y="992.5548895652022"/>
      <point x="505.6703691113002" y="1074.4590397317113"/>
      <point x="658.5127156286082" y="1075.0" type="curve" smooth="yes"/>
      <point x="785.8954219223577" y="1074.8638442814295"/>
      <point x="889.5515923049172" y="1039.6938434804892"/>
      <point x="972.8928451826727" y="980.6574584457829" type="curve" smooth="yes"/>
      <point x="1006.3134197555563" y="965.4861174301665"/>
      <point x="1064.0620363864066" y="963.1311845565492"/>
      <point x="1103.3898475730605" y="1011.5225391391729" type="curve" smooth="yes"/>
      <point x="1137.7644375492446" y="1058.707622243431"/>
      <point x="1132.7966960109234" y="1079.2879107458537"/>
      <point x="1090.9383530601926" y="1097.189828845871" type="curve" smooth="yes"/>
      <point x="978.1654811859758" y="1165.0819798043246"/>
      <point x="840.4349627653099" y="1195.082935230993"/>
      <point x="684.609108773461" y="1195.0" type="curve" smooth="yes"/>
      <point x="437.1180267721815" y="1195.5936734814409"/>
      <point x="234.12414474800258" y="1072.3200717786042"/>
    </contour>
  </outline>
</glyph>
<glyph name="T" format="2">
  <advance width="944"/>
  <unicode hex="0054"/>
  <outline>
    <contour>
      <point x="336.33573761173926" y="1173.0" type="line" smooth="yes"/>
      <point x="292.6222007513503" y="1173.947497476474"/>
      <point x="260.3649947731113" y="1162.1772163767141"/>
      <point x="249.99958191162108" y="1112.5689255126629" type="curve" smooth="yes"/>
      <point x="240.43823493500798" y="1063.200046928354"/>
      <point x="265.97690771339484" y="1055.7700216697406"/>
      <point x="310.9446523897203" y="1057.0" type="curve" smooth="yes"/>
      <point x="532.8590408789289" y="1057.0" type="line" smooth="yes"/>
      <point x="546.4412245770931" y="1055.4592156987774"/>
      <point x="551.9346006557973" y="1024.3848311618551"/>
      <point x="546.7903442266052" y="992.568925512663" type="curve" smooth="yes"/>
      <point x="381.0429823606482" y="52.56892551266297" type="line" smooth="yes"/>
      <point x="372.66750718546433" y="10.401273050558158"/>
      <point x="406.43441084270916" y="3.5196335395191802"/>
      <point x="469.1867301929153" y="4.0" type="curve" smooth="yes"/>
      <point x="471.1867301929153" y="4.0" type="line" smooth="yes"/>
      <point x="533.3888973327357" y="3.5958406047512987"/>
      <point x="572.2180137594765" y="14.779548258186928"/>
      <point x="582.252985517283" y="57.43107448733703" type="curve" smooth="yes"/>
      <point x="748.0003473832402" y="997.431074487337" type="line" smooth="yes"/>
      <point x="748.7172140865148" y="1028.0394514492361"/>
      <point x="763.7708276631818" y="1055.8425110008316"/>
      <point x="778.859040878929" y="1057.0" type="curve" smooth="yes"/>
      <point x="1000.7734293681377" y="1057.0" type="line" smooth="yes"/>
      <point x="1044.4869662285266" y="1056.052502523526"/>
      <point x="1076.7441722067658" y="1067.822783623286"/>
      <point x="1087.109585068256" y="1117.4310744873371" type="curve" smooth="yes"/>
      <point x="1096.670932044869" y="1166.799953071646"/>
      <point x="1071.1322592664822" y="1174.2299783302594"/>
      <point x="1026.1645145901566" y="1173.0" type="curve" smooth="yes"/>
    </contour>
  </outline>
</glyph>
<glyph name="U" format="2">
  <advance width="1030"/>
  <unicode hex="0055"/>
  <outline>
    <contour>
      <point x="1089.0633959080326" y="1183.0" type="line" smooth="yes"/>
      <point x="1026.8612287682122" y="1183.4041593952486"/>
      <point x="988.0321123414715" y="1172.2204517418131"/>
      <point x="977.9971405836649" y="1129.5689255126629" type="curve" smooth="yes"/>
      <point x="854.7445810684479" y="430.568925512663" type="line" smooth="yes"/>
      <point x="820.6519100467227" y="218.4936744529041"/>
      <point x="711.2246635755604" y="112.67789818564914"/>
      <point x="537.2171995692665" y="112.0" type="curve" smooth="yes"/>
      <point x="364.12292404657734" y="112.84689261967178"/>
      <point x="291.29641938771107" y="222.62407099543495"/>
      <point x="327.9545842250827" y="435.431074487337" type="curve" smooth="yes"/>
      <point x="451.2071437402997" y="1134.4310744873371" type="line" smooth="yes"/>
      <point x="459.5826189154836" y="1176.598726949442"/>
      <point x="425.81571525823875" y="1183.4803664604808"/>
      <point x="363.0633959080326" y="1183.0" type="curve" smooth="yes"/>
      <point x="361.0633959080326" y="1183.0" type="line" smooth="yes"/>
      <point x="298.86122876821224" y="1183.4041593952486"/>
      <point x="260.03211234147153" y="1172.2204517418131"/>
      <point x="249.99714058366493" y="1129.5689255126629" type="curve" smooth="yes"/>
      <point x="123.21804145427863" y="410.568925512663" type="line" smooth="yes"/>
      <point x="73.26029157471535" y="131.20491265493462"/>
      <point x="242.23645604019526" y="-8.842702298483184"/>
      <point x="511.1208064244138" y="-8.0" type="curve" smooth="yes"/>
      <point x="779.0959027639981" y="-8.674868234419693"/>
      <point x="998.9841979823988" y="135.09456871067525"/>
      <point x="1052.4280446109133" y="415.431074487337" type="curve" smooth="yes"/>
      <point x="1179.2071437402997" y="1134.4310744873371" type="line" smooth="yes"/>
      <point x="1187.5826189154836" y="1176.598726949442"/>
      <point x="1153.8157152582387" y="1183.4803664604808"/>
      <point x="1091.0633959080326" y="1183.0" type="curve" smooth="yes"/>
    </contour>
  </outline>
</glyph>
<glyph name="V" format="2">
  <advance width="1150"/>
  <unicode hex="0056"/>
  <outline>
    <contour>
      <point x="1115.9727123365462" y="1144.2675527216" type="curve" smooth="yes"/>
      <point x="608.8041726864896" y="220.24367244857743" type="line" smooth="yes"/>
      <point x="601.9454764884625" y="192.35037596750894"/>
      <point x="622.5023031238005" y="194.03055656853866"/>
      <point x="623.5955948929364" y="224.28423924726638" type="curve" smooth="yes"/>
      <point x="442.284446162362" y="1148.309657449642" type="line" smooth="yes"/>
      <point x="431.2529939992956" y="1188.1985648895363"/>
      <point x="383.67576307223203" y="1193.0401456176191"/>
      <point x="321.59910451566134" y="1175.656823280535" type="curve" smooth="yes"/>
      <point x="259.6440177950365" y="1158.7692370383497"/>
      <point x="228.2880165401682" y="1145.1650367994778"/>
      <point x="237.8126155203499" y="1105.752021955557" type="curve" smooth="yes"/>
      <point x="449.90543718636206" y="45.75046700330312" type="line" smooth="yes"/>
      <point x="462.74684000164154" y="3.140006848025905"/>
      <point x="508.6007019595475" y="-8.298097449379545"/>
      <point x="570.9374812324336" y="-8.0" type="curve" smooth="yes"/>
      <point x="632.9207113215758" y="-8.259548021685342"/>
      <point x="682.0032065434318" y="5.618713676634345"/>
      <point x="712.1512653749435" y="49.775257661141566" type="curve" smooth="yes"/>
      <point x="1298.0567295402923" y="1109.7763630380596" type="line" smooth="yes"/>
      <point x="1325.4541065510325" y="1150.0138628916438"/>
      <point x="1305.10697532763" y="1159.4937654658452"/>
      <point x="1248.225584526905" y="1175.8178039472923" type="curve" smooth="yes"/>
      <point x="1191.6647041107801" y="1193.0423738532884"/>
      <point x="1143.2830269318083" y="1185.586105083597"/>
    </contour>
  </outline>
</glyph>
<glyph name="W" format="2">
  <advance width="1195"/>
  <unicode hex="0057"/>
  <outline>
    <contour>
      <point x="1166.3930737200087" y="1134.9343347850106" type="curve" smooth="yes"/>
      <point x="913.4983633939178" y="301.5514435550624" type="line" smooth="yes"/>
      <point x="909.3294228906573" y="272.421352496176"/>
      <point x="942.0222922726493" y="271.68383750637753"/>
      <point x="941.552238119941" y="300.83691041150604" type="curve" smooth="yes"/>
      <point x="846.0388036198616" y="842.5730774843762" type="line" smooth="yes"/>
      <point x="838.5694299357694" y="864.033518121456"/>
      <point x="803.1659691226565" y="871.3382159642395"/>
      <point x="753.4855228440545" y="871.0" type="curve" smooth="yes"/>
      <point x="704.2029485002207" y="871.2920085488068"/>
      <point x="666.9429815869746" y="861.4860700530915"/>
      <point x="649.446915666983" y="838.4567394349311" type="curve" smooth="yes"/>
      <point x="362.8909986807636" y="296.72167187421275" type="line" smooth="yes"/>
      <point x="354.7803775420389" y="269.38585730820085"/>
      <point x="387.65826653124134" y="275.89325623678565"/>
      <point x="390.2397798275998" y="306.3047107732202" type="curve" smooth="yes"/>
      <point x="431.24120241511764" y="1139.687554283975" type="line" smooth="yes"/>
      <point x="432.8626998127749" y="1182.7795430529552"/>
      <point x="393.85213604966657" y="1188.125313738172"/>
      <point x="330.38482969566047" y="1182.089693695465" type="curve" smooth="yes"/>
      <point x="267.65752996103015" y="1175.7565652473315"/>
      <point x="229.95009270604248" y="1164.4873501580073"/>
      <point x="227.2935560967492" y="1121.4714086776323" type="curve" smooth="yes"/>
      <point x="186.0369854897152" y="42.46797705312822" type="line" smooth="yes"/>
      <point x="185.9317842616857" y="-1.2330614881953652"/>
      <point x="230.21271671213196" y="-8.298939993692304"/>
      <point x="286.5569513414768" y="-8.0" type="curve" smooth="yes"/>
      <point x="343.34872668715656" y="-8.351775463038301"/>
      <point x="393.1209102980787" y="7.535128628082205"/>
      <point x="420.99350502200076" y="49.55366741049483" type="curve" smooth="yes"/>
      <point x="707.3548916179062" y="590.2926936251209" type="line" smooth="yes"/>
      <point x="714.0903234404898" y="618.316546056633"/>
      <point x="691.8404074343208" y="616.496624459442"/>
      <point x="690.7504511797201" y="586.1796837865498" type="curve" smooth="yes"/>
      <point x="786.416564559076" y="45.441316104395256" type="line" smooth="yes"/>
      <point x="797.5684773309354" y="5.001535720160525"/>
      <point x="843.2859613176787" y="-8.413315881460209"/>
      <point x="900.5569513414767" y="-8.0" type="curve" smooth="yes"/>
      <point x="956.5466994533947" y="-8.26023387294961"/>
      <point x="1003.5302218797633" y="2.1411262826053914"/>
      <point x="1022.8196346886737" y="47.2016940773571" type="curve" smooth="yes"/>
      <point x="1362.0747022273563" y="1126.2046787686568" type="line" smooth="yes"/>
      <point x="1378.5604671559001" y="1169.1700577199097"/>
      <point x="1347.5349070860607" y="1175.956627273933"/>
      <point x="1286.3827214723115" y="1182.0972670430401" type="curve" smooth="yes"/>
      <point x="1225.065001913192" y="1188.114341277201"/>
      <point x="1183.1573936243599" y="1178.8946386544535"/>
    </contour>
  </outline>
</glyph>
<glyph name="X" format="2">
  <advance width="1049"/>
  <unicode hex="0058"/>
  <outline>
    <contour>
      <point x="1007.2658909675749" y="1162.9995360622195" type="curve" smooth="yes"/>
      <point x="666.6112646046264" y="755.8224046329743" type="line" smooth="yes"/>
      <point x="657.198859185557" y="731.0438855365276"/>
      <point x="657.2786512147945" y="731.5462370248019"/>
      <point x="656.935367359156" y="758.6143988015073" type="curve" smooth="yes"/>
      <point x="458.53188818304204" y="1165.8434517316273" type="line" smooth="yes"/>
      <point x="430.93030287488443" y="1199.9116663218565"/>
      <point x="378.75666440567755" y="1196.5358713178946"/>
      <point x="320.7573789843989" y="1174.0923155130745" type="curve" smooth="yes"/>
      <point x="265.72069595181733" y="1154.7208845129499"/>
      <point x="238.2307739571922" y="1138.8241083972237"/>
      <point x="261.99037729769407" y="1104.3811004996803" type="curve" smooth="yes"/>
      <point x="493.8922131989598" y="650.5817300107386" type="line" smooth="yes"/>
      <point x="501.81961424777245" y="624.2076364525675"/>
      <point x="497.1722598236654" y="580.6383427745626"/>
      <point x="483.2152670153432" y="556.1325876927488" type="curve" smooth="yes"/>
      <point x="64.66587987857247" y="79.77221182368181" type="line" smooth="yes"/>
      <point x="26.122760917801834" y="43.67109240708642"/>
      <point x="37.72321769399962" y="30.834205451039622"/>
      <point x="87.0279902569399" y="12.556725869415121" type="curve" smooth="yes"/>
      <point x="137.30614448065467" y="-9.708063962782976"/>
      <point x="187.5931881033653" y="-13.027208543468074"/>
      <point x="227.98892411760932" y="24.061999770485816" type="curve" smooth="yes"/>
      <point x="594.589951623373" y="455.8711332301288" type="line" smooth="yes"/>
      <point x="604.1309936047782" y="480.49106917892715"/>
      <point x="604.8617577296259" y="480.0708914578175"/>
      <point x="605.3569964979736" y="453.2457779812842" type="curve" smooth="yes"/>
      <point x="822.9265552627929" y="21.273008017587202" type="line" smooth="yes"/>
      <point x="849.2446659445194" y="-13.911666321856522"/>
      <point x="902.7741007473087" y="-9.563781719872539"/>
      <point x="960.5939168157133" y="12.907684486925591" type="curve" smooth="yes"/>
      <point x="1015.8060581575226" y="32.20903330913204"/>
      <point x="1043.2968488236286" y="49.17589160277636"/>
      <point x="1019.1947889061422" y="82.44714870058847" type="curve" smooth="yes"/>
      <point x="767.6312138810671" y="558.3054447735101" type="line" smooth="yes"/>
      <point x="759.5689430455637" y="584.5140277552968"/>
      <point x="763.9337689416824" y="628.0998042161646"/>
      <point x="777.7644994955117" y="652.7710549363535" type="curve" smooth="yes"/>
      <point x="1170.7880751310995" y="1107.164335035616" type="line" smooth="yes"/>
      <point x="1210.2285348823102" y="1143.3289075929135"/>
      <point x="1197.4402133715203" y="1156.0643414215508"/>
      <point x="1148.3233055431722" y="1174.4432741305848" type="curve" smooth="yes"/>
      <point x="1097.7324232147193" y="1196.6535511782702"/>
      <point x="1047.5817807160386" y="1199.027208543468"/>
    </contour>
  </outline>
</glyph>
<glyph name="Y" format="2">
  <advance width="910"/>
  <unicode hex="0059"/>
  <outline>
    <contour>
      <point x="919.8008179874826" y="1163.9253053300965" type="curve" smooth="yes"/>
      <point x="577.8154288521465" y="680.3320014884952" type="line" smooth="yes"/>
      <point x="569.6698775198546" y="653.9752450918365"/>
      <point x="577.8492969088726" y="654.8488337001965"/>
      <point x="578.5004034506723" y="683.7150323845248" type="curve" smooth="yes"/>
      <point x="406.69032132208093" y="1167.3445341481797" type="line" smooth="yes"/>
      <point x="391.80719812433836" y="1196.0273093755761"/>
      <point x="343.3920304353978" y="1196.5245946734979"/>
      <point x="295.5662464664854" y="1174.6927926463873" type="curve" smooth="yes"/>
      <point x="245.9694652614037" y="1152.791986976396"/>
      <point x="227.6446256924214" y="1136.5821910502484"/>
      <point x="241.8372900972559" y="1100.348230570355" type="curve" smooth="yes"/>
      <point x="427.04345742078584" y="533.9692328029943" type="line" smooth="yes"/>
      <point x="433.4873058317919" y="509.01773456815545"/>
      <point x="435.8077511207073" y="463.7977690893411"/>
      <point x="431.707164369071" y="436.31157077633486" type="curve" smooth="yes"/>
      <point x="364.04298236064824" y="52.56892551266297" type="line" smooth="yes"/>
      <point x="355.6675071854644" y="10.401273050558158"/>
      <point x="389.4344108427092" y="3.5196335395191802"/>
      <point x="452.1867301929154" y="4.0" type="curve" smooth="yes"/>
      <point x="454.1867301929154" y="4.0" type="line" smooth="yes"/>
      <point x="516.3888973327357" y="3.5958406047512987"/>
      <point x="555.2180137594765" y="14.779548258186935"/>
      <point x="565.252985517283" y="57.43107448733702" type="curve" smooth="yes"/>
      <point x="633.0424657967568" y="441.8843215576495" type="line" smooth="yes"/>
      <point x="636.6479168034423" y="469.224081438817"/>
      <point x="652.800362783775" y="513.9255507285072"/>
      <point x="666.5574148295938" y="538.1927157149398" type="curve" smooth="yes"/>
      <point x="1051.3578804153042" y="1103.8719435640403" type="line" smooth="yes"/>
      <point x="1081.0806139672072" y="1141.1351272993127"/>
      <point x="1077.4458143032068" y="1154.8740045095633"/>
      <point x="1035.0190749983178" y="1175.3714895091832" type="curve" smooth="yes"/>
      <point x="994.026438850893" y="1196.654683660307"/>
      <point x="947.0206182425627" y="1194.2909370800082"/>
    </contour>
  </outline>
</glyph>
<glyph name="Z" format="2">
  <advance width="1016"/>
  <unicode hex="005A"/>
  <outline>
    <contour>
      <point x="360.3001261009479" y="1173.0" type="line" smooth="yes"/>
      <point x="307.8146476794654" y="1173.5927660109062"/>
      <point x="269.85642257626296" y="1161.509559543111"/>
      <point x="258.9995819116211" y="1112.5689255126629" type="curve" smooth="yes"/>
      <point x="249.50585482943382" y="1064.0286344810233"/>
      <point x="281.6216936622038" y="1056.2697712107026"/>
      <point x="334.909040878929" y="1057.0" type="curve" smooth="yes"/>
      <point x="852.4111771093977" y="1057.0" type="line" smooth="yes"/>
      <point x="864.7722387469903" y="1055.0997156781855"/>
      <point x="859.4060477925018" y="1020.4674285668473"/>
      <point x="846.5715010679467" y="994.290855816692" type="curve" smooth="yes"/>
      <point x="75.89150695761467" y="101.85143565692731" type="line" smooth="yes"/>
      <point x="64.51977003966856" y="90.69897771811316"/>
      <point x="52.77872347928197" y="81.1433151205426"/>
      <point x="48.385233109858206" y="65.56892551266297" type="curve" smooth="yes"/>
      <point x="39.274835453194484" y="19.23250055937727"/>
      <point x="72.50904038598878" y="13.406346346449318"/>
      <point x="125.0" y="14.0" type="curve" smooth="yes"/>
      <point x="891.0" y="14.0" type="line" smooth="yes"/>
      <point x="943.4854784214825" y="13.407233989093736"/>
      <point x="981.443703524685" y="25.490440456889026"/>
      <point x="992.300544189327" y="74.43107448733701" type="curve" smooth="yes"/>
      <point x="1001.7942712715142" y="122.97136551897665"/>
      <point x="969.6784324387442" y="130.73022878929734"/>
      <point x="916.391085222019" y="130.0" type="curve" smooth="yes"/>
      <point x="355.89108522201894" y="130.0" type="line" smooth="yes"/>
      <point x="343.52971324885317" y="131.90018706246371"/>
      <point x="348.8978503352769" y="166.53267712346027"/>
      <point x="361.7344511058209" y="192.70584722150633" type="curve" smooth="yes"/>
      <point x="1136.1073397717053" y="1089.1526714482657" type="line" smooth="yes"/>
      <point x="1147.3817516682857" y="1097.3002868969575"/>
      <point x="1155.527184769902" y="1106.772009106698"/>
      <point x="1158.9148929910896" y="1121.4310744873371" type="curve" smooth="yes"/>
      <point x="1168.0252906477535" y="1167.7674994406227"/>
      <point x="1134.791085714959" y="1173.5936536535507"/>
      <point x="1082.3001261009479" y="1173.0" type="curve" smooth="yes"/>
    </contour>
  </outline>
</glyph>
<glyph name="bracketleft" format="2">
  <advance width="681"/>
  <unicode hex="005B"/>
  <outline>
    <contour>
      <point x="385.9206175320139" y="1358.0" type="line" smooth="yes"/>
      <point x="334.096301321147" y="1358.4908519479789"/>
      <point x="295.95760757982515" y="1348.3505769848823"/>
      <point x="285.3253812655209" y="1301.5689255126629" type="curve" smooth="yes"/>
      <point x="8.668348533939369" y="-267.431074487337" type="line" smooth="yes"/>
      <point x="-0.4420491227243595" y="-313.7674994406227"/>
      <point x="32.79215581006995" y="-319.5936536535507"/>
      <point x="85.28311542408116" y="-319.0" type="curve" smooth="yes"/>
      <point x="499.2831154240812" y="-319.0" type="line" smooth="yes"/>
      <point x="551.7685938455637" y="-319.59276601090625"/>
      <point x="589.7268189487661" y="-307.509559543111"/>
      <point x="600.5836596134081" y="-258.568925512663" type="curve" smooth="yes"/>
      <point x="610.0773866955952" y="-210.02863448102337"/>
      <point x="577.9615478628252" y="-202.26977121070266"/>
      <point x="524.6742006461001" y="-203.0" type="curve" smooth="yes"/>
      <point x="245.67420064610013" y="-203.0" type="line" smooth="yes"/>
      <point x="232.09201694793606" y="-201.4592156987774"/>
      <point x="226.5986408692317" y="-170.38483116185512"/>
      <point x="231.74289729842383" y="-138.568925512663" type="curve" smooth="yes"/>
      <point x="464.6708388143061" y="1182.4310744873371" type="line" smooth="yes"/>
      <point x="465.3877055175808" y="1213.0394514492361"/>
      <point x="480.44131909424783" y="1240.8425110008316"/>
      <point x="495.529532309995" y="1242.0" type="curve" smooth="yes"/>
      <point x="774.5295323099949" y="1242.0" type="line" smooth="yes"/>
      <point x="827.0150107314774" y="1241.4072339890938"/>
      <point x="864.9732358346799" y="1253.490440456889"/>
      <point x="875.830076499322" y="1302.4310744873371" type="curve" smooth="yes"/>
      <point x="885.3238035815091" y="1350.9713655189767"/>
      <point x="853.2079647487391" y="1358.7302287892974"/>
      <point x="799.9206175320139" y="1358.0" type="curve" smooth="yes"/>
    </contour>
  </outline>
</glyph>
<glyph name="backslash" format="2">
  <advance width="1017"/>
  <unicode hex="005C"/>
  <outline>
    <contour>
      <point x="303.54667807998413" y="1327.1700077943135" type="curve" smooth="yes"/>
      <point x="685.8440256970365" y="-315.82402921106086" type="line" smooth="yes"/>
      <point x="695.5668061263049" y="-331.6697284088583"/>
      <point x="730.7816720066971" y="-341.5224839607835"/>
      <point x="769.8183961963485" y="-341.0" type="curve" smooth="yes"/>
      <point x="839.6427124072155" y="-341.4908519479789"/>
      <point x="902.9113971144784" y="-318.2743059044612"/>
      <point x="896.4860035718182" y="-288.1700077943134" type="curve" smooth="yes"/>
      <point x="514.1886559547657" y="1354.8240292110609" type="line" smooth="yes"/>
      <point x="504.46587552549744" y="1370.6697284088582"/>
      <point x="469.25100964510517" y="1380.5224839607836"/>
      <point x="430.21428545545376" y="1380.0" type="curve" smooth="yes"/>
      <point x="360.38996924458684" y="1380.4908519479789"/>
      <point x="297.1212845373239" y="1357.2743059044612"/>
    </contour>
  </outline>
</glyph>
<glyph name="bracketright" format="2">
  <advance width="681"/>
  <unicode hex="005D"/>
  <outline>
    <contour>
      <point x="110.67420064610012" y="-203.0" type="line" smooth="yes"/>
      <point x="58.18872222461758" y="-202.40723398909373"/>
      <point x="20.230497121415144" y="-214.49044045688902"/>
      <point x="9.373656456773226" y="-263.431074487337" type="curve" smooth="yes"/>
      <point x="-0.12007062541398028" y="-311.97136551897665"/>
      <point x="31.995768207356008" y="-319.7302287892973"/>
      <point x="85.28311542408116" y="-319.0" type="curve" smooth="yes"/>
      <point x="499.2831154240812" y="-319.0" type="line" smooth="yes"/>
      <point x="551.1074316349482" y="-319.4908519479789"/>
      <point x="589.24612537627" y="-309.35057698488237"/>
      <point x="599.8783516905743" y="-262.568925512663" type="curve" smooth="yes"/>
      <point x="876.5353844221557" y="1306.4310744873371" type="line" smooth="yes"/>
      <point x="885.6457820788195" y="1352.7674994406227"/>
      <point x="852.4115771460251" y="1358.5936536535507"/>
      <point x="799.9206175320139" y="1358.0" type="curve" smooth="yes"/>
      <point x="385.9206175320139" y="1358.0" type="line" smooth="yes"/>
      <point x="333.4351391105314" y="1358.5927660109062"/>
      <point x="295.47691400732896" y="1346.509559543111"/>
      <point x="284.6200733426871" y="1297.5689255126629" type="curve" smooth="yes"/>
      <point x="275.1263462604998" y="1249.0286344810233"/>
      <point x="307.2421850932698" y="1241.2697712107026"/>
      <point x="360.529532309995" y="1242.0" type="curve" smooth="yes"/>
      <point x="639.5295323099949" y="1242.0" type="line" smooth="yes"/>
      <point x="653.1117160081591" y="1240.4592156987774"/>
      <point x="658.6050920868635" y="1209.3848311618551"/>
      <point x="653.4608356576713" y="1177.5689255126629" type="curve" smooth="yes"/>
      <point x="420.53289414178903" y="-143.431074487337" type="line" smooth="yes"/>
      <point x="419.8160274385143" y="-174.0394514492362"/>
      <point x="404.76241386184734" y="-201.84251100083156"/>
      <point x="389.67420064610013" y="-203.0" type="curve" smooth="yes"/>
    </contour>
  </outline>
</glyph>
<glyph name="asciicircum" format="2">
  <advance width="903"/>
  <unicode hex="005E"/>
  <outline>
    <contour>
      <point x="569.0673572767522" y="1163.984796789859" type="curve" smooth="yes"/>
      <point x="156.85459726603693" y="572.9875075314666" type="line" smooth="yes"/>
      <point x="128.19101908458808" y="546.5971629081931"/>
      <point x="161.87371276593404" y="531.6040929428441"/>
      <point x="202.14321978105522" y="522.2608216354889" type="curve" smooth="yes"/>
      <point x="241.3991720042029" y="510.90868523080735"/>
      <point x="300.02938071920704" y="512.6507349872934"/>
      <point x="329.2385662057324" y="534.8047980407937" type="curve" smooth="yes"/>
      <point x="622.0500935907364" y="971.753675568609" type="line" smooth="yes"/>
      <point x="629.8583561987916" y="998.5261272687931"/>
      <point x="619.0105351854278" y="997.5011414105628"/>
      <point x="618.1709157554304" y="968.1960909755276" type="curve" smooth="yes"/>
      <point x="756.8749072367466" y="531.2402175758716" type="line" smooth="yes"/>
      <point x="778.0436808230834" y="511.22435982116065"/>
      <point x="840.4885658009655" y="509.886707778097"/>
      <point x="885.2145930426524" y="523.2197861359064" type="curve" smooth="yes"/>
      <point x="924.9393918436224" y="534.0718930673827"/>
      <point x="966.1771535493108" y="552.1687897622992"/>
      <point x="954.7575009885911" y="576.4399307784252" type="curve" smooth="yes"/>
      <point x="750.9582745832525" y="1167.4267105280544" type="line" smooth="yes"/>
      <point x="739.8378440247018" y="1188.73156159887"/>
      <point x="710.1348530289588" y="1195.4073364474593"/>
      <point x="664.9087147664719" y="1195.0" type="curve" smooth="yes"/>
      <point x="620.1553895053809" y="1195.347061097625"/>
      <point x="588.8614315325789" y="1186.3039723047214"/>
    </contour>
  </outline>
</glyph>
<glyph name="underscore" format="2">
  <advance width="1272"/>
  <unicode hex="005F"/>
  <outline>
    <contour>
      <point x="111.09458180359222" y="-263.0" type="line" smooth="yes"/>
      <point x="58.60910338210969" y="-262.40723398909375"/>
      <point x="20.65087827890724" y="-274.490440456889"/>
      <point x="9.794037614265328" y="-323.431074487337" type="curve" smooth="yes"/>
      <point x="0.30031053207812874" y="-371.97136551897665"/>
      <point x="32.41614936484811" y="-379.7302287892973"/>
      <point x="85.70349658157326" y="-379.0" type="curve" smooth="yes"/>
      <point x="1047.7034965815733" y="-379.0" type="line" smooth="yes"/>
      <point x="1100.188975003056" y="-379.59276601090625"/>
      <point x="1138.1472001062582" y="-367.509559543111"/>
      <point x="1149.0040407709" y="-318.568925512663" type="curve" smooth="yes"/>
      <point x="1158.4977678530872" y="-270.02863448102335"/>
      <point x="1126.3819290203176" y="-262.2697712107027"/>
      <point x="1073.0945818035923" y="-263.0" type="curve" smooth="yes"/>
    </contour>
  </outline>
</glyph>
<glyph name="b" format="2">
  <advance width="1033"/>
  <unicode hex="0062"/>
  <outline>
    <contour>
      <point x="375.1042684965907" y="1308.0" type="line" smooth="yes"/>
      <point x="312.90210135677034" y="1308.4041593952486"/>
      <point x="274.07298493002963" y="1297.2204517418131"/>
      <point x="264.0380131722231" y="1254.5689255126629" type="curve" smooth="yes"/>
      <point x="52.092982360648165" y="52.56892551266297" type="line" smooth="yes"/>
      <point x="43.6500972589113" y="9.975201567586076"/>
      <point x="75.00858419509558" y="3.4481122861464897"/>
      <point x="135.23673019291536" y="4.0" type="curve" smooth="yes"/>
      <point x="137.23673019291536" y="4.0" type="line" smooth="yes"/>
      <point x="196.84070536269965" y="3.5408625680968786"/>
      <point x="233.53721141155225" y="14.448438840621328"/>
      <point x="243.30298551728296" y="57.43107448733703" type="curve" smooth="yes"/>
      <point x="252.8140628566976" y="111.37107448733703" type="line" smooth="yes"/>
      <point x="252.83461920516368" y="137.12404071938676"/>
      <point x="229.52668993819395" y="145.50054486819153"/>
      <point x="229.99626861594297" y="124.11140852636545" type="curve" smooth="yes"/>
      <point x="279.2845072576482" y="51.13081580492189"/>
      <point x="391.35856990579094" y="-8.481803692921531"/>
      <point x="531.1208064244138" y="-8.0" type="curve" smooth="yes"/>
      <point x="787.6488101590015" y="-8.973935983254732"/>
      <point x="1015.9513001170167" y="166.78843146662095"/>
      <point x="1072.068066665628" y="464.431074487337" type="curve" smooth="yes"/>
      <point x="1125.200187921704" y="761.2309929292012"/>
      <point x="959.619941939689" y="933.2685550638602"/>
      <point x="701.8053237502079" y="932.0" type="curve" smooth="yes"/>
      <point x="562.4064408674939" y="932.430616476786"/>
      <point x="438.5105619439377" y="871.6362864251814"/>
      <point x="373.24370855046004" y="809.0701526720052" type="curve" smooth="yes"/>
      <point x="361.6892885634508" y="786.0849879895704"/>
      <point x="384.7005653018857" y="799.7358978964874"/>
      <point x="389.78006858563487" y="831.431074487337" type="curve" smooth="yes"/>
      <point x="465.2480163288579" y="1259.4310744873371" type="line" smooth="yes"/>
      <point x="473.6234915040417" y="1301.598726949442"/>
      <point x="439.85658784679686" y="1308.4803664604808"/>
      <point x="377.1042684965907" y="1308.0" type="curve" smooth="yes"/>
    </contour>
    <contour>
      <point x="866.8580635089934" y="459.568925512663" type="curve" smooth="yes"/>
      <point x="834.5444129177251" y="259.8516866132281"/>
      <point x="717.5355752228222" y="113.23604321964251"/>
      <point x="547.2171995692665" y="112.0" type="curve" smooth="yes"/>
      <point x="380.5860520021635" y="113.16148129661629"/>
      <point x="287.52377559508716" y="247.1151781383219"/>
      <point x="325.06806666562824" y="464.431074487337" type="curve" smooth="yes"/>
      <point x="359.4982621991466" y="680.8704368563527"/>
      <point x="497.88195445464675" y="811.0997371217935"/>
      <point x="665.708930605355" y="812.0" type="curve" smooth="yes"/>
      <point x="834.4304762175665" y="810.3405183242784"/>
      <point x="901.2609119688228" y="659.8889888697205"/>
    </contour>
  </outline>
</glyph>
<glyph name="c" format="2">
  <advance width="1062"/>
  <unicode hex="0063"/>
  <outline>
    <contour>
      <point x="123.85806350899342" y="459.568925512663" type="curve" smooth="yes"/>
      <point x="75.20782174867293" y="187.95890468406483"/>
      <point x="243.16492161459445" y="-9.303622840342857"/>
      <point x="546.1208064244138" y="-8.0" type="curve" smooth="yes"/>
      <point x="702.1466348521406" y="-8.168845182055195"/>
      <point x="869.489073944997" y="39.75261493360674"/>
      <point x="994.7774420034294" y="117.76711041850469" type="curve" smooth="yes"/>
      <point x="1039.6053367297543" y="140.25615807020637"/>
      <point x="1060.3924623423586" y="166.0969681876614"/>
      <point x="1038.7275259602723" y="208.60705948502752" type="curve" smooth="yes"/>
      <point x="1010.3945838615101" y="251.97348613666358"/>
      <point x="949.0352677801939" y="244.9589619104332"/>
      <point x="913.1939509713884" y="225.41406293951826" type="curve" smooth="yes"/>
      <point x="808.7577870936877" y="151.35523050425417"/>
      <point x="690.2746346863054" y="112.161892738738"/>
      <point x="572.2171995692665" y="112.0" type="curve" smooth="yes"/>
      <point x="388.3026747295999" y="113.33627933025785"/>
      <point x="298.53650792631413" y="264.1542544283135"/>
      <point x="333.06806666562824" y="464.431074487337" type="curve" smooth="yes"/>
      <point x="364.52951116235937" y="663.8428231400559"/>
      <point x="505.45170532345094" y="810.9799204734093"/>
      <point x="690.708930605355" y="812.0" type="curve" smooth="yes"/>
      <point x="799.2316247365217" y="811.8742255716144"/>
      <point x="893.7681778245037" y="781.4676310221766"/>
      <point x="976.4959362805874" y="711.9889854006211" type="curve" smooth="yes"/>
      <point x="1007.6275405379331" y="694.0422907617825"/>
      <point x="1066.3303600283239" y="689.5176895366283"/>
      <point x="1107.8265929659897" y="737.0406175119808" type="curve" smooth="yes"/>
      <point x="1145.4157710912457" y="781.8211465964923"/>
      <point x="1139.6158394423858" y="805.7676943360976"/>
      <point x="1100.7723293980412" y="824.7054044505106" type="curve" smooth="yes"/>
      <point x="997.6353150490614" y="896.4054703724761"/>
      <point x="862.3420343999467" y="932.1301288148153"/>
      <point x="716.8053237502079" y="932.0" type="curve" smooth="yes"/>
      <point x="415.1652220485501" y="932.9978714715007"/>
      <point x="175.7066355458013" y="732.0773642581058"/>
    </contour>
  </outline>
</glyph>
<glyph name="d" format="2">
  <advance width="1017"/>
  <unicode hex="0064"/>
  <outline>
    <contour>
      <point x="1114.1042684965907" y="1308.0" type="line" smooth="yes"/>
      <point x="1051.9021013567703" y="1308.4041593952486"/>
      <point x="1013.0729849300296" y="1297.2204517418131"/>
      <point x="1003.038013172223" y="1254.5689255126629" type="curve" smooth="yes"/>
      <point x="927.570065429" y="826.568925512663" type="line" smooth="yes"/>
      <point x="926.7564808575389" y="796.0417373218658"/>
      <point x="946.7004273042081" y="786.5599413644827"/>
      <point x="943.9644967253951" y="811.495895472211" type="curve" smooth="yes"/>
      <point x="900.7442684955661" y="872.922190090268"/>
      <point x="796.7900379943296" y="932.5146420452231"/>
      <point x="656.8053237502079" y="932.0" type="curve" smooth="yes"/>
      <point x="400.2773200156202" y="932.9739359832547"/>
      <point x="171.97483005760492" y="757.211568533379"/>
      <point x="115.85806350899342" y="459.568925512663" type="curve" smooth="yes"/>
      <point x="62.725942252917676" y="162.76900707079878"/>
      <point x="228.30618823493262" y="-9.268555063860145"/>
      <point x="486.1208064244138" y="-8.0" type="curve" smooth="yes"/>
      <point x="625.3313868657444" y="-8.405272985649473"/>
      <point x="757.3336944990114" y="52.39530768359155"/>
      <point x="832.7894650229122" y="126.60030883595168" type="curve" smooth="yes"/>
      <point x="840.7354163810165" y="146.01762979929447"/>
      <point x="814.8201676175704" y="133.4125492118711"/>
      <point x="810.6040597000627" y="106.50892551266297" type="curve" smooth="yes"/>
      <point x="801.0929823606481" y="52.56892551266298" type="line" smooth="yes"/>
      <point x="792.6500972589114" y="9.975201567586094"/>
      <point x="824.0085841950956" y="3.4481122861464897"/>
      <point x="884.2367301929154" y="4.0" type="curve" smooth="yes"/>
      <point x="886.2367301929154" y="4.0" type="line" smooth="yes"/>
      <point x="945.8407053626997" y="3.5408625680968786"/>
      <point x="982.5372114115523" y="14.448438840621321"/>
      <point x="992.302985517283" y="57.43107448733703" type="curve" smooth="yes"/>
      <point x="1204.2480163288578" y="1259.4310744873371" type="line" smooth="yes"/>
      <point x="1212.6234915040418" y="1301.598726949442"/>
      <point x="1178.8565878467969" y="1308.4803664604808"/>
      <point x="1116.1042684965907" y="1308.0" type="curve" smooth="yes"/>
    </contour>
    <contour>
      <point x="862.8580635089934" y="459.568925512663" type="curve" smooth="yes"/>
      <point x="828.4278679754749" y="243.1295631436473"/>
      <point x="690.0441757199748" y="112.90026287820652"/>
      <point x="522.2171995692665" y="112.0" type="curve" smooth="yes"/>
      <point x="353.4956539570552" y="113.65948167572161"/>
      <point x="286.66521820579885" y="264.1110111302795"/>
      <point x="321.06806666562824" y="464.431074487337" type="curve" smooth="yes"/>
      <point x="353.38171725689654" y="664.1483133867719"/>
      <point x="470.39055495179934" y="810.7639567803575"/>
      <point x="640.708930605355" y="812.0" type="curve" smooth="yes"/>
      <point x="807.3400781724581" y="810.8385187033837"/>
      <point x="900.4023545795344" y="676.8848218616781"/>
    </contour>
  </outline>
</glyph>
<glyph name="e" format="2">
  <advance width="1077"/>
  <unicode hex="0065"/>
  <outline>
    <contour>
      <point x="123.85806350899342" y="459.568925512663" type="curve" smooth="yes"/>
      <point x="70.7169916704975" y="163.2179303395607"/>
      <point x="216.79175438528512" y="-9.152182623906825"/>
      <point x="519.1208064244138" y="-8.0" type="curve" smooth="yes"/>
      <point x="677.1489527843281" y="-8.095276407828242"/>
      <point x="842.5305075960314" y="28.340565464792796"/>
      <point x="958.0296565225441" y="77.7912540097378" type="curve" smooth="yes"/>
      <point x="1008.3480962629277" y="95.8809273332316"/>
      <point x="1036.2551219633535" y="117.72799019438945"/>
      <point x="1027.1114461739853" y="159.39651759210858" type="curve" smooth="yes"/>
      <point x="1015.7888984294838" y="202.4071054190079"/>
      <point x="964.7315325436554" y="217.0"/>
      <point x="907.9219197793752" y="196.5608963104915" type="curve" smooth="yes"/>
      <point x="810.7739753001858" y="142.81336250906918"/>
      <point x="675.5884293082286" y="109.09985441250748"/>
      <point x="544.6882186271412" y="109.0" type="curve" smooth="yes"/>
      <point x="368.7876622803369" y="109.88539227771005"/>
      <point x="296.76951875931644" y="221.3403074632329"/>
      <point x="316.6778270884836" y="378.81452022326573" type="curve" smooth="yes"/>
      <point x="316.4177383068819" y="409.6437926270582"/>
      <point x="330.0325848247826" y="437.79957046136343"/>
      <point x="344.93896680109765" y="439.0" type="curve" smooth="yes"/>
      <point x="1020.9389668010976" y="439.0" type="line" smooth="yes"/>
      <point x="1072.1589765756655" y="438.59347703859737"/>
      <point x="1113.497441551456" y="447.9202183131727"/>
      <point x="1120.6907440246216" y="488.6467762748297" type="curve" smooth="yes"/>
      <point x="1152.3084792809284" y="750.3620097739715"/>
      <point x="1017.7266187399129" y="933.294985271929"/>
      <point x="709.8053237502079" y="932.0" type="curve" smooth="yes"/>
      <point x="421.58768589130693" y="932.9093460181164"/>
      <point x="178.29595832341775" y="745.9643058755227"/>
    </contour>
    <contour>
      <point x="920.138256015415" y="612.3297198069313" type="curve" smooth="yes"/>
      <point x="922.8447252102455" y="581.2449633428034"/>
      <point x="913.1167905407104" y="552.3016393617327"/>
      <point x="898.6247441002827" y="551.0" type="curve" smooth="yes"/>
      <point x="379.6247441002827" y="551.0" type="line" smooth="yes"/>
      <point x="366.9205502677301" y="552.7946168579211"/>
      <point x="366.36295973406595" y="585.8835152517674"/>
      <point x="374.53034019350605" y="617.042998299202" type="curve" smooth="yes"/>
      <point x="409.99306899553596" y="721.291625160894"/>
      <point x="525.7782660438426" y="814.3983151924558"/>
      <point x="684.2379115474805" y="815.0" type="curve" smooth="yes"/>
      <point x="852.0965724995614" y="814.2959510958561"/>
      <point x="921.4077553617594" y="720.7973767901082"/>
    </contour>
  </outline>
</glyph>
<glyph name="g" format="2">
  <advance width="1017"/>
  <unicode hex="0067"/>
  <outline>
    <contour>
      <point x="120.26623802670501" y="484.568925512663" type="curve" smooth="yes"/>
      <point x="69.88530464866614" y="203.03889659443664"/>
      <point x="237.6593164882165" y="40.85971998498796"/>
      <point x="494.937155459837" y="42.0" type="curve" smooth="yes"/>
      <point x="633.7599844729007" y="41.644392925137495"/>
      <point x="757.5669143316434" y="96.5919305623226"/>
      <point x="821.5119468434452" y="156.25119003041354" type="curve" smooth="yes"/>
      <point x="833.1130574357697" y="179.08905076419606"/>
      <point x="810.4755231283981" y="165.30286324588477"/>
      <point x="805.3754677980338" y="133.568925512663" type="curve" smooth="yes"/>
      <point x="778.3974397496387" y="-19.431074487337025" type="line" smooth="yes"/>
      <point x="755.2009356128913" y="-170.64819523483473"/>
      <point x="663.6125079382307" y="-275.2873150054157"/>
      <point x="482.8023310543822" y="-276.0" type="curve" smooth="yes"/>
      <point x="377.5750295177445" y="-275.92016438264415"/>
      <point x="266.16373201022105" y="-251.4633633783574"/>
      <point x="173.60354286701133" y="-215.08984631377342" type="curve" smooth="yes"/>
      <point x="132.07976215615435" y="-203.99818964531877"/>
      <point x="82.78960893459268" y="-212.31115690517794"/>
      <point x="53.25533628069566" y="-259.3898151322462" type="curve" smooth="yes"/>
      <point x="25.10781190029068" y="-307.25211621411654"/>
      <point x="38.58814245211287" y="-323.27040101494373"/>
      <point x="81.55993180508732" y="-332.9534702169831" type="curve" smooth="yes"/>
      <point x="191.87846935416945" y="-374.47377881351076"/>
      <point x="328.4979266962771" y="-396.05057536814104"/>
      <point x="456.7059379095293" y="-396.0" type="curve" smooth="yes"/>
      <point x="735.4351442263126" y="-396.632922826392"/>
      <point x="931.9660907972998" y="-261.89052490332114"/>
      <point x="977.3151921570635" y="-27.568925512662975" type="curve" smooth="yes"/>
      <point x="1135.8331478139735" y="871.431074487337" type="line" smooth="yes"/>
      <point x="1144.2760329157104" y="914.0247984324138"/>
      <point x="1112.9175459795258" y="920.5518877138535"/>
      <point x="1052.6893999817062" y="920.0" type="curve" smooth="yes"/>
      <point x="1050.6893999817062" y="920.0" type="line" smooth="yes"/>
      <point x="991.0854248119219" y="920.4591374319032"/>
      <point x="954.3889187630693" y="909.5515611593787"/>
      <point x="944.6231446573386" y="866.568925512663" type="curve" smooth="yes"/>
      <point x="935.112067317924" y="812.6289255126629" type="line" smooth="yes"/>
      <point x="935.091510969458" y="786.8759592806132"/>
      <point x="958.3994402364276" y="778.4994551318085"/>
      <point x="957.9298615586786" y="799.8885914736346" type="curve" smooth="yes"/>
      <point x="908.6416229169735" y="872.8691841950781"/>
      <point x="796.5675602688307" y="932.4818036929215"/>
      <point x="656.8053237502079" y="932.0" type="curve" smooth="yes"/>
      <point x="400.70502319958035" y="932.8855646712766"/>
      <point x="173.93771195508793" y="767.0212237466206"/>
    </contour>
    <contour>
      <point x="867.266238026705" y="484.568925512663" type="curve" smooth="yes"/>
      <point x="835.7843273605931" y="282.84726691432746"/>
      <point x="699.47690545722" y="162.77987703727078"/>
      <point x="531.0335486046898" y="162.0" type="curve" smooth="yes"/>
      <point x="361.5519044944687" y="163.44879213190748"/>
      <point x="293.62431201835864" y="303.7707017325892"/>
      <point x="325.4762411833398" y="489.431074487337" type="curve" smooth="yes"/>
      <point x="354.9110855343976" y="674.3995420543912"/>
      <point x="469.79362630234635" y="810.9039801029974"/>
      <point x="640.708930605355" y="812.0" type="curve" smooth="yes"/>
      <point x="808.1079392710727" y="811.0105162982284"/>
      <point x="902.3352485180803" y="687.2888268299041"/>
    </contour>
  </outline>
</glyph>
<glyph name="h" format="2">
  <advance width="994"/>
  <unicode hex="0068"/>
  <outline>
    <contour>
      <point x="383.1042684965907" y="1308.0" type="line" smooth="yes"/>
      <point x="320.90210135677034" y="1308.4041593952486"/>
      <point x="282.07298493002963" y="1297.2204517418131"/>
      <point x="272.0380131722231" y="1254.5689255126629" type="curve" smooth="yes"/>
      <point x="60.092982360648165" y="52.56892551266297" type="line" smooth="yes"/>
      <point x="51.71750718546434" y="10.401273050558164"/>
      <point x="85.48441084270917" y="3.5196335395191802"/>
      <point x="148.23673019291536" y="4.0" type="curve" smooth="yes"/>
      <point x="150.23673019291536" y="4.0" type="line" smooth="yes"/>
      <point x="212.4388973327357" y="3.5958406047512987"/>
      <point x="251.26801375947642" y="14.779548258186935"/>
      <point x="261.302985517283" y="57.43107448733703" type="curve" smooth="yes"/>
      <point x="320.72517801603567" y="394.431074487337" type="line" smooth="yes"/>
      <point x="357.20344433758515" y="627.562159947585"/>
      <point x="566.4726772302386" y="810.7439383830072"/>
      <point x="726.708930605355" y="812.0" type="curve" smooth="yes"/>
      <point x="844.7732382079892" y="810.701423523099"/>
      <point x="869.080101327285" y="721.3693837464701"/>
      <point x="849.0728217503039" y="602.568925512663" type="curve" smooth="yes"/>
      <point x="752.0929823606481" y="52.56892551266297" type="line" smooth="yes"/>
      <point x="743.7175071854643" y="10.401273050558181"/>
      <point x="777.4844108427092" y="3.5196335395191802"/>
      <point x="840.2367301929154" y="4.0" type="curve" smooth="yes"/>
      <point x="842.2367301929154" y="4.0" type="line" smooth="yes"/>
      <point x="904.4388973327357" y="3.5958406047512987"/>
      <point x="943.2680137594765" y="14.779548258186928"/>
      <point x="953.302985517283" y="57.43107448733702" type="curve" smooth="yes"/>
      <point x="1052.9277296175655" y="622.431074487337" type="line" smooth="yes"/>
      <point x="1088.2191097902924" y="817.6496553721552"/>
      <point x="982.0242340873652" y="933.1266709122315"/>
      <point x="767.8053237502079" y="932.0" type="curve" smooth="yes"/>
      <point x="625.2361818402367" y="932.606391958462"/>
      <point x="453.0537022531447" y="843.8429812211009"/>
      <point x="367.24632827519287" y="750.5499717272388" type="curve" smooth="yes"/>
      <point x="356.084279766293" y="726.475941834901"/>
      <point x="382.1185082238494" y="739.0825034200383"/>
      <point x="387.0241227624185" y="770.431074487337" type="curve" smooth="yes"/>
      <point x="473.2480163288579" y="1259.4310744873371" type="line" smooth="yes"/>
      <point x="481.6234915040417" y="1301.598726949442"/>
      <point x="447.85658784679686" y="1308.4803664604808"/>
      <point x="385.1042684965907" y="1308.0" type="curve" smooth="yes"/>
    </contour>
  </outline>
</glyph>
<glyph name="k" format="2">
  <advance width="972"/>
  <unicode hex="006B"/>
  <outline>
    <contour>
      <point x="888.0682830224819" y="912.9054879227448" type="curve" smooth="yes"/>
      <point x="317.41907707214096" y="473.48726775285286" type="line" smooth="yes"/>
      <point x="304.998245294802" y="454.0735505903458"/>
      <point x="320.4511398945257" y="470.7697276720511"/>
      <point x="325.8826513837135" y="503.0785049072589" type="curve" smooth="yes"/>
      <point x="459.2480163288579" y="1259.4310744873371" type="line" smooth="yes"/>
      <point x="467.6234915040417" y="1301.598726949442"/>
      <point x="433.85658784679686" y="1308.4803664604808"/>
      <point x="371.1042684965907" y="1308.0" type="curve" smooth="yes"/>
      <point x="369.1042684965907" y="1308.0" type="line" smooth="yes"/>
      <point x="306.90210135677034" y="1308.4041593952486"/>
      <point x="268.07298493002963" y="1297.2204517418131"/>
      <point x="258.0380131722231" y="1254.5689255126629" type="curve" smooth="yes"/>
      <point x="46.092982360648165" y="52.56892551266297" type="line" smooth="yes"/>
      <point x="37.71750718546434" y="10.401273050558164"/>
      <point x="71.48441084270917" y="3.5196335395191802"/>
      <point x="134.23673019291536" y="4.0" type="curve" smooth="yes"/>
      <point x="136.23673019291536" y="4.0" type="line" smooth="yes"/>
      <point x="198.4388973327357" y="3.5958406047512987"/>
      <point x="237.26801375947642" y="14.779548258186935"/>
      <point x="247.302985517283" y="57.43107448733703" type="curve" smooth="yes"/>
      <point x="274.7317752392617" y="212.987470971712" type="line" smooth="yes"/>
      <point x="277.36128042085244" y="241.69486019848247"/>
      <point x="297.0601413056708" y="282.4649960732112"/>
      <point x="314.9730939277282" y="301.398274475368" type="curve" smooth="yes"/>
      <point x="440.09495932757363" y="396.687174996322" type="line" smooth="yes"/>
      <point x="453.38057216384504" y="415.83935478611613"/>
      <point x="467.4372068886438" y="413.2897542617824"/>
      <point x="470.9474289870678" y="389.95109953738825" type="curve" smooth="yes"/>
      <point x="747.5209357234445" y="11.248521391042132" type="line" smooth="yes"/>
      <point x="775.8733723094181" y="-11.551004401199442"/>
      <point x="825.8738234718152" y="-8.817204609991272"/>
      <point x="880.883169194144" y="17.419252938233107" type="curve" smooth="yes"/>
      <point x="940.1115141498758" y="43.454500884617495"/>
      <point x="956.9244909652546" y="57.4878297508057"/>
      <point x="927.6750040478901" y="86.68972753625573" type="curve" smooth="yes"/>
      <point x="643.0213427609197" y="472.508524082408" type="line" smooth="yes"/>
      <point x="634.0269711561516" y="497.78441283497375"/>
      <point x="637.7541110292934" y="538.4127380544784"/>
      <point x="653.3433826429366" y="559.0905334524316" type="curve" smooth="yes"/>
      <point x="1027.6114914320842" y="844.1466997547814" type="line" smooth="yes"/>
      <point x="1074.5727347643476" y="870.1053613455466"/>
      <point x="1069.8718183731162" y="887.6598088664565"/>
      <point x="1021.3289302203074" y="912.3443367267503" type="curve" smooth="yes"/>
      <point x="976.7324341367706" y="935.5787159329465"/>
      <point x="923.5226677793432" y="932.9226736242728"/>
    </contour>
  </outline>
</glyph>
<glyph name="l" format="2">
  <advance width="491"/>
  <unicode hex="006C"/>
  <outline>
    <contour>
      <point x="117.03746680096636" y="130.0" type="line" smooth="yes"/>
      <point x="87.09271896212357" y="134.31167758315297"/>
      <point x="72.57341193855027" y="120.753181504099"/>
      <point x="63.09054103269206" y="69.56892551266297" type="curve" smooth="yes"/>
      <point x="53.69455158687374" y="18.41100058775898"/>
      <point x="58.23457592866288" y="7.255624113030798"/>
      <point x="91.6463815789474" y="14.0" type="curve" smooth="yes"/>
      <point x="399.1036184210526" y="14.0" type="line" smooth="yes"/>
      <point x="429.0483662598954" y="9.688322416847033"/>
      <point x="443.56767328346865" y="23.246818495900996"/>
      <point x="453.0505441893269" y="74.43107448733703" type="curve" smooth="yes"/>
      <point x="462.4465336351452" y="125.58899941224101"/>
      <point x="457.90650929335607" y="136.7443758869692"/>
      <point x="424.49470364307155" y="130.0" type="curve" smooth="yes"/>
      <point x="378.25592074833474" y="130.0" type="line" smooth="yes"/>
      <point x="372.3676110633286" y="131.5407843012226"/>
      <point x="372.49404843005675" y="155.79229943025013"/>
      <point x="376.28166728455744" y="179.91433106628438" type="curve" smooth="yes"/>
      <point x="564.3373445270163" y="1246.4310744873371" type="line" smooth="yes"/>
      <point x="573.44774218368" y="1292.7674994406227"/>
      <point x="540.2135372508857" y="1298.5936536535507"/>
      <point x="487.72257763687446" y="1298.0" type="curve" smooth="yes"/>
      <point x="332.92159079476926" y="1298.0" type="line" smooth="yes"/>
      <point x="302.9768429559265" y="1302.311677583153"/>
      <point x="288.45753593235315" y="1288.753181504099"/>
      <point x="278.97466502649496" y="1237.5689255126629" type="curve" smooth="yes"/>
      <point x="269.57867558067665" y="1186.411000587759"/>
      <point x="274.1186999224658" y="1175.2556241130308"/>
      <point x="307.53050557275026" y="1182.0" type="curve" smooth="yes"/>
      <point x="346.85507794117126" y="1182.0" type="line" smooth="yes"/>
      <point x="350.089761310388" y="1180.4592156987774"/>
      <point x="348.0250435892995" y="1158.5609163592235"/>
      <point x="344.70533065099056" y="1137.0925110389787" type="curve" smooth="yes"/>
      <point x="174.92452390270512" y="174.2177084073998" type="line" smooth="yes"/>
      <point x="175.64227909348716" y="151.74547651129012"/>
      <point x="169.0759494246082" y="131.15748899916844"/>
      <point x="162.1238812746505" y="130.0" type="curve" smooth="yes"/>
    </contour>
  </outline>
</glyph>
<glyph name="m" format="2">
  <advance width="1156"/>
  <unicode hex="006D"/>
  <outline>
    <contour>
      <point x="777.0496871508761" y="800.2952044562768" type="curve" smooth="yes"/>
      <point x="768.3114673839431" y="773.8489680219981"/>
      <point x="792.0565316571082" y="780.3415949227177"/>
      <point x="794.6142142494693" y="811.6614111718065" type="curve" smooth="yes"/>
      <point x="789.7751732723084" y="881.6766225620494"/>
      <point x="710.0335117266534" y="932.911501325377"/>
      <point x="613.8053237502079" y="932.0" type="curve" smooth="yes"/>
      <point x="514.6934307497596" y="932.6988316557314"/>
      <point x="408.9879891392811" y="875.4787657378895"/>
      <point x="340.8648589132448" y="743.4606504166228" type="curve"/>
      <point x="392.8331478139734" y="871.431074487337" type="line" smooth="yes"/>
      <point x="401.3193785243752" y="914.4536097145833"/>
      <point x="372.4620425247186" y="920.6402274389932"/>
      <point x="314.6893999817063" y="920.0" type="curve" smooth="yes"/>
      <point x="312.6893999817063" y="920.0" type="line" smooth="yes"/>
      <point x="255.63013264380444" y="920.5259024546197"/>
      <point x="221.13022220061458" y="909.8938056427553"/>
      <point x="211.62314465733866" y="866.568925512663" type="curve" smooth="yes"/>
      <point x="68.09298236064816" y="52.56892551266298" type="line" smooth="yes"/>
      <point x="59.71750718546434" y="10.401273050558164"/>
      <point x="93.48441084270917" y="3.5196335395191802"/>
      <point x="156.23673019291536" y="4.0" type="curve" smooth="yes"/>
      <point x="158.23673019291536" y="4.0" type="line" smooth="yes"/>
      <point x="220.4388973327357" y="3.5958406047512987"/>
      <point x="259.2680137594764" y="14.779548258186935"/>
      <point x="269.302985517283" y="57.43107448733703" type="curve" smooth="yes"/>
      <point x="340.1864317620859" y="459.431074487337" type="line" smooth="yes"/>
      <point x="374.2729062557343" y="664.2887275144185"/>
      <point x="468.622075358947" y="809.4680692711056"/>
      <point x="548.708930605355" y="812.0" type="curve" smooth="yes"/>
      <point x="603.8781822873468" y="810.1765180413702"/>
      <point x="609.0737622113863" y="749.2705021982855"/>
      <point x="593.7708056892694" y="657.568925512663" type="curve" smooth="yes"/>
      <point x="487.09298236064814" y="52.56892551266297" type="line" smooth="yes"/>
      <point x="478.71750718546434" y="10.401273050558181"/>
      <point x="512.4844108427092" y="3.5196335395191802"/>
      <point x="575.2367301929154" y="4.0" type="curve" smooth="yes"/>
      <point x="577.2367301929154" y="4.0" type="line" smooth="yes"/>
      <point x="639.4388973327357" y="3.5958406047512987"/>
      <point x="678.2680137594765" y="14.779548258186928"/>
      <point x="688.302985517283" y="57.43107448733702" type="curve" smooth="yes"/>
      <point x="759.1864317620859" y="459.431074487337" type="line" smooth="yes"/>
      <point x="793.2729062557343" y="664.2887275144185"/>
      <point x="887.622075358947" y="809.4680692711056"/>
      <point x="967.708930605355" y="812.0" type="curve" smooth="yes"/>
      <point x="1022.878182287347" y="810.1765180413702"/>
      <point x="1028.0737622113863" y="749.2705021982855"/>
      <point x="1012.7708056892694" y="657.568925512663" type="curve" smooth="yes"/>
      <point x="906.0929823606481" y="52.56892551266298" type="line" smooth="yes"/>
      <point x="897.7175071854643" y="10.401273050558181"/>
      <point x="931.4844108427092" y="3.5196335395191802"/>
      <point x="994.2367301929154" y="4.0" type="curve" smooth="yes"/>
      <point x="996.2367301929154" y="4.0" type="line" smooth="yes"/>
      <point x="1058.4388973327357" y="3.5958406047512987"/>
      <point x="1097.2680137594764" y="14.779548258186946"/>
      <point x="1107.3029855172829" y="57.43107448733703" type="curve" smooth="yes"/>
      <point x="1217.1546944986567" y="680.431074487337" type="line" smooth="yes"/>
      <point x="1249.446863500249" y="858.6444363583065"/>
      <point x="1156.329886547194" y="933.198269967441"/>
      <point x="1031.805323750208" y="932.0" type="curve" smooth="yes"/>
      <point x="931.7233908311863" y="932.693544820881"/>
      <point x="833.2299156950487" y="876.9873052590955"/>
    </contour>
  </outline>
</glyph>
<glyph name="n" format="2">
  <advance width="1010"/>
  <unicode hex="006E"/>
  <outline>
    <contour>
      <point x="361.5971750103145" y="737.4003908830667" type="curve" smooth="yes"/>
      <point x="350.5842676389386" y="712.9751997229852"/>
      <point x="377.71545086554585" y="725.2231074630549"/>
      <point x="382.5555450325" y="756.431074487337" type="curve" smooth="yes"/>
      <point x="402.8331478139734" y="871.431074487337" type="line" smooth="yes"/>
      <point x="411.27603291571035" y="914.024798432414"/>
      <point x="379.91754597952604" y="920.5518877138535"/>
      <point x="319.6893999817063" y="920.0" type="curve" smooth="yes"/>
      <point x="317.6893999817063" y="920.0" type="line" smooth="yes"/>
      <point x="258.085424811922" y="920.4591374319032"/>
      <point x="221.3889187630694" y="909.5515611593787"/>
      <point x="211.62314465733866" y="866.568925512663" type="curve" smooth="yes"/>
      <point x="68.09298236064816" y="52.56892551266298" type="line" smooth="yes"/>
      <point x="59.71750718546434" y="10.401273050558164"/>
      <point x="93.48441084270917" y="3.5196335395191802"/>
      <point x="156.23673019291536" y="4.0" type="curve" smooth="yes"/>
      <point x="158.23673019291536" y="4.0" type="line" smooth="yes"/>
      <point x="220.4388973327357" y="3.5958406047512987"/>
      <point x="259.2680137594764" y="14.779548258186935"/>
      <point x="269.302985517283" y="57.43107448733703" type="curve" smooth="yes"/>
      <point x="328.72517801603567" y="394.431074487337" type="line" smooth="yes"/>
      <point x="365.20344433758515" y="627.562159947585"/>
      <point x="574.4726772302386" y="810.7439383830072"/>
      <point x="734.708930605355" y="812.0" type="curve" smooth="yes"/>
      <point x="852.7732382079892" y="810.701423523099"/>
      <point x="877.080101327285" y="721.3693837464701"/>
      <point x="857.0728217503039" y="602.568925512663" type="curve" smooth="yes"/>
      <point x="760.0929823606481" y="52.56892551266297" type="line" smooth="yes"/>
      <point x="751.7175071854643" y="10.401273050558181"/>
      <point x="785.4844108427092" y="3.5196335395191802"/>
      <point x="848.2367301929154" y="4.0" type="curve" smooth="yes"/>
      <point x="850.2367301929154" y="4.0" type="line" smooth="yes"/>
      <point x="912.4388973327357" y="3.5958406047512987"/>
      <point x="951.2680137594765" y="14.779548258186928"/>
      <point x="961.302985517283" y="57.43107448733702" type="curve" smooth="yes"/>
      <point x="1060.9277296175655" y="622.431074487337" type="line" smooth="yes"/>
      <point x="1096.2191097902924" y="817.6496553721552"/>
      <point x="990.0242340873652" y="933.1266709122315"/>
      <point x="775.8053237502079" y="932.0" type="curve" smooth="yes"/>
      <point x="621.661855720889" y="932.7044269292375"/>
      <point x="444.16601584603876" y="831.0934278959909"/>
    </contour>
  </outline>
</glyph>
<glyph name="o" format="2">
  <advance width="1080"/>
  <unicode hex="006F"/>
  <outline>
    <contour>
      <point x="115.85806350899342" y="459.568925512663" type="curve" smooth="yes"/>
      <point x="66.486659657333" y="183.3335315497325"/>
      <point x="249.3615676978198" y="-9.254957961496638"/>
      <point x="536.1208064244138" y="-8.0" type="curve" smooth="yes"/>
      <point x="821.6048146475677" y="-8.964630315959145"/>
      <point x="1074.0551601114976" y="187.1836217081941"/>
      <point x="1127.068066665628" y="464.431074487337" type="curve" smooth="yes"/>
      <point x="1176.4394705172886" y="740.6664684502675"/>
      <point x="993.5645624768019" y="933.2549579614966"/>
      <point x="706.8053237502079" y="932.0" type="curve" smooth="yes"/>
      <point x="421.321315527054" y="932.9646303159592"/>
      <point x="168.87097006312413" y="736.8163782918059"/>
    </contour>
    <contour>
      <point x="921.8580635089934" y="459.568925512663" type="curve" smooth="yes"/>
      <point x="890.0727726861019" y="258.12956314364726"/>
      <point x="748.632640481343" y="112.98597135463669"/>
      <point x="562.2171995692665" y="112.0" type="curve" smooth="yes"/>
      <point x="377.10306017124196" y="113.28617118067407"/>
      <point x="286.16868030571413" y="262.11517813832194"/>
      <point x="321.06806666562824" y="464.431074487337" type="curve" smooth="yes"/>
      <point x="352.85335748851963" y="665.8704368563527"/>
      <point x="494.2934896932787" y="811.0140286453633"/>
      <point x="680.708930605355" y="812.0" type="curve" smooth="yes"/>
      <point x="865.8230700033797" y="810.713828819326"/>
      <point x="956.7574498689074" y="661.8848218616781"/>
    </contour>
  </outline>
</glyph>
<glyph name="p" format="2">
  <advance width="1033"/>
  <unicode hex="0070"/>
  <outline>
    <contour>
      <point x="355.1366651517094" y="797.3996911640484" type="curve" smooth="yes"/>
      <point x="347.19071379360497" y="777.9823702007055"/>
      <point x="373.1059625570511" y="790.587450788129"/>
      <point x="377.32207047455887" y="817.491074487337" type="curve" smooth="yes"/>
      <point x="386.8331478139734" y="871.431074487337" type="line" smooth="yes"/>
      <point x="395.27603291571035" y="914.024798432414"/>
      <point x="363.91754597952604" y="920.5518877138535"/>
      <point x="303.6893999817063" y="920.0" type="curve" smooth="yes"/>
      <point x="301.6893999817063" y="920.0" type="line" smooth="yes"/>
      <point x="242.085424811922" y="920.4591374319032"/>
      <point x="205.3889187630694" y="909.5515611593787"/>
      <point x="195.62314465733866" y="866.568925512663" type="curve" smooth="yes"/>
      <point x="-16.32188615423625" y="-335.431074487337" type="line" smooth="yes"/>
      <point x="-24.697361329420072" y="-377.5987269494418"/>
      <point x="9.06954232782477" y="-384.4803664604808"/>
      <point x="71.82186167803094" y="-384.0" type="curve" smooth="yes"/>
      <point x="73.82186167803094" y="-384.0" type="line" smooth="yes"/>
      <point x="136.02402881785127" y="-384.4041593952487"/>
      <point x="174.853145244592" y="-373.22045174181306"/>
      <point x="184.88811700239856" y="-330.568925512663" type="curve" smooth="yes"/>
      <point x="260.3560647456216" y="97.43107448733703" type="line" smooth="yes"/>
      <point x="261.1696493170828" y="127.95826267813419"/>
      <point x="241.22570287041353" y="137.4400586355173"/>
      <point x="243.9616334492266" y="112.50410452778897" type="curve" smooth="yes"/>
      <point x="287.1818616790556" y="51.07780990973191"/>
      <point x="391.136092180292" y="-8.514642045223182"/>
      <point x="531.1208064244138" y="-8.0" type="curve" smooth="yes"/>
      <point x="787.6488101590015" y="-8.973935983254732"/>
      <point x="1015.9513001170167" y="166.78843146662095"/>
      <point x="1072.068066665628" y="464.431074487337" type="curve" smooth="yes"/>
      <point x="1125.200187921704" y="761.2309929292012"/>
      <point x="959.619941939689" y="933.2685550638602"/>
      <point x="701.8053237502079" y="932.0" type="curve" smooth="yes"/>
      <point x="562.5947433088772" y="932.4052729856495"/>
      <point x="430.5924356756103" y="871.6046923164084"/>
    </contour>
    <contour>
      <point x="866.8580635089934" y="459.568925512663" type="curve" smooth="yes"/>
      <point x="834.5444129177251" y="259.8516866132281"/>
      <point x="717.5355752228222" y="113.23604321964251"/>
      <point x="547.2171995692665" y="112.0" type="curve" smooth="yes"/>
      <point x="380.5860520021635" y="113.16148129661629"/>
      <point x="287.52377559508716" y="247.1151781383219"/>
      <point x="325.06806666562824" y="464.431074487337" type="curve" smooth="yes"/>
      <point x="359.4982621991466" y="680.8704368563527"/>
      <point x="497.88195445464675" y="811.0997371217935"/>
      <point x="665.708930605355" y="812.0" type="curve" smooth="yes"/>
      <point x="834.4304762175665" y="810.3405183242784"/>
      <point x="901.2609119688228" y="659.8889888697205"/>
    </contour>
  </outline>
</glyph>
